<svg xmlns="http://www.w3.org/2000/svg" xmlns:xlink="http://www.w3.org/1999/xlink" width="256" height="256" viewBox="0 0 256 256">
  <defs>
    <clipPath id="clip-dorpsreuzen">
      <rect width="256" height="256"/>
    </clipPath>
  </defs>
  <g id="dorpsreuzen" clip-path="url(#clip-dorpsreuzen)">
    <g id="Laag_x0020_1" transform="translate(-64.538 -159.301)">
      <path id="Path_10" data-name="Path 10" d="M312.614,284.573h0V405.68H192.947c-.473.006-.945.018-1.42.018A121.087,121.087,0,1,1,312.614,284.573Z" transform="translate(7.922 9.603)" fill="#96989a" fill-rule="evenodd"/>
      <path id="Path_11" data-name="Path 11" d="M309.66,280.88h0V401.987H189.993c-.473.005-.945.018-1.42.018A121.087,121.087,0,1,1,309.66,280.88Z" transform="translate(1.205 1.205)" fill="#fefefe" fill-rule="evenodd"/>
      <path id="Path_12" data-name="Path 12" d="M312.594,281.9a1.7,1.7,0,0,1,.01.184V403.193a1.736,1.736,0,0,1-1.736,1.736H191.2c-.044,0-.087,0-.13,0l-.354.006c-.5.008-.864.017-.935.017A122.824,122.824,0,1,1,312.594,281.9Zm-3.462,119.555V282.086h.005A119.356,119.356,0,1,0,189.779,401.475c.679,0,.78,0,.881,0l.362-.006a1.73,1.73,0,0,1,.176-.009H309.131Z" transform="translate(0)" fill="#373435"/>
      <path id="Path_13" data-name="Path 13" d="M290.892,273.191h0v110.03H182.17c-.43,0-.859.016-1.29.016A110.012,110.012,0,1,1,290.892,273.191Z" transform="translate(8.897 8.898)" fill="#fefefe" fill-rule="evenodd"/>
      <path id="Path_14" data-name="Path 14" d="M293.826,274.214a1.77,1.77,0,0,1,.009.183v110.03a1.736,1.736,0,0,1-1.736,1.736H183.376c-.044,0-.087,0-.13,0l-.308,0c-.476.008-.746.016-.853.016a111.748,111.748,0,1,1,111.74-111.965Zm-3.462,108.477V274.4h.005a108.281,108.281,0,1,0-108.282,108.31c.658,0,.725,0,.8,0l.316-.005a1.748,1.748,0,0,1,.176-.009Z" transform="translate(7.692 7.691)" fill="#373435"/>
      <path id="Path_15" data-name="Path 15" d="M92.989,205.328a10.38,10.38,0,0,0-5.066,8.683c0,5.947,5.55,10.768,12.4,10.768a14.084,14.084,0,0,0,4.089-.6v17.912h4.116V225.846a14.645,14.645,0,0,0,5.621,1.1c7.207,0,13.048-5.074,13.048-11.333a10.581,10.581,0,0,0-3.689-7.9,10.035,10.035,0,0,0,1.038-4.437,10.2,10.2,0,0,0-1.877-5.859,5.635,5.635,0,0,0,3.7-5.129c0-3.107-2.815-5.626-6.288-5.626a6.906,6.906,0,0,0-2.523.471,9.285,9.285,0,0,0,.112-1.439c0-4.61-3.361-8.348-7.506-8.348a7.5,7.5,0,0,0-6.8,4.813,11.037,11.037,0,0,0-2.178-.215c-5.308,0-9.611,3.738-9.611,8.348a7.977,7.977,0,0,0,3.6,6.51A8.767,8.767,0,0,0,92.694,203a9.229,9.229,0,0,0,.3,2.326Z" transform="translate(47.678 41.049)" fill="#039" fill-rule="evenodd"/>
      <path id="Path_16" data-name="Path 16" d="M278.313,332.046c0-30.51-.517-57.919-.517-88.429-.086-11.417-4.307-22.575-7.237-29.081l-16.721,5.907v12.128l-29.147-7.629V192.861l-14.476-20.54L193.2,192.469v34.22L179.308,212.8l-12.718,14.628-.243,11.469-9.926.047v3.077l-9.585,3.656v7.439h-5.643v-10.96l-19.244-3.939-.119-6.07L97.236,219.316c-5.8,4.664-17.915,11.736-22.246,14.618l-.094-.012A102.6,102.6,0,0,0,175.728,355.164q2.622,0,5.213-.132c25.625-.145,51.3-.327,76.255-.217,24.162-.006,21.116,3.935,21.116-22.769Z" transform="translate(14.173 29.605)" fill="#039" stroke="#373435" stroke-width="0.2" fill-rule="evenodd"/>
      <path id="Path_17" data-name="Path 17" d="M117.05,248.255h-5.734v-3.476c-.895.749-1.665,1.374-2.321,1.863a12.428,12.428,0,0,1-2.279,1.343,12.827,12.827,0,0,1-2.529.895,12.681,12.681,0,0,1-3.049.323A11.535,11.535,0,0,1,96,248.046a10.976,10.976,0,0,1-4.007-3.392A16.37,16.37,0,0,1,89.4,239.1a28.492,28.492,0,0,1-.916-7.608,23.417,23.417,0,0,1,1.155-7.763,18.4,18.4,0,0,1,3.205-5.713,13.175,13.175,0,0,1,4.5-3.486,12.648,12.648,0,0,1,5.536-1.27,15.648,15.648,0,0,1,4.444.562,19.182,19.182,0,0,1,4,1.759V200.81h5.734v47.444Zm-5.734-8.294V220.333a18.112,18.112,0,0,0-3.829-1.436,16.308,16.308,0,0,0-3.674-.4,8.188,8.188,0,0,0-6.92,3.31q-2.5,3.309-2.5,9.553,0,6.01,1.925,9.2a6.642,6.642,0,0,0,6.15,3.184,11.161,11.161,0,0,0,4.547-1.02,17.571,17.571,0,0,0,4.3-2.768Z" transform="translate(48.952 94.388)" fill="#fefefe"/>
      <path id="_1" data-name="1" d="M129.434,222.6q0,8.6-4.142,13.279a14.036,14.036,0,0,1-11.042,4.683q-7.1,0-11.177-4.829T99,222.6q0-8.523,4.194-13.258a15.289,15.289,0,0,1,22.094-.01C128.05,212.459,129.434,216.892,129.434,222.6Zm-5.911,0q0-6.6-2.414-9.824a8.056,8.056,0,0,0-6.858-3.216,8.139,8.139,0,0,0-6.91,3.216q-2.42,3.216-2.425,9.824,0,6.4,2.425,9.709a8.856,8.856,0,0,0,13.758.062Q123.518,229.12,123.523,222.6Z" transform="translate(72.875 103.033)" fill="#fefefe"/>
      <path id="_12" data-name="12" d="M128.152,211.052h-.3a6.345,6.345,0,0,0-1.363-.229c-.479-.031-1.051-.042-1.717-.042a11.282,11.282,0,0,0-4.61,1.009,14.781,14.781,0,0,0-4.329,2.987v24.175H110.1V204.9h5.734v5.058a26.4,26.4,0,0,1,5.474-3.913,10.336,10.336,0,0,1,4.527-1.145c.593,0,1.03.01,1.332.042s.624.083.988.146Z" transform="translate(98.096 103.691)" fill="#fefefe"/>
      <path id="_123" data-name="123" d="M145.534,221.679q0,8.508-4.069,13.55a12.682,12.682,0,0,1-10.292,5.047,15.764,15.764,0,0,1-4.475-.583,17.6,17.6,0,0,1-4-1.79v14.268h-5.734V205.559H122.7v3.559a21.177,21.177,0,0,1,4.746-3.216,12.553,12.553,0,0,1,5.682-1.29,10.543,10.543,0,0,1,9.127,4.631q3.278,4.636,3.278,12.436Zm-5.911.645q0-5.822-1.863-9.044a6.431,6.431,0,0,0-6.036-3.216,10.842,10.842,0,0,0-4.7,1.082,20.35,20.35,0,0,0-4.319,2.789V233.23a19.683,19.683,0,0,0,3.861,1.5,15.515,15.515,0,0,0,3.673.4,8.189,8.189,0,0,0,6.921-3.257Q139.623,228.6,139.623,222.324Z" transform="translate(113.721 103.033)" fill="#fefefe"/>
    </g>
  </g>
</svg>
