<svg xmlns="http://www.w3.org/2000/svg" xmlns:xlink="http://www.w3.org/1999/xlink" width="256" height="256" viewBox="0 0 256 256">
  <defs>
    <clipPath id="clip-kaartreuzen">
      <rect width="256" height="256"/>
    </clipPath>
  </defs>
  <g id="kaartreuzen" clip-path="url(#clip-kaartreuzen)">
    <g id="Laag_x0020_1" transform="translate(-60.157 -72.79)">
      <path id="Path_1" data-name="Path 1" d="M185.9,77.014v0H308.215V196.681c.006.473.018.945.018,1.42,0,66.874-54.754,121.086-122.3,121.086S63.641,264.974,63.641,198.1,118.374,77.035,185.9,77.014Z" transform="translate(7.923 9.603)" fill="#96989a" fill-rule="evenodd"/>
      <path id="Path_2" data-name="Path 2" d="M182.945,73.321v0H305.261V192.988c.006.473.018.945.018,1.42,0,66.874-54.754,121.086-122.3,121.086s-122.3-54.212-122.3-121.086S115.42,73.342,182.945,73.321Z" transform="translate(1.206 1.206)" fill="#fefefe" fill-rule="evenodd"/>
      <path id="Path_3" data-name="Path 3" d="M183.965,72.8a1.834,1.834,0,0,1,.186-.009h122.3a1.745,1.745,0,0,1,1.753,1.736V194.194c0,.044,0,.087,0,.13l.006.354c.009.5.017.864.017.935a121.841,121.841,0,0,1-36.328,86.848,124.9,124.9,0,0,1-175.408,0,121.968,121.968,0,0,1-.014-173.676A124.256,124.256,0,0,1,183.965,72.8ZM304.7,76.262H184.151v-.005a120.746,120.746,0,0,0-85.2,34.97,118.537,118.537,0,0,0,.014,168.78,121.368,121.368,0,0,0,170.45,0,118.4,118.4,0,0,0,35.3-84.394c0-.679,0-.78,0-.881l-.006-.362a1.719,1.719,0,0,1-.009-.176V76.262Z" transform="translate(0 0)" fill="#373435"/>
      <path id="Path_4" data-name="Path 4" d="M175.256,76.7v0H286.5V185.426c0,.43.016.858.016,1.29,0,60.757-49.8,110.011-111.221,110.011S64.07,247.473,64.07,186.715,113.847,76.723,175.256,76.7Z" transform="translate(8.898 8.898)" fill="red" fill-rule="evenodd"/>
      <path id="Path_5" data-name="Path 5" d="M176.277,76.182a1.712,1.712,0,0,1,.184-.01H287.682a1.746,1.746,0,0,1,1.755,1.736V186.631q0,.065,0,.13l.005.307c.008.476.016.746.016.853a110.8,110.8,0,0,1-33.084,79.017,113.824,113.824,0,0,1-159.746,0,110.894,110.894,0,0,1-.013-158.015,113.215,113.215,0,0,1,79.666-32.741Zm109.65,3.462H176.462v-.005a109.7,109.7,0,0,0-77.369,31.725,107.465,107.465,0,0,0,.012,153.119,110.287,110.287,0,0,0,154.783,0,107.36,107.36,0,0,0,32.057-76.562c0-.658,0-.725,0-.8l0-.316a1.706,1.706,0,0,1-.009-.176V79.645Z" transform="translate(7.692 7.692)" fill="#373435"/>
      <path id="Path_6" data-name="Path 6" d="M102.233,151.427c11.878,11.8,23.458,24.909,32.23,39.334,9.073-14.425,20.595-26.94,32.057-39.334-11.462-12.395-22.984-24.909-32.057-39.334-8.772,14.426-20.352,27.537-32.23,39.334Z" transform="translate(97.438 89.37)" fill="#fff" stroke="#fff" stroke-width="0.2" fill-rule="evenodd"/>
      <path id="Path_7" data-name="Path 7" d="M136.054,86.72a17.305,17.305,0,0,1,14.835,26.211q.745-.064,1.506-.065a17.3,17.3,0,1,1-14.49,26.763,41.905,41.905,0,0,0,6.285,15.941H127.738a41.91,41.91,0,0,0,6.255-15.771,17.3,17.3,0,1,1-14.376-26.934q.813,0,1.607.074a17.306,17.306,0,0,1,14.83-26.22Z" transform="translate(97.655 31.677)" fill="#373435" fill-rule="evenodd"/>
      <path id="Path_8" data-name="Path 8" d="M113.2,154.622c-8.492-13.009-19.407-21.371-29.111-32.057-10.115-12.461-9.423-24.82-1.559-32.23,12.849-10.676,29.537.264,30.67,8.577,1.133-8.313,17.821-19.252,30.67-8.577,7.863,7.41,8.556,19.769-1.56,32.23C132.611,133.251,121.7,141.614,113.2,154.622Z" transform="translate(38.037 29.831)" fill="#fff" stroke="#fff" stroke-width="0.2" fill-rule="evenodd"/>
      <path id="Path_9" data-name="Path 9" d="M109.714,113.266c7.447,11.409,17.02,18.742,25.53,28.113,8.871,10.928,8.264,21.767,1.368,28.265-9.378,7.792-21.087,2.454-25.324-3.759.379,4.342,4.163,13.327,6.576,17.025H101.411a50.96,50.96,0,0,0,6.6-16.839c-4.341,6.133-15.911,11.288-25.2,3.574-6.9-6.5-7.5-17.337,1.368-28.265,8.509-9.371,18.083-16.7,25.529-28.113Z" transform="translate(40.359 92.039)" fill="#373435" fill-rule="evenodd"/>
    </g>
  </g>
</svg>
