<svg xmlns="http://www.w3.org/2000/svg" xmlns:xlink="http://www.w3.org/1999/xlink" width="256" height="256" viewBox="0 0 256 256">
  <defs>
    <clipPath id="clip-klein-peerke">
      <rect width="256" height="256"/>
    </clipPath>
  </defs>
  <g id="klein-peerke" clip-path="url(#clip-klein-peerke)">
    <g id="Laag_x0020_1" transform="translate(-69.721 -106.334)">
      <path id="Path_1" data-name="Path 1" d="M75.625,231.682h0V110.576H195.291c.473-.006.945-.018,1.42-.018A121.086,121.086,0,1,1,75.625,231.682Z" transform="translate(7.924 9.604)" fill="#96989a" fill-rule="evenodd"/>
      <path id="Path_2" data-name="Path 2" d="M72.67,227.989h0V106.883H192.337c.473-.006.945-.018,1.42-.018A121.087,121.087,0,1,1,72.67,227.989Z" transform="translate(1.206 1.206)" fill="#fefefe" fill-rule="evenodd"/>
      <path id="Path_3" data-name="Path 3" d="M72.148,229.379a1.787,1.787,0,0,1-.01-.184V108.089a1.736,1.736,0,0,1,1.736-1.736H193.543c.044,0,.087,0,.13,0l.354-.006c.5-.009.864-.017.935-.017A122.823,122.823,0,1,1,72.148,229.379Zm3.462-119.554v119.37h-.005A119.355,119.355,0,1,0,194.962,109.807c-.679,0-.78,0-.881,0l-.362.006a1.734,1.734,0,0,1-.176.009H75.611Z" transform="translate(0 0)" fill="#373435"/>
      <path id="Path_4" data-name="Path 4" d="M76.042,194.483h0V121.592c71.823,61.1,210.925-63.9,220.024,72.856.622,60.754-49.254,110.011-110.011,110.011A110.011,110.011,0,0,1,76.042,194.483Z" transform="translate(8.874 34.693)" fill="#063" stroke="#063" stroke-linecap="round" stroke-linejoin="round" stroke-width="1.061" fill-rule="evenodd"/>
      <path id="Path_5" data-name="Path 5" d="M84.9,110.445l14.8,66.6-1.851.573,5.177,13.75" transform="translate(29.012 9.347)" fill="none" stroke="#fefefe" stroke-linecap="round" stroke-linejoin="round" stroke-width="1.212" fill-rule="evenodd"/>
      <line id="Line_1" data-name="Line 1" x2="13.973" y2="65.543" transform="translate(120.596 119.877)" fill="none" stroke="#fefefe" stroke-linecap="round" stroke-linejoin="round" stroke-width="1.212"/>
      <g id="_468754440" transform="translate(119.099 173.607)">
        <path id="_468755232" d="M94.475,132.021a1.978,1.978,0,1,1,1.922,3.457l-5.309,2.946,9.545,18.786a1.979,1.979,0,0,1-3.534,1.783L86.693,138.511h0a1.978,1.978,0,0,1,.8-2.619Z" transform="translate(-86.482 -115.765)" fill="#fefefe"/>
        <path id="_468755208" d="M103.1,149.982a1.977,1.977,0,0,1-3.953.062l-.3-15.79-8.571.422a1.978,1.978,0,1,1-.186-3.953l10.6-.522v0l.062,0a1.977,1.977,0,0,1,2.008,1.945l.343,17.835Z" transform="translate(-82.569 -119.337)" fill="#fefefe"/>
        <path id="_468755136" d="M93.442,136.033a1.977,1.977,0,0,1,.372-3.937l7.337.692a1.977,1.977,0,0,1,1.783,2.155q-.009.091-.026.18l-2.869,18.45a1.976,1.976,0,0,1-3.906-.6l2.556-16.441-5.248-.5Z" transform="translate(-74.729 -115.049)" fill="#fefefe"/>
        <path id="_468754992" d="M112.1,144.531a1.977,1.977,0,0,1-3.953.109l-.061-1.943a25.578,25.578,0,0,0-15.222,3.9l.259.508c.342.669.684,1.338,1.065,2.194a1.974,1.974,0,1,1-3.611,1.6c-.314-.705-.643-1.349-.972-1.992-.321-.627-.641-1.254-.993-2.034a1.982,1.982,0,0,1,.572-2.563,29.54,29.54,0,0,1,21.064-5.4v.006a1.977,1.977,0,0,1,1.737,1.908Z" transform="translate(-82.21 -100.05)" fill="#fefefe"/>
        <path id="_468754920" d="M91.728,141.588a1.981,1.981,0,0,1,1.364,3.72,1.688,1.688,0,0,0-.4.222l1.1,1.708a27.224,27.224,0,0,1,5.761-2.744,27.7,27.7,0,0,1,7.886-1.389,1.978,1.978,0,1,1,.139,3.953,23.8,23.8,0,0,0-6.77,1.187,24.324,24.324,0,0,0-6.436,3.364l0,0-.074.05a1.974,1.974,0,0,1-2.728-.589l-3.008-4.653a1.977,1.977,0,0,1,.129-2.475l.015-.017a7.3,7.3,0,0,1,3.023-2.333Z" transform="translate(-82.608 -93.722)" fill="#fefefe"/>
        <path id="_468755184" d="M93.481,146.261a1.982,1.982,0,1,1-1.41-3.7,36.994,36.994,0,0,1,16.519-2.234,1.977,1.977,0,0,1,1.789,2.063c-.036,1.329-.06,2.219-.085,3.13-.032,1.165-.064,2.33-.087,3.163a1.977,1.977,0,0,1-3.953-.093c.036-1.326.061-2.252.087-3.178l.035-1.27a33.018,33.018,0,0,0-12.895,2.123Z" transform="translate(-76.679 -96.693)" fill="#fefefe"/>
        <path id="_468754896" d="M89.6,148.322a1.981,1.981,0,0,1,3.953-.279l.241,3.316a28.641,28.641,0,0,1,7.923-2.45,31.319,31.319,0,0,1,9.317,0l.117-2.753q-.164-.015-.325-.027a9.446,9.446,0,0,0-1.877.022,1.977,1.977,0,0,1-.511-3.922,13.14,13.14,0,0,1,2.668-.052c.856.062,1.658.173,2.393.284v0a1.978,1.978,0,0,1,1.682,2.033l-.289,6.824a2.04,2.04,0,0,1-.039.318,1.978,1.978,0,0,1-2.333,1.542,28.562,28.562,0,0,0-10.2-.37,25.371,25.371,0,0,0-9.166,3.365,1.982,1.982,0,0,1-3.093-1.5l-.463-6.361Z" transform="translate(-79.399 -92.197)" fill="#fefefe"/>
        <path id="_468754848" d="M93.22,147.384a1.984,1.984,0,1,1,3.953-.341c1.445,16.579-.676,29.338-2.835,42.33-.486,2.924-.974,5.86-1.432,8.93a14.092,14.092,0,0,0,1.6.673,32.084,32.084,0,0,0,3.467.961,1.98,1.98,0,0,1-.883,3.86,35.885,35.885,0,0,1-3.9-1.085,16.59,16.59,0,0,1-3.456-1.66,1.981,1.981,0,0,1-.944-1.979c.5-3.437,1.071-6.894,1.643-10.335,2.116-12.73,4.193-25.232,2.788-41.353Z" transform="translate(-81.283 -85.163)" fill="#fefefe"/>
        <path id="_468755544" d="M95.017,160.053a1.982,1.982,0,0,1,3.937.465c-.547,4.59-1.251,8.97-2.111,13.28-.741,3.714-1.6,7.382-2.573,11.092a17.8,17.8,0,0,0,2.266.481,14.171,14.171,0,0,0,3.663.071,1.982,1.982,0,0,1,.465,3.937,18.108,18.108,0,0,1-4.687-.087,22.565,22.565,0,0,1-4.739-1.229,1.983,1.983,0,0,1-1.281-2.4c1.153-4.248,2.152-8.417,2.995-12.642S94.486,164.513,95.017,160.053Z" transform="translate(-78.737 -55.435)" fill="#fefefe"/>
        <path id="_468754872" d="M93.569,208.932a1.978,1.978,0,1,1,3.953-.171,54.148,54.148,0,0,1-.2,7.252c-.143,1.591-.336,3.158-.558,4.7a59.015,59.015,0,0,0,10.794-1.371,62.606,62.606,0,0,0,11.229-3.645,102.925,102.925,0,0,0-6.209-14.437c-2.484-5.068-4.939-10.076-6.367-14.986a1.977,1.977,0,0,1,3.718-1.324h0c.415.971,1.12,2.645,1.813,4.291,2.868,6.81,5.535,13.143,9.311,19.4a26.794,26.794,0,0,0,5.4-2.743,12.2,12.2,0,0,0,3.945-4.249A226.241,226.241,0,0,1,113.111,174c-6.092-11.356-10.72-21.951-11.932-27.31a1.978,1.978,0,0,1,3.86-.868c1.137,5.027,5.621,15.231,11.56,26.3a218.128,218.128,0,0,0,17.668,28.08h0a1.977,1.977,0,0,1,.257,1.952,15.629,15.629,0,0,1-5.825,7,31.8,31.8,0,0,1-6.783,3.4c.434,1.23.82,2.461,1.146,3.691a1.98,1.98,0,0,1-1.07,2.358,66.914,66.914,0,0,1-13.58,4.6,62.722,62.722,0,0,1-13.888,1.5,1.978,1.978,0,0,1-2.018-2.287c.36-2.236.681-4.5.882-6.739a50.282,50.282,0,0,0,.186-6.741Z" transform="translate(-72.85 -87.322)" fill="#fefefe"/>
        <path id="_468754536" d="M96.4,165.045a1.98,1.98,0,1,1,3.487-1.876,27.427,27.427,0,0,1,2.3,8.047A28.468,28.468,0,0,0,103.9,177.8a1.98,1.98,0,0,1-3.6,1.659,31.466,31.466,0,0,1-2.01-7.544,24.6,24.6,0,0,0-1.892-6.868Z" transform="translate(-64.47 -46.742)" fill="#fefefe"/>
        <path id="_468754392" d="M94.932,154.881a1.98,1.98,0,1,1,3.689-1.441l2.5,6.41a1.98,1.98,0,1,1-3.689,1.441Z" transform="translate(-67.578 -69.36)" fill="#fefefe"/>
        <path id="_468754632" d="M90.533,139.484a1.98,1.98,0,0,1,3.689-1.441l2.5,6.41a1.98,1.98,0,0,1-3.689,1.441Z" transform="translate(-77.581 -104.371)" fill="#fefefe"/>
        <path id="_468754104" d="M141.137,147.468a17.543,17.543,0,0,0-4.371-3.892,36.4,36.4,0,0,0-12.4-5.052c-4.369-.892-8.7-.882-11.949.549a8.5,8.5,0,0,0-3.723,3.029l-.12.193c-4.329,6.963-7.32,11.777-5.835,24.952a28.739,28.739,0,0,0,7.056,12.457,51.2,51.2,0,0,0,10.039,8.131,14.7,14.7,0,0,0,3.552.236,27.43,27.43,0,0,0,3.952-.522,1.983,1.983,0,0,1,2.2,1.152c.022.044.064.13.139.283,4.237,8.687,10.562,16.375,18.38,20.62,7.674,4.167,16.863,5,27.007.135l.154-.074.007,0c-.091.043-.416.2.068-.04.821-.483,1.279-.748,1.733-1.01,4.018-2.322,7.945-4.591,8.972-7.02v0a19.5,19.5,0,0,0,.669-7.209,19.041,19.041,0,0,0-1.587-6.942,47.136,47.136,0,0,0-5.441-5.317c-7.459-6.758-19.824-17.96-26.833-32.653-3-.924-6.413-.059-9.861,1.915-4.761,2.726-9.511,7.509-13.436,12.765a1.978,1.978,0,0,1-1.426.79h0c-.211.018-.5.033-.857.045A17.15,17.15,0,0,1,114.37,159.8c-3.016-2.993-4.711-6.688-4.9-8.944,0-.02-.006-.117-.012-.288a1.958,1.958,0,0,1,.005-.232h-.005v-.015a9.73,9.73,0,0,1,3.923-6.663,10.826,10.826,0,0,1,7.1-2.382,21.866,21.866,0,0,1,10.353,2.374,24.553,24.553,0,0,1,7.32,5.194,19.763,19.763,0,0,1,1.854-.869c.381-.162.762-.325,1.132-.508Zm-2.186-7.193a19.845,19.845,0,0,1,6.025,5.814,13.849,13.849,0,0,1,9.912-.074,1.975,1.975,0,0,1,1.157,1.044c6.613,14.352,18.886,25.471,26.24,32.134,2.982,2.7,5.2,4.711,6.131,6.133a1.988,1.988,0,0,1,.159.263,22.806,22.806,0,0,1,2.039,8.544,23.4,23.4,0,0,1-.926,8.849q-.024.073-.054.144c-1.55,3.663-6.038,6.257-10.631,8.911-.669.387-1.338.773-1.712.992a1.989,1.989,0,0,1-.268.158c-.343.167-.083.04,0,0v0l-.259.123c-11.443,5.491-21.864,4.517-30.6-.228-8.293-4.5-15-12.412-19.563-21.372a27.815,27.815,0,0,1-3.043.319,18.285,18.285,0,0,1-4.867-.387,1.976,1.976,0,0,1-.669-.267,55.58,55.58,0,0,1-11.124-8.968,32.632,32.632,0,0,1-8.008-14.236,2,2,0,0,1-.074-.355c-1.672-14.63,1.623-19.93,6.4-27.607l.121-.2h0l.03-.047a12.384,12.384,0,0,1,5.457-4.515c4.052-1.784,9.223-1.842,14.337-.8a40.491,40.491,0,0,1,13.8,5.626Zm-9.391,48.494,0,.012C129.586,188.825,129.577,188.8,129.56,188.769Zm47.464,24.415c.026-.013.034-.018,0,0Zm-50.136-52.146a60.338,60.338,0,0,1,8.63-9.208,19.911,19.911,0,0,0-6.392-4.6,17.817,17.817,0,0,0-8.441-1.994,2,2,0,0,1-.368,0l-.017,0h0a6.772,6.772,0,0,0-4.484,1.552,5.861,5.861,0,0,0-2.393,3.748c.13,1.524,1.418,4.157,3.737,6.459A13.283,13.283,0,0,0,126.888,161.038Z" transform="translate(-59.445 -110.783)" fill="#fefefe"/>
        <path id="_468754416" d="M136.515,153.4a1.978,1.978,0,0,1-2.79,2.806,6.444,6.444,0,0,0-2.654-1.809,1.664,1.664,0,0,0-1.665.58,9.953,9.953,0,0,0-1.915,3.679,42.971,42.971,0,0,0-1.649,14.3,1.981,1.981,0,0,1-3.953.279,47.508,47.508,0,0,1,1.836-15.818,13.646,13.646,0,0,1,2.83-5.183,5.364,5.364,0,0,1,5.494-1.665,10.138,10.138,0,0,1,4.468,2.831Z" transform="translate(-6.147 -73.476)" fill="#fefefe"/>
        <path id="_468754296" d="M144,184.213a1.977,1.977,0,1,1,1.891-3.472c8.071,4.418,16.735,7.5,25.356,8.133a38.812,38.812,0,0,0,21.8-4.515,1.971,1.971,0,0,1,.228-.106,11.606,11.606,0,0,0,4.123-3.41,27.648,27.648,0,0,0,3.8-6.73l-.005,0c.563-1.425.474-5.9-.65-9.859-.664-2.338-1.667-4.379-3.058-5.154-7.8-.618-15.421-4.135-22.53-9.063a118.131,118.131,0,0,1-18.634-16.64,18.973,18.973,0,0,0-9.206,6.279,38.423,38.423,0,0,0-7.5,14.4,1.975,1.975,0,0,1-2.007,1.429v0c-.86-.049-1.576-.074-2.279-.1-5.277-.183-9.973-.348-14.671-5.678a10.453,10.453,0,0,1-2.409-3.022,7.213,7.213,0,0,1-.616-5.1,9.539,9.539,0,0,1,2.177-4.015,13.062,13.062,0,0,1,3.741-2.917,2.048,2.048,0,0,1,.247-.105c2.191-.861,5.925-.9,9.979-.2a40.886,40.886,0,0,1,9.509,2.874,16.448,16.448,0,0,1,.916-1.414,13.832,13.832,0,0,1,.973-1.195c-3.739-2.184-8.9-3.42-13.889-3.728-6.123-.378-11.824.6-14.061,2.892a1.939,1.939,0,0,1-.153.142,18.135,18.135,0,0,0-4.981,9.908,18.67,18.67,0,0,0,1.5,11.065,1.984,1.984,0,1,1-3.612,1.643,22.734,22.734,0,0,1,4.47-25.579c3.091-3.1,9.955-4.463,17.068-4.024,6.416.4,13.172,2.23,17.6,5.552a18.707,18.707,0,0,1,7.56-3.245h0a1.978,1.978,0,0,1,1.79.611,116.424,116.424,0,0,0,18.737,16.9c6.664,4.619,13.747,7.894,20.862,8.389a1.971,1.971,0,0,1,.731.161c2.8,1.2,4.563,4.341,5.561,7.852,1.34,4.718,1.31,10.4.526,12.385l-.006,0-.01.025a31.624,31.624,0,0,1-4.383,7.732,15.454,15.454,0,0,1-5.584,4.529,42.675,42.675,0,0,1-23.929,4.975c-9.224-.68-18.431-3.94-26.968-8.613Zm-7.73-32.726a44.345,44.345,0,0,1,5.1-10.757,37.076,37.076,0,0,0-8.267-2.446c-3.369-.584-6.3-.624-7.816-.041a8.969,8.969,0,0,0-2.508,1.974,5.646,5.646,0,0,0-1.309,2.325,3.356,3.356,0,0,0,.306,2.369,6.616,6.616,0,0,0,1.564,1.907l0,0a2,2,0,0,1,.189.191c3.605,4.156,7.518,4.292,11.919,4.445Z" transform="translate(-37.886 -126.883)" fill="#fefefe"/>
        <path id="_468754776" d="M141.034,136.126a1.978,1.978,0,0,1,1.3,3.736l-.04.014c-3.719,1.3-4.984,5.279-5.09,9.66a41.376,41.376,0,0,0,2.274,13.394h0l.05.143a1.978,1.978,0,1,1-3.735,1.3l-.05-.143h0l0-.007a45.571,45.571,0,0,1-2.494-14.78c.143-5.89,2.06-11.314,7.741-13.3l.04-.014Z" transform="translate(19.851 -106.116)" fill="#fefefe"/>
      </g>
      <path id="Path_6" data-name="Path 6" d="M75.52,221.676a1.687,1.687,0,0,1-.01-.183V111.464a1.736,1.736,0,0,1,1.736-1.736H185.969q.065,0,.13,0l.307,0c.476-.008.746-.016.853-.016A111.748,111.748,0,1,1,75.52,221.676ZM78.983,113.2V221.493h-.005a108.28,108.28,0,1,0,108.282-108.31c-.658,0-.725,0-.8,0l-.316.005a1.735,1.735,0,0,1-.176.009H78.983Z" transform="translate(7.668 7.68)" fill="#373435"/>
      <path id="Path_7" data-name="Path 7" d="M88.182,110.281l11.649,52.66-4.214-.576L84.323,111.132Z" transform="translate(27.706 8.974)" fill="#063"/>
      <path id="Path_8" data-name="Path 8" d="M90.205,110.285l4.865,22.76,6.5,30.4-4.137-.321-11.1-52.019Z" transform="translate(32.271 8.983)" fill="#063" stroke="#063" stroke-width="0.2"/>
      <path id="Path_9" data-name="Path 9" d="M124.053,110.878a17.13,17.13,0,1,1-26.282.03,29.755,29.755,0,0,0,4.547-.3l.675-.12,5.916-.034.762-.058.762.058c1.442.073,3.95.034,5.505.034a3.993,3.993,0,0,1,1.086.12,36.732,36.732,0,0,0,6.017.3q.51-.006,1.012-.028Z" transform="translate(49.244 9.238)" fill="#063" stroke="#373435" stroke-width="0.2" fill-rule="evenodd"/>
    </g>
  </g>
</svg>
