<?xml version="1.0" encoding="UTF-8"?>
<!DOCTYPE svg PUBLIC "-//W3C//DTD SVG 1.1//EN" "http://www.w3.org/Graphics/SVG/1.1/DTD/svg11.dtd">
<!-- Creator: CorelDRAW -->
<svg xmlns="http://www.w3.org/2000/svg" xml:space="preserve" width="64.5mm" height="93mm" style="shape-rendering:geometricPrecision; text-rendering:geometricPrecision; image-rendering:optimizeQuality; fill-rule:evenodd; clip-rule:evenodd"
viewBox="0 0 64.5 93"
 xmlns:xlink="http://www.w3.org/1999/xlink">
 <defs>
  <style type="text/css">
   <![CDATA[
    .str0 {stroke:white;stroke-width:0.2}
    .fil0 {fill:white}
    .fil1 {fill:#373435;fill-rule:nonzero}
    .fil2 {fill:red;fill-rule:nonzero}
   ]]>
  </style>
 </defs>
 <g id="Laag_x0020_1">
  <metadata id="CorelCorpID_0Corel-Layer"/>
  <rect class="fil0 str0" x="-154.103" y="85.3471" width="32.7012" height="59.2905"/>
 </g>
 <g id="Layer_x0020_1">
  <metadata id="CorelCorpID_1Corel-Layer"/>
  <g id="_215776328">
   <rect id="_215777936" class="fil0 str0" x="7.92881" y="1.80936" width="48.8701" height="89.879"/>
   <g>
    <path id="_214196984" class="fil1" d="M24.6049 73.5165l1.4682 0.0163c0,0 0.1901,-0.0152 0.3508,0.1975 0.1562,0.2063 0.1495,0.442 0.1495,0.442l0 8.2588c0,0 0.009,0.2544 -0.0865,0.3872 -0.1041,0.1443 -0.3138,0.168 -0.3138,0.168 0,0 -0.2082,0.0196 -0.3058,0.1305 -0.0942,0.108 -0.0778,0.3069 -0.0778,0.3069l0 8.3402 -6.102 0 0 -8.235c0,0 0.0157,-0.25 -0.0931,-0.3872 -0.1055,-0.1335 -0.3353,-0.1549 -0.3353,-0.1549 0,0 -0.1946,-0.0452 -0.3097,-0.1877 -0.1074,-0.1326 -0.1356,-0.363 -0.1356,-0.363l0 -8.3453c0,0 0.012,-0.282 0.1695,-0.4222 0.1619,-0.1439 0.4692,-0.1453 0.4692,-0.1453l1.5207 0c0,0 0.2274,-0.0023 0.2412,-0.1617 0.0129,-0.1548 -0.1823,-0.1942 -0.1823,-0.1942 0,0 -0.2751,-0.0699 -0.4159,-0.2075 -0.1409,-0.1376 -0.1472,-0.3431 -0.1472,-0.3431l0 -2.7706c0,0 0.0108,-0.2322 0.166,-0.3471 0.1599,-0.118 0.4643,-0.1188 0.4643,-0.1188l3.2267 0c0,0 0.2691,0.0108 0.4015,0.1378 0.1279,0.1228 0.1197,0.362 0.1197,0.362l0 2.8213c0,0 0.0134,0.1272 -0.0748,0.2125 -0.1108,0.107 -0.3286,0.1772 -0.3286,0.1772 0,0 -0.2748,0.0107 -0.2652,0.2285 0.0091,0.2095 0.2735,0.1867 0.2735,0.1867l0.1528 0.0102z"/>
    <path id="_214197368" class="fil1" d="M22.6137 10.7048l1.6422 0c0,0 0.5907,0.0616 1.0525,0.5646 0.3776,0.4114 0.5151,0.9858 0.5151,0.9858l0 1.6407c0,0 -0.0524,0.4631 -0.4861,0.8813 -0.4801,0.4635 -1.0066,0.5186 -1.0066,0.5186l-10.6751 0c0,0 -0.5513,0.0188 -0.9275,0.495 -0.3249,0.4117 -0.3564,1.1307 -0.3564,1.1307l0 47.1435c0,0 0.0597,0.341 0.4161,0.5452 0.3012,0.1728 0.7635,0.2074 0.7635,0.2074l1.4481 0.1206c0,0 0.6333,-0.0011 1.1983,0.5827 0.528,0.545 0.459,1.073 0.459,1.073l0 25.1675 -10.8243 0c0,0 -0.8324,-0.2224 -1.6117,-1.0243 -0.7346,-0.7559 -0.8665,-1.5648 -0.8665,-1.5648l0 -84.2627c0,0 0.0151,-0.9824 0.7694,-1.9852 0.7396,-0.9841 1.4701,-1.1453 1.4701,-1.1453l15.8255 0 0 7.6914c0,0 0.0485,0.4274 0.448,0.813 0.4773,0.4619 0.7464,0.4213 0.7464,0.4213z"/>
    <path id="_214197512" class="fil1" d="M42.3252 20.9763c0,0 0.1375,-1.3219 1.4314,-1.3219 1.3648,0 1.4628,1.3219 1.4628,1.3219 0,0 0.0162,0.4334 -0.1627,0.8272 -0.2074,0.4561 -0.6142,0.8815 -0.6142,0.8815 0,0 -0.4895,0.563 -0.2299,0.8249 0.2784,0.2806 0.728,-0.1782 0.728,-0.1782 0,0 0.4232,-0.4425 0.8556,-0.679 0.3802,-0.2078 0.7761,-0.2133 0.7761,-0.2133 0,0 1.4384,0.055 1.4384,1.478 0,1.4995 -1.4384,1.5228 -1.4384,1.5228 0,0 -0.4302,0.0025 -0.8043,-0.1962 -0.4532,-0.2406 -0.8662,-0.6907 -0.8662,-0.6907 0,0 -0.3834,-0.4213 -0.6793,-0.229 -0.247,0.1602 -0.062,0.7701 -0.062,0.7701 0,0 0.0616,0.4853 0.3493,1.0088 0.3696,0.6721 0.8455,1.4507 0.8455,1.4507 0,0 0.0668,0.1072 0.0028,0.1684 -0.0487,0.0468 -0.1853,0.0213 -0.1853,0.0213 0,0 -0.7432,-0.0806 -1.4219,-0.0806 -0.6574,0 -1.2508,0.0806 -1.2508,0.0806 0,0 -0.2208,0.0409 -0.2825,-0.0387 -0.062,-0.0807 0.0607,-0.2401 0.0607,-0.2401 0,0 0.6049,-0.8829 0.9223,-1.6426 0.2451,-0.5867 0.2217,-1.0956 0.2217,-1.0956 0,0 0.028,-0.326 -0.1198,-0.4033 -0.1753,-0.0922 -0.5038,0.0831 -0.5038,0.0831 0,0 -0.1887,0.1527 -0.4334,0.3683 -0.1697,0.1494 -0.3626,0.3505 -0.5537,0.4632 -0.4293,0.2536 -0.8076,0.2277 -0.8076,0.2277 0,0 -1.4523,0.0164 -1.4523,-1.5465 0,-1.3123 1.4523,-1.4159 1.4523,-1.4159 0,0 0.4009,-0.0384 0.7836,0.1719 0.2273,0.1248 0.4456,0.3707 0.6346,0.5303 0.2438,0.2056 0.4299,0.3131 0.4299,0.3131 0,0 0.3151,0.2299 0.4989,0.0199 0.1915,-0.2182 -0.0674,-0.6001 -0.0674,-0.6001 0,0 -0.1113,-0.1732 -0.2937,-0.4003 -0.1544,-0.1923 -0.3715,-0.4174 -0.4948,-0.6696 -0.2005,-0.41 -0.1699,-0.8921 -0.1699,-0.8921z"/>
    <path id="_214196960" class="fil1" d="M35.8465 28.0153c0,0 0.4228,0.9732 1.2807,1.8843 0.4436,0.4711 1.1004,0.8097 1.5561,1.2559 0.4959,0.4852 0.775,1.0749 0.8144,1.5034 0.0474,0.5161 -0.2489,1.6275 -1.2656,1.7737 -1.2705,0.1823 -1.8724,-0.8363 -1.8724,-0.8363 0,0 0.0158,0.7656 0.3702,1.3876 0.3668,0.6435 1.0727,1.1443 1.0727,1.1443 0,0 0.1253,0.0754 0.0899,0.1597 -0.0266,0.0608 -0.1838,0.0345 -0.1838,0.0345 0,0 -0.8354,-0.2323 -1.721,-0.2323 -0.8799,0 -1.8098,0.2323 -1.8098,0.2323 0,0 -0.1224,0.0478 -0.1756,-0.0389 -0.0522,-0.0848 0.0512,-0.16 0.0512,-0.16 0,0 0.6825,-0.5381 1.078,-1.2022 0.3637,-0.6106 0.4433,-1.3516 0.4433,-1.3516 0,0 -0.1488,0.1189 -0.3022,0.2782 -0.3825,0.3985 -0.8204,0.7258 -1.5479,0.6225 -1.1769,-0.1675 -1.374,-1.2455 -1.3445,-1.8521 0.0209,-0.4251 0.2563,-0.9826 0.7525,-1.4719 0.4262,-0.4202 1.0852,-0.7647 1.5021,-1.2242 0.8047,-0.8865 1.2117,-1.9069 1.2117,-1.9069z"/>
    <path id="_214197296" class="fil2" d="M43.8959 28.1708c0,0 0.6177,1.2509 1.5262,2.1858 0.9584,0.9862 2.2109,1.6594 2.2109,1.6594l0.137 0.0776c0,0 0.0976,0.078 0.0976,0.1366 0,0.0662 -0.0976,0.1138 -0.0976,0.1138 0,0 -1.2573,0.644 -2.2104,1.5788 -1.0083,0.9897 -1.7159,2.2737 -1.7159,2.2737 0,0 -0.0676,0.1216 -0.1357,0.1216 -0.0676,0 -0.1352,-0.1216 -0.1352,-0.1216 0,0 -0.6283,-1.2299 -1.6164,-2.1849 -1.0159,-0.9822 -2.3925,-1.6903 -2.3925,-1.6903 0,0 -0.0757,-0.0431 -0.0757,-0.0834 0,-0.0354 0.0757,-0.0683 0.0757,-0.0683 0,0 1.351,-0.6753 2.4185,-1.7476 0.9273,-0.9312 1.5904,-2.2792 1.5904,-2.2792 0,0 0.0777,-0.1223 0.1567,-0.1157 0.0822,0.0072 0.1664,0.1437 0.1664,0.1437z"/>
    <path id="_214197104" class="fil2" d="M35.6045 21.0371c0,0 0.1164,0.4288 0.3433,0.4288 0.2496,0 0.3263,-0.4288 0.3263,-0.4288 0,0 0.227,-1.2538 1.6301,-1.2538 1.3229,0 1.5479,1.2538 1.5479,1.2538 0,0 0.1935,0.8061 -0.2113,1.5587 -0.1971,0.3663 -0.4061,0.7625 -0.7238,1.1374 -0.4575,0.5397 -1.0553,1.0643 -1.4488,1.6345 -0.7441,1.0767 -1.1083,2.1624 -1.1083,2.1624 0,0 -0.3889,-1.0736 -1.1289,-2.1402 -0.3937,-0.5674 -0.9559,-1.0769 -1.4066,-1.615 -0.2567,-0.3065 -0.4504,-0.6402 -0.6234,-0.9543 -0.5432,-0.9849 -0.3866,-1.7188 -0.3866,-1.7188 0,0 0.3042,-1.2982 1.5486,-1.2982 1.3812,-0.0003 1.6415,1.2335 1.6415,1.2335z"/>
    <path id="_214197248" class="fil1" d="M34.317 73.5165l1.4682 0.0163c0,0 0.19,-0.0152 0.3507,0.1975 0.1562,0.2063 0.1496,0.442 0.1496,0.442l0 8.2588c0,0 0.0089,0.2544 -0.0868,0.3872 -0.1039,0.1443 -0.3137,0.168 -0.3137,0.168 0,0 -0.208,0.0196 -0.3056,0.1305 -0.0942,0.108 -0.078,0.3069 -0.078,0.3069l0 8.3402 -6.1019 0 0 -8.235c0,0 0.0156,-0.25 -0.093,-0.3872 -0.1056,-0.1335 -0.3355,-0.1549 -0.3355,-0.1549 0,0 -0.1946,-0.0452 -0.3096,-0.1877 -0.1074,-0.1326 -0.1356,-0.363 -0.1356,-0.363l0 -8.3453c0,0 0.012,-0.282 0.1695,-0.4222 0.1619,-0.1439 0.4691,-0.1453 0.4691,-0.1453l1.5208 0c0,0 0.2273,-0.0023 0.241,-0.1617 0.013,-0.1548 -0.1821,-0.1942 -0.1821,-0.1942 0,0 -0.2751,-0.0699 -0.4159,-0.2075 -0.1409,-0.1376 -0.1472,-0.3431 -0.1472,-0.3431l0 -2.7706c0,0 0.0107,-0.2322 0.1661,-0.3471 0.1597,-0.118 0.4641,-0.1188 0.4641,-0.1188l3.2269 0c0,0 0.2691,0.0108 0.4013,0.1378 0.1281,0.1228 0.1199,0.362 0.1199,0.362l0 2.8213c0,0 0.0134,0.1272 -0.0748,0.2125 -0.1108,0.107 -0.3285,0.1772 -0.3285,0.1772 0,0 -0.2749,0.0107 -0.2656,0.2285 0.0092,0.2095 0.2738,0.1867 0.2738,0.1867l0.1528 0.0102z"/>
    <path id="_214197056" class="fil1" d="M44.0391 73.5165l1.4683 0.0163c0,0 0.1902,-0.0152 0.3508,0.1975 0.1561,0.2063 0.1495,0.442 0.1495,0.442l0 8.2588c0,0 0.0089,0.2544 -0.0867,0.3872 -0.1039,0.1443 -0.3136,0.168 -0.3136,0.168 0,0 -0.2082,0.0196 -0.3058,0.1305 -0.0942,0.108 -0.0778,0.3069 -0.0778,0.3069l0 8.3402 -6.1021 0 0 -8.235c0,0 0.0158,-0.25 -0.0929,-0.3872 -0.1057,-0.1335 -0.3354,-0.1549 -0.3354,-0.1549 0,0 -0.1947,-0.0452 -0.3097,-0.1877 -0.1076,-0.1326 -0.1356,-0.363 -0.1356,-0.363l0 -8.3453c0,0 0.012,-0.282 0.1695,-0.4222 0.1618,-0.1439 0.469,-0.1453 0.469,-0.1453l1.5207 0c0,0 0.2276,-0.0023 0.2413,-0.1617 0.0129,-0.1548 -0.1821,-0.1942 -0.1821,-0.1942 0,0 -0.2752,-0.0699 -0.4162,-0.2075 -0.1407,-0.1376 -0.1469,-0.3431 -0.1469,-0.3431l0 -2.7706c0,0 0.0105,-0.2322 0.166,-0.3471 0.1596,-0.118 0.4642,-0.1188 0.4642,-0.1188l3.2267 0c0,0 0.2692,0.0108 0.4013,0.1378 0.1282,0.1228 0.1199,0.362 0.1199,0.362l0 2.8213c0,0 0.0134,0.1272 -0.0748,0.2125 -0.1107,0.107 -0.3286,0.1772 -0.3286,0.1772 0,0 -0.2748,0.0107 -0.2653,0.2285 0.0091,0.2095 0.2737,0.1867 0.2737,0.1867l0.1526 0.0102z"/>
    <path id="_214196888" class="fil1" d="M42.3286 10.705l-1.6424 0c0,0 -0.5906,0.0616 -1.0523,0.5646 -0.3776,0.4114 -0.5152,0.9858 -0.5152,0.9858l0 1.6407c0,0 0.0525,0.463 0.486,0.8813 0.4802,0.4636 1.0068,0.5186 1.0068,0.5186l10.675 0c0,0 0.5512,0.0187 0.9276,0.495 0.3248,0.4117 0.3562,1.1307 0.3562,1.1307l0 47.1436c0,0 -0.0597,0.3407 -0.4161,0.5451 -0.3012,0.1729 -0.7633,0.2074 -0.7633,0.2074l-1.4482 0.1204c0,0 -0.6331,-0.0009 -1.1983,0.5829 -0.528,0.5452 -0.4589,1.0732 -0.4589,1.0732l0 25.1671 10.8242 0c0,0 0.8323,-0.2222 1.6119,-1.0239 0.7343,-0.756 0.8663,-1.5652 0.8663,-1.5652l0 -84.2625c0,0 -0.0152,-0.9824 -0.7695,-1.9853 -0.7396,-0.984 -1.4701,-1.1453 -1.4701,-1.1453l-15.8255 0 0 7.6914c0,0 -0.0485,0.4274 -0.4478,0.8131 -0.4775,0.4619 -0.7464,0.4213 -0.7464,0.4213z"/>
    <polygon id="_214197176" class="fil1" points="15.2957,51.8039 18.3427,51.8039 18.3427,52.6143 17.3197,52.6143 17.3197,55.0749 16.3187,55.0749 16.3187,52.6143 15.2957,52.6143 "/>
    <path id="_214196696" class="fil1" d="M20.7969 51.8039l1.001 0 0 1.9507c0,0.1934 -0.0299,0.3761 -0.0895,0.5479 -0.0597,0.1719 -0.1533,0.3221 -0.2807,0.4508 -0.1274,0.1287 -0.2611,0.2192 -0.4011,0.2712 -0.1945,0.0729 -0.4282,0.1093 -0.7007,0.1093 -0.1577,0 -0.3298,-0.0112 -0.5162,-0.0335 -0.1864,-0.0223 -0.3422,-0.0665 -0.4675,-0.1327 -0.1252,-0.0662 -0.2397,-0.1603 -0.3436,-0.2824 -0.1039,-0.122 -0.175,-0.2477 -0.2133,-0.3772 -0.0619,-0.2082 -0.0928,-0.3927 -0.0928,-0.5534l0 -1.9507 1.001 0 0 1.9952c0,0.1785 0.0488,0.3177 0.1464,0.4181 0.0976,0.1004 0.2331,0.1505 0.4064,0.1505 0.1718,0 0.3065,-0.0494 0.4041,-0.1483 0.0976,-0.0988 0.1465,-0.2389 0.1465,-0.4203l0 -1.9952z"/>
    <path id="_214196024" class="fil1" d="M23.3731 52.467l0.4402 0c0.1827,0 0.3073,0.0282 0.3737,0.0846 0.0663,0.0564 0.0995,0.1372 0.0995,0.2424 0,0.0712 -0.021,0.1343 -0.063,0.1891 -0.042,0.0549 -0.0962,0.089 -0.1626,0.1023 -0.1313,0.0297 -0.2196,0.0446 -0.2653,0.0446l-0.4225 0 0 -0.663zm0 2.6079l0 -1.3261 0.0886 0c0.0916,0 0.1736,0.0253 0.246,0.0758 0.0531,0.0387 0.1136,0.1227 0.1816,0.2518l0.5362 0.9985 1.1324 0 -0.4903 -0.944c-0.0236,-0.0479 -0.0703,-0.116 -0.1399,-0.2042 -0.0697,-0.0882 -0.123,-0.1459 -0.1597,-0.1728 -0.0544,-0.0404 -0.1409,-0.0808 -0.2599,-0.1212 0.1496,-0.0342 0.2674,-0.0774 0.3534,-0.1295 0.1348,-0.0819 0.2408,-0.1887 0.3178,-0.3204 0.077,-0.1316 0.1156,-0.2884 0.1156,-0.4701 0,-0.2083 -0.0503,-0.3851 -0.1506,-0.5303 -0.1005,-0.145 -0.2326,-0.2444 -0.3965,-0.298 -0.164,-0.0536 -0.4009,-0.0805 -0.7109,-0.0805l-1.6721 0 0 3.271 1.0083 0z"/>
    <polygon id="_214196456" class="fil1" points="25.7726,51.8039 26.7086,51.8039 27.9282,53.6127 27.9282,51.8039 28.8708,51.8039 28.8708,55.0749 27.9282,55.0749 26.7152,53.2758 26.7152,55.0749 25.7726,55.0749 "/>
    <polygon id="_214196480" class="fil1" points="29.4376,51.8039 30.4387,51.8039 30.4387,52.9458 31.5274,52.9458 31.5274,51.8039 32.5358,51.8039 32.5358,55.0749 31.5274,55.0749 31.5274,53.7488 30.4387,53.7488 30.4387,55.0749 29.4376,55.0749 "/>
    <path id="_214196288" class="fil1" d="M34.1563 52.7279c0.1227,-0.1445 0.2852,-0.2168 0.4878,-0.2168 0.2113,0 0.3787,0.0712 0.5021,0.2135 0.1234,0.1423 0.1852,0.3676 0.1852,0.676 0,0.3665 -0.0592,0.6206 -0.1774,0.7622 -0.1183,0.1415 -0.2852,0.2122 -0.501,0.2122 -0.21,0 -0.3759,-0.0722 -0.4978,-0.2167 -0.1219,-0.1445 -0.1829,-0.3822 -0.1829,-0.713 0,-0.3337 0.0613,-0.5728 0.184,-0.7174zm-0.9616 1.6705c0.1489,0.2548 0.3433,0.4412 0.583,0.5589 0.2398,0.1176 0.5426,0.1765 0.9084,0.1765 0.3599,0 0.6605,-0.0681 0.9017,-0.2045 0.2411,-0.1363 0.4255,-0.3271 0.5532,-0.5722 0.1276,-0.2452 0.1914,-0.5592 0.1914,-0.9423 0,-0.5275 -0.1461,-0.9377 -0.4382,-1.2306 -0.292,-0.2928 -0.708,-0.4392 -1.2478,-0.4392 -0.5268,0 -0.9376,0.149 -1.2326,0.4471 -0.295,0.2981 -0.4426,0.7146 -0.4426,1.2495 0,0.3831 0.0745,0.702 0.2235,0.9568z"/>
    <path id="_214196048" class="fil1" d="M38.8722 51.8039l1.001 0 0 1.9507c0,0.1934 -0.0299,0.3761 -0.0895,0.5479 -0.0597,0.1719 -0.1533,0.3221 -0.2807,0.4508 -0.1274,0.1287 -0.2611,0.2192 -0.4011,0.2712 -0.1945,0.0729 -0.4281,0.1093 -0.7007,0.1093 -0.1578,0 -0.3298,-0.0112 -0.5162,-0.0335 -0.1864,-0.0223 -0.3422,-0.0665 -0.4675,-0.1327 -0.1252,-0.0662 -0.2397,-0.1603 -0.3436,-0.2824 -0.1039,-0.122 -0.1751,-0.2477 -0.2133,-0.3772 -0.0619,-0.2082 -0.0928,-0.3927 -0.0928,-0.5534l0 -1.9507 1.001 0 0 1.9952c0,0.1785 0.0488,0.3177 0.1464,0.4181 0.0976,0.1004 0.2331,0.1505 0.4064,0.1505 0.1718,0 0.3065,-0.0494 0.4041,-0.1483 0.0976,-0.0988 0.1465,-0.2389 0.1465,-0.4203l0 -1.9952z"/>
    <polygon id="_214196648" class="fil1" points="40.1991,51.8039 43.2461,51.8039 43.2461,52.6143 42.2231,52.6143 42.2231,55.0749 41.222,55.0749 41.222,52.6143 40.1991,52.6143 "/>
    <path id="_214196552" class="fil1" d="M43.4131 53.9937l0.9499 -0.0607c0.0208,0.1575 0.0632,0.2773 0.1271,0.3597 0.1039,0.1336 0.2525,0.2002 0.4457,0.2002 0.1441,0 0.2551,-0.0339 0.3332,-0.1018 0.0779,-0.0678 0.117,-0.1464 0.117,-0.236 0,-0.0849 -0.0371,-0.161 -0.1113,-0.2282 -0.0743,-0.067 -0.2457,-0.1304 -0.514,-0.1902 -0.4396,-0.0999 -0.753,-0.2326 -0.9402,-0.3983 -0.1889,-0.1655 -0.2832,-0.3766 -0.2832,-0.6333 0,-0.1685 0.0482,-0.3278 0.1447,-0.4778 0.0964,-0.1499 0.2416,-0.2678 0.4352,-0.3536 0.1936,-0.0858 0.4592,-0.1287 0.7966,-0.1287 0.4138,0 0.7294,0.0778 0.9467,0.2333 0.2171,0.1556 0.3464,0.4031 0.3877,0.7425l-0.9426 0.0556c-0.025,-0.1467 -0.0775,-0.2533 -0.1577,-0.3199 -0.0801,-0.0667 -0.1909,-0.1001 -0.332,-0.1001 -0.1162,0 -0.2037,0.025 -0.2624,0.075 -0.0588,0.0499 -0.0882,0.1107 -0.0882,0.1823 0,0.0523 0.0241,0.0993 0.0725,0.1409 0.0468,0.0433 0.1587,0.0836 0.3357,0.1209 0.4379,0.0955 0.7517,0.192 0.9412,0.2895 0.1895,0.0976 0.3273,0.2186 0.4136,0.3629 0.0864,0.1445 0.1295,0.3061 0.1295,0.4847 0,0.21 -0.0577,0.4035 -0.1727,0.5807 -0.1151,0.1772 -0.276,0.3116 -0.4826,0.4032 -0.2067,0.0915 -0.4672,0.1373 -0.7817,0.1373 -0.5521,0 -0.9343,-0.1072 -1.1469,-0.3218 -0.2126,-0.2146 -0.3328,-0.4874 -0.3608,-0.8183z"/>
    <polygon id="_214196216" class="fil1" points="46.7513,51.8039 49.4403,51.8039 49.4403,52.5038 47.7524,52.5038 47.7524,53.0195 49.3234,53.0195 49.3234,53.6899 47.7524,53.6899 47.7524,54.3308 49.4914,54.3308 49.4914,55.0749 46.7513,55.0749 "/>
    <path id="_214196768" class="fil1" d="M16.5452 57.9775l0.4401 0c0.1828,0 0.3074,0.0282 0.3737,0.0846 0.0663,0.0564 0.0996,0.1372 0.0996,0.2424 0,0.0713 -0.021,0.1344 -0.0631,0.1892 -0.042,0.0549 -0.0962,0.0889 -0.1625,0.1023 -0.1313,0.0297 -0.2197,0.0445 -0.2654,0.0445l-0.4224 0 0 -0.663zm0 2.6079l0 -1.326 0.0886 0c0.0916,0 0.1735,0.0253 0.2459,0.0757 0.0531,0.0387 0.1136,0.1227 0.1817,0.2519l0.5361 0.9984 1.1325 0 -0.4904 -0.944c-0.0235,-0.0479 -0.0702,-0.1159 -0.1399,-0.2042 -0.0697,-0.0881 -0.1229,-0.1458 -0.1597,-0.1728 -0.0543,-0.0404 -0.1409,-0.0808 -0.2598,-0.1212 0.1495,-0.0342 0.2674,-0.0773 0.3533,-0.1295 0.1349,-0.0818 0.2408,-0.1886 0.3179,-0.3203 0.0769,-0.1317 0.1155,-0.2885 0.1155,-0.4701 0,-0.2084 -0.0502,-0.3852 -0.1506,-0.5303 -0.1004,-0.1451 -0.2325,-0.2444 -0.3965,-0.2981 -0.1639,-0.0536 -0.4008,-0.0804 -0.7108,-0.0804l-1.6722 0 0 3.2709 1.0084 0z"/>
    <polygon id="_214195496" class="fil1" points="18.9373,57.3145 21.6263,57.3145 21.6263,58.0143 19.9384,58.0143 19.9384,58.53 21.5094,58.53 21.5094,59.2004 19.9384,59.2004 19.9384,59.8414 21.6774,59.8414 21.6774,60.5854 18.9373,60.5854 "/>
    <path id="_214195808" class="fil1" d="M24.212 57.3145l1.001 0 0 1.9506c0,0.1934 -0.0299,0.3761 -0.0895,0.548 -0.0597,0.1718 -0.1533,0.322 -0.2808,0.4507 -0.1273,0.1287 -0.2611,0.2192 -0.401,0.2712 -0.1946,0.0729 -0.4282,0.1094 -0.7007,0.1094 -0.1578,0 -0.3298,-0.0112 -0.5162,-0.0335 -0.1864,-0.0224 -0.3423,-0.0666 -0.4675,-0.1327 -0.1252,-0.0662 -0.2397,-0.1604 -0.3436,-0.2824 -0.104,-0.122 -0.1751,-0.2477 -0.2133,-0.3772 -0.0619,-0.2083 -0.0928,-0.3928 -0.0928,-0.5535l0 -1.9506 1.001 0 0 1.9952c0,0.1784 0.0488,0.3177 0.1464,0.4181 0.0976,0.1003 0.2331,0.1504 0.4064,0.1504 0.1717,0 0.3064,-0.0494 0.4041,-0.1483 0.0976,-0.0987 0.1465,-0.2388 0.1465,-0.4202l0 -1.9952z"/>
    <polygon id="_214195400" class="fil1" points="25.6849,57.3145 28.5273,57.3145 28.5273,57.9697 26.7005,59.8856 28.5931,59.8856 28.5931,60.5854 25.5096,60.5854 25.5096,59.91 27.3171,58.0143 25.6849,58.0143 "/>
    <polygon id="_214195376" class="fil1" points="28.9282,57.3145 31.6172,57.3145 31.6172,58.0143 29.9293,58.0143 29.9293,58.53 31.5003,58.53 31.5003,59.2004 29.9293,59.2004 29.9293,59.8414 31.6683,59.8414 31.6683,60.5854 28.9282,60.5854 "/>
    <polygon id="_214195760" class="fil1" points="32.0985,57.3145 33.0344,57.3145 34.2539,59.1232 34.2539,57.3145 35.1965,57.3145 35.1965,60.5854 34.2539,60.5854 33.041,58.7864 33.041,60.5854 32.0985,60.5854 "/>
    <path id="_214195880" class="fil1" d="M37.9191 59.252l0.8768 0.2667c-0.0591,0.2482 -0.1521,0.4555 -0.2789,0.6219 -0.127,0.1665 -0.2844,0.292 -0.4726,0.3767 -0.1881,0.0847 -0.4277,0.1271 -0.7183,0.1271 -0.3528,0 -0.641,-0.0518 -0.8645,-0.1553 -0.2236,-0.1035 -0.4165,-0.2856 -0.5789,-0.5462 -0.1623,-0.2606 -0.2434,-0.5942 -0.2434,-1.0008 0,-0.542 0.1428,-0.9586 0.4286,-1.2498 0.2856,-0.2911 0.69,-0.4368 1.2126,-0.4368 0.409,0 0.7305,0.0835 0.9646,0.2502 0.234,0.1666 0.4079,0.4228 0.5216,0.7681l-0.8842 0.1973c-0.0311,-0.099 -0.0638,-0.1715 -0.0979,-0.2173 -0.0564,-0.0768 -0.1255,-0.1359 -0.2071,-0.1773 -0.0817,-0.0414 -0.1729,-0.0622 -0.2738,-0.0622 -0.2286,0 -0.4036,0.0924 -0.5253,0.2769 -0.092,0.137 -0.138,0.3521 -0.138,0.6454 0,0.3633 0.0547,0.6123 0.1645,0.7469 0.1097,0.1347 0.2639,0.2021 0.4626,0.2021 0.1927,0 0.3383,-0.0541 0.4369,-0.1623 0.0987,-0.1082 0.1701,-0.2653 0.2147,-0.4713z"/>
    <polygon id="_214195736" class="fil1" points="39.1713,57.3145 40.1724,57.3145 40.1724,59.7824 41.7434,59.7824 41.7434,60.5854 39.1713,60.5854 "/>
    <path id="_214195928" class="fil1" d="M44.0787 57.3145l1.0011 0 0 1.9506c0,0.1934 -0.0299,0.3761 -0.0895,0.548 -0.0597,0.1718 -0.1534,0.322 -0.2808,0.4507 -0.1274,0.1287 -0.2611,0.2192 -0.401,0.2712 -0.1946,0.0729 -0.4282,0.1094 -0.7007,0.1094 -0.1578,0 -0.3299,-0.0112 -0.5162,-0.0335 -0.1864,-0.0224 -0.3423,-0.0666 -0.4675,-0.1327 -0.1253,-0.0662 -0.2398,-0.1604 -0.3437,-0.2824 -0.1039,-0.122 -0.175,-0.2477 -0.2133,-0.3772 -0.0618,-0.2083 -0.0928,-0.3928 -0.0928,-0.5535l0 -1.9506 1.0011 0 0 1.9952c0,0.1784 0.0487,0.3177 0.1463,0.4181 0.0977,0.1003 0.2332,0.1504 0.4065,0.1504 0.1717,0 0.3064,-0.0494 0.404,-0.1483 0.0977,-0.0987 0.1465,-0.2388 0.1465,-0.4202l0 -1.9952z"/>
    <path id="_214195904" class="fil1" d="M46.6477 57.9775l0.443 0c0.1521,0 0.2587,0.0271 0.32,0.0812 0.0612,0.054 0.0919,0.1291 0.0919,0.2251 0,0.1037 -0.0307,0.1829 -0.0919,0.2377 -0.0613,0.0548 -0.1702,0.0822 -0.3266,0.0822l-0.4364 0 0 -0.6262zm-1.0084 2.6079l1.7291 0c0.0736,0 0.2232,-0.0148 0.4487,-0.0445 0.1695,-0.0222 0.2963,-0.0578 0.3804,-0.1067 0.1355,-0.0787 0.2423,-0.1855 0.3204,-0.3205 0.0781,-0.1349 0.1173,-0.2869 0.1173,-0.456 0,-0.2077 -0.0552,-0.3801 -0.1652,-0.5173 -0.1101,-0.1373 -0.2819,-0.2341 -0.5153,-0.2905 0.1529,-0.0536 0.269,-0.1268 0.3485,-0.2194 0.1189,-0.1387 0.1785,-0.305 0.1785,-0.4991 0,-0.2313 -0.0835,-0.4252 -0.2507,-0.5819 -0.1671,-0.1566 -0.4067,-0.235 -0.7188,-0.235l-1.8729 0 0 3.2709zm1.0084 -1.3629l0.511 0c0.1762,0 0.2995,0.0295 0.3698,0.0882 0.0703,0.0588 0.1056,0.1367 0.1056,0.2334 0,0.1041 -0.0356,0.1871 -0.1066,0.2488 -0.0711,0.0618 -0.1933,0.0927 -0.3666,0.0927l-0.5132 0 0 -0.6631z"/>
   </g>
  </g>
 </g>
</svg>
