<?xml version="1.0" encoding="UTF-8"?>
<!DOCTYPE svg PUBLIC "-//W3C//DTD SVG 1.1//EN" "http://www.w3.org/Graphics/SVG/1.1/DTD/svg11.dtd">
<!-- Creator: CorelDRAW -->
<svg xmlns="http://www.w3.org/2000/svg" xml:space="preserve" width="75mm" height="27mm" style="shape-rendering:geometricPrecision; text-rendering:geometricPrecision; image-rendering:optimizeQuality; fill-rule:evenodd; clip-rule:evenodd"
viewBox="0 0 75 27"
 xmlns:xlink="http://www.w3.org/1999/xlink">
 <defs>
  <style type="text/css">
   <![CDATA[
    .str0 {stroke:#606062;stroke-width:1.5}
    .fil2 {fill:none}
    .fil1 {fill:#727376;fill-rule:nonzero}
    .fil0 {fill:#FEFEFE;fill-rule:nonzero}
   ]]>
  </style>
 </defs>
 <g id="Laag_x0020_1">
  <metadata id="CorelCorpID_0Corel-Layer"/>
  <path class="fil0 str0" d="M71.7219 5.8791c0,3.4757 0,6.9514 0,10.4271 0,1.9191 -2.3624,3.4758 -5.2748,3.4758 -2.9024,0 -5.8046,0 -8.707,0 0.038,1.8568 0.0759,3.7135 0.1139,5.5703 -5.2811,-1.8568 -10.5622,-3.7135 -15.8433,-5.5703 -11.6409,0 -23.2818,0 -34.9227,0 -2.9124,0 -5.2748,-1.5567 -5.2748,-3.4758 0,-3.4757 0,-6.9514 0,-10.4271 0,-1.9191 2.3624,-3.4758 5.2748,-3.4758 19.7864,0 39.5727,0 59.3591,0 2.9124,0 5.2748,1.5567 5.2748,3.4758z"/>
  <g id="_44805744">
   <path id="_44805984" class="fil1" d="M5.6552 9.0677l0.9864 -1.7577 0.3679 0 0.3815 1.7577 -0.351 0 -0.0799 -0.3704 -0.7219 0 -0.2052 0.3704 -0.3778 0zm1.2385 -0.6975l-0.1339 -0.628 -0.3428 0.628 0.4767 0zm0.5266 0.6975l0.3416 -1.7577 0.309 0 -0.3416 1.7577 -0.309 0zm0.6082 -0.4371l0.3139 0 0 0.0074c0,0.0576 0.0136,0.1026 0.0404,0.1343 0.0272,0.0317 0.0647,0.0478 0.1129,0.0478 0.0379,0 0.0692,-0.012 0.0939,-0.0355 0.0244,-0.0239 0.0367,-0.0539 0.0367,-0.0902 0,-0.0297 -0.0095,-0.0568 -0.0288,-0.0812 -0.0194,-0.0247 -0.0528,-0.0519 -0.0993,-0.0815 -0.0252,-0.0169 -0.0594,-0.0388 -0.1026,-0.0651 -0.0795,-0.0499 -0.1282,-0.0845 -0.145,-0.1039 -0.033,-0.037 -0.0569,-0.0745 -0.0717,-0.1124 -0.0149,-0.0375 -0.0223,-0.0783 -0.0223,-0.1216 0,-0.1186 0.0433,-0.2175 0.1294,-0.2979 0.0861,-0.0799 0.1936,-0.1199 0.3234,-0.1199 0.1232,0 0.2233,0.0367 0.3,0.11 0.077,0.073 0.1153,0.169 0.1153,0.2872l0 0.0206 -0.3139 -0.0012c-0.0017,-0.0491 -0.0124,-0.0865 -0.0322,-0.1121 -0.0197,-0.0251 -0.0478,-0.0379 -0.084,-0.0379 -0.033,0 -0.061,0.0107 -0.0845,0.0321 -0.0235,0.0211 -0.035,0.047 -0.035,0.0767 0,0.0465 0.0519,0.1017 0.1562,0.1656 0.0169,0.0103 0.0304,0.0185 0.0407,0.0251 0.1047,0.0651 0.178,0.1265 0.2192,0.1834 0.0417,0.0573 0.0623,0.1228 0.0623,0.1969 0,0.1273 -0.0437,0.2332 -0.1315,0.3181 -0.0877,0.0849 -0.1982,0.1273 -0.3308,0.1273 -0.1442,0 -0.258,-0.0379 -0.3408,-0.1141 -0.0828,-0.0762 -0.1244,-0.1801 -0.1244,-0.3123 0,-0.0037 0.0004,-0.0111 0.0012,-0.0214 0.0009,-0.0108 0.0013,-0.0186 0.0013,-0.0243zm1.8071 0l0.3139 0 0 0.0074c0,0.0576 0.0136,0.1026 0.0404,0.1343 0.0272,0.0317 0.0647,0.0478 0.1129,0.0478 0.0379,0 0.0692,-0.012 0.0939,-0.0355 0.0244,-0.0239 0.0367,-0.0539 0.0367,-0.0902 0,-0.0297 -0.0095,-0.0568 -0.0288,-0.0812 -0.0194,-0.0247 -0.0528,-0.0519 -0.0993,-0.0815 -0.0252,-0.0169 -0.0594,-0.0388 -0.1026,-0.0651 -0.0795,-0.0499 -0.1282,-0.0845 -0.145,-0.1039 -0.033,-0.037 -0.0569,-0.0745 -0.0717,-0.1124 -0.0149,-0.0375 -0.0223,-0.0783 -0.0223,-0.1216 0,-0.1186 0.0433,-0.2175 0.1294,-0.2979 0.0861,-0.0799 0.1936,-0.1199 0.3234,-0.1199 0.1232,0 0.2233,0.0367 0.3,0.11 0.077,0.073 0.1153,0.169 0.1153,0.2872l0 0.0206 -0.3139 -0.0012c-0.0017,-0.0491 -0.0124,-0.0865 -0.0322,-0.1121 -0.0197,-0.0251 -0.0478,-0.0379 -0.084,-0.0379 -0.033,0 -0.061,0.0107 -0.0845,0.0321 -0.0235,0.0211 -0.035,0.047 -0.035,0.0767 0,0.0465 0.0519,0.1017 0.1562,0.1656 0.0169,0.0103 0.0304,0.0185 0.0407,0.0251 0.1047,0.0651 0.178,0.1265 0.2192,0.1834 0.0417,0.0573 0.0623,0.1228 0.0623,0.1969 0,0.1273 -0.0437,0.2332 -0.1315,0.3181 -0.0877,0.0849 -0.1982,0.1273 -0.3308,0.1273 -0.1442,0 -0.258,-0.0379 -0.3408,-0.1141 -0.0828,-0.0762 -0.1244,-0.1801 -0.1244,-0.3123 0,-0.0037 0.0004,-0.0111 0.0012,-0.0214 0.0009,-0.0108 0.0013,-0.0186 0.0013,-0.0243zm1.1495 0.4371l0.2027 -1.0502 -0.1784 0 0.054 -0.2777 0.1788 0 0.0807 -0.4149 0.3202 0 -0.08 0.4149 0.1908 0 -0.0519 0.2777 -0.1932 0 -0.2052 1.0502 -0.3185 0zm1.7407 0l0.0169 -0.0919c-0.0457,0.0429 -0.0968,0.0746 -0.1533,0.0956 -0.0564,0.021 -0.119,0.0313 -0.1883,0.0313 -0.1833,0 -0.3324,-0.0601 -0.4466,-0.1804 -0.1141,-0.1204 -0.1714,-0.2777 -0.1714,-0.4726 0,-0.082 0.0124,-0.1607 0.0367,-0.2353 0.0247,-0.075 0.0618,-0.1475 0.1116,-0.2175 0.0668,-0.0923 0.1492,-0.1632 0.2468,-0.2122 0.0981,-0.049 0.2052,-0.0738 0.3218,-0.0738 0.0886,0 0.1702,0.0169 0.2452,0.0507 0.0746,0.0338 0.1409,0.0836 0.1978,0.1496l0.0325 -0.1714 0.3164 0 -0.2645 1.3279 -0.3016 0zm-0.2126 -1.0778c-0.1149,0 -0.2142,0.0445 -0.2979,0.1335 -0.0836,0.089 -0.1256,0.1961 -0.1256,0.3213 0,0.1105 0.0321,0.1994 0.096,0.267 0.0638,0.0676 0.1483,0.1014 0.2529,0.1014 0.1166,0 0.2155,-0.0445 0.2963,-0.1335 0.0807,-0.089 0.1211,-0.1986 0.1211,-0.3288 0,-0.1055 -0.0321,-0.192 -0.0968,-0.2596 -0.0651,-0.0676 -0.1467,-0.1013 -0.246,-0.1013zm1.8046 1.0778l0.0169 -0.0919c-0.0457,0.0429 -0.0968,0.0746 -0.1533,0.0956 -0.0564,0.021 -0.119,0.0313 -0.1883,0.0313 -0.1833,0 -0.3324,-0.0601 -0.4466,-0.1804 -0.1141,-0.1204 -0.1714,-0.2777 -0.1714,-0.4726 0,-0.082 0.0124,-0.1607 0.0367,-0.2353 0.0247,-0.075 0.0618,-0.1475 0.1116,-0.2175 0.0668,-0.0923 0.1492,-0.1632 0.2473,-0.2122 0.0976,-0.049 0.2047,-0.0738 0.3213,-0.0738 0.0886,0 0.1702,0.0169 0.2452,0.0507 0.075,0.0338 0.1409,0.0836 0.1982,0.1496l0.1133 -0.6012 0.3115 0 -0.3379 1.7577 -0.3045 0zm-0.2126 -1.0778c-0.1149,0 -0.2142,0.0445 -0.2979,0.1335 -0.0836,0.089 -0.1256,0.1961 -0.1256,0.3213 0,0.1105 0.0321,0.1994 0.096,0.267 0.0638,0.0676 0.1483,0.1014 0.2529,0.1014 0.1166,0 0.2155,-0.0445 0.2963,-0.1335 0.0807,-0.089 0.1215,-0.1986 0.1215,-0.3288 0,-0.1055 -0.0325,-0.192 -0.0972,-0.2596 -0.0647,-0.0676 -0.1467,-0.1013 -0.246,-0.1013zm1.5076 1.0778l0.3415 -1.7577 0.309 0 -0.1038 0.5241c0.0474,-0.0387 0.0973,-0.0675 0.1492,-0.0869 0.0519,-0.0194 0.1067,-0.0289 0.1648,-0.0289 0.1553,0 0.2731,0.0367 0.3535,0.1101 0.0803,0.0729 0.1207,0.1804 0.1207,0.3222 0,0.0263 -0.0037,0.0671 -0.0115,0.1223 -0.0074,0.0552 -0.0186,0.1191 -0.033,0.1912l-0.1162 0.6036 -0.3185 0 0.1352 -0.7013c0.0057,-0.0271 0.0099,-0.0548 0.0132,-0.0819 0.0033,-0.0276 0.0049,-0.054 0.0049,-0.08 0,-0.0696 -0.0177,-0.1232 -0.0531,-0.1598 -0.0355,-0.0367 -0.087,-0.0548 -0.1546,-0.0548 -0.0972,0 -0.1755,0.0329 -0.234,0.0988 -0.0589,0.066 -0.1017,0.1698 -0.1294,0.3115l-0.1289 0.6675 -0.309 0zm1.8297 -0.81l0.7219 0c-0.0227,-0.0833 -0.0647,-0.1479 -0.1269,-0.1941 -0.0618,-0.0461 -0.1385,-0.0692 -0.2291,-0.0692 -0.0828,0 -0.157,0.0231 -0.2217,0.0696 -0.0647,0.0466 -0.1129,0.1113 -0.1442,0.1937zm0.9732 0.3935c-0.0598,0.1454 -0.1475,0.2566 -0.2645,0.3345 -0.1166,0.0779 -0.2542,0.117 -0.4129,0.117 -0.1866,0 -0.3399,-0.0601 -0.4598,-0.1804 -0.1199,-0.1204 -0.18,-0.274 -0.18,-0.4607 0,-0.1116 0.0226,-0.2179 0.0675,-0.3181 0.045,-0.1001 0.1092,-0.1874 0.192,-0.2624 0.0635,-0.0573 0.1356,-0.1005 0.2159,-0.1306 0.0808,-0.0297 0.1669,-0.0445 0.2584,-0.0445 0.1891,0 0.3436,0.0593 0.4635,0.1784 0.1199,0.1186 0.18,0.2723 0.18,0.4598 0,0.0235 -0.0012,0.0494 -0.0037,0.0783 -0.0024,0.0284 -0.0061,0.0601 -0.0119,0.0947l-1.0502 0c0.0193,0.0969 0.058,0.1706 0.1157,0.2209 0.0581,0.0498 0.1335,0.075 0.2258,0.075 0.0664,0 0.1261,-0.0136 0.1797,-0.0404 0.0535,-0.0268 0.1013,-0.0672 0.1442,-0.1215l0.3403 0zm0.5612 -0.2061c0,0.1101 0.0317,0.199 0.0951,0.2666 0.0639,0.0676 0.1467,0.1014 0.2489,0.1014 0.1182,0 0.2175,-0.0441 0.2987,-0.1327 0.0808,-0.0886 0.1211,-0.1978 0.1211,-0.3271 0,-0.108 -0.0321,-0.1945 -0.0964,-0.26 -0.0647,-0.0655 -0.1504,-0.0985 -0.2571,-0.0985 -0.1149,0 -0.2122,0.0429 -0.2917,0.129 -0.0791,0.0861 -0.1186,0.1932 -0.1186,0.3213zm-0.4347 0.6226l0.3403 -1.7577 0.302 0 -0.1018 0.5146c0.0507,-0.037 0.1063,-0.0651 0.1661,-0.0836 0.0601,-0.0185 0.124,-0.0276 0.1924,-0.0276 0.1747,0 0.3193,0.0597 0.4343,0.1792 0.1145,0.1195 0.1718,0.2699 0.1718,0.4508 0,0.1038 -0.0186,0.2031 -0.0561,0.2983 -0.0374,0.0947 -0.091,0.1784 -0.1611,0.2509 -0.0667,0.0692 -0.145,0.1215 -0.2344,0.157 -0.089,0.0354 -0.1883,0.0531 -0.2966,0.0531 -0.1014,0 -0.185,-0.0136 -0.2514,-0.0412 -0.0659,-0.0272 -0.1248,-0.0721 -0.1771,-0.1351l-0.0314 0.1413 -0.297 0zm2.0267 -0.6226c0,0.1101 0.0317,0.199 0.0951,0.2666 0.0639,0.0676 0.1467,0.1014 0.2489,0.1014 0.1182,0 0.2175,-0.0441 0.2987,-0.1327 0.0808,-0.0886 0.1211,-0.1978 0.1211,-0.3271 0,-0.108 -0.0321,-0.1945 -0.0964,-0.26 -0.0647,-0.0655 -0.1504,-0.0985 -0.2571,-0.0985 -0.1149,0 -0.2122,0.0429 -0.2917,0.129 -0.0791,0.0861 -0.1186,0.1932 -0.1186,0.3213zm-0.4347 0.6226l0.3403 -1.7577 0.302 0 -0.1018 0.5146c0.0507,-0.037 0.1063,-0.0651 0.1661,-0.0836 0.0601,-0.0185 0.124,-0.0276 0.1924,-0.0276 0.1747,0 0.3193,0.0597 0.4343,0.1792 0.1145,0.1195 0.1718,0.2699 0.1718,0.4508 0,0.1038 -0.0186,0.2031 -0.0561,0.2983 -0.0374,0.0947 -0.091,0.1784 -0.1611,0.2509 -0.0667,0.0692 -0.145,0.1215 -0.2344,0.157 -0.089,0.0354 -0.1883,0.0531 -0.2966,0.0531 -0.1014,0 -0.185,-0.0136 -0.2514,-0.0412 -0.0659,-0.0272 -0.1248,-0.0721 -0.1771,-0.1351l-0.0314 0.1413 -0.297 0zm1.9904 -0.81l0.7219 0c-0.0227,-0.0833 -0.0647,-0.1479 -0.1269,-0.1941 -0.0618,-0.0461 -0.1385,-0.0692 -0.2291,-0.0692 -0.0828,0 -0.157,0.0231 -0.2217,0.0696 -0.0647,0.0466 -0.1129,0.1113 -0.1442,0.1937zm0.9732 0.3935c-0.0598,0.1454 -0.1475,0.2566 -0.2645,0.3345 -0.1166,0.0779 -0.2542,0.117 -0.4129,0.117 -0.1866,0 -0.3399,-0.0601 -0.4598,-0.1804 -0.1199,-0.1204 -0.18,-0.274 -0.18,-0.4607 0,-0.1116 0.0226,-0.2179 0.0675,-0.3181 0.045,-0.1001 0.1092,-0.1874 0.192,-0.2624 0.0635,-0.0573 0.1356,-0.1005 0.2159,-0.1306 0.0808,-0.0297 0.1669,-0.0445 0.2584,-0.0445 0.1891,0 0.3436,0.0593 0.4635,0.1784 0.1199,0.1186 0.18,0.2723 0.18,0.4598 0,0.0235 -0.0012,0.0494 -0.0037,0.0783 -0.0024,0.0284 -0.0061,0.0601 -0.0119,0.0947l-1.0502 0c0.0193,0.0969 0.058,0.1706 0.1157,0.2209 0.0581,0.0498 0.1335,0.075 0.2258,0.075 0.0664,0 0.1261,-0.0136 0.1797,-0.0404 0.0535,-0.0268 0.1013,-0.0672 0.1442,-0.1215l0.3403 0zm0.6757 -0.9114l-0.0276 0.1269c0.0507,-0.0499 0.1042,-0.087 0.1611,-0.1117 0.0569,-0.0243 0.117,-0.0367 0.1805,-0.0367 0.1594,0 0.2793,0.0363 0.3605,0.1088 0.0807,0.0721 0.1211,0.1801 0.1211,0.3235 0,0.0263 -0.0037,0.0671 -0.0115,0.1223 -0.0074,0.0552 -0.0186,0.1191 -0.033,0.1912l-0.1162 0.6036 -0.3185 0 0.1352 -0.7013c0.0057,-0.0271 0.0099,-0.0548 0.0132,-0.0819 0.0033,-0.0276 0.0049,-0.054 0.0049,-0.08 0,-0.0696 -0.0177,-0.1232 -0.0531,-0.1598 -0.0355,-0.0367 -0.087,-0.0548 -0.1546,-0.0548 -0.0972,0 -0.1755,0.0329 -0.234,0.0988 -0.0589,0.066 -0.1017,0.1698 -0.1294,0.3115l-0.1363 0.6675 -0.3066 0 0.2691 -1.3279 0.2752 0zm1.7745 1.3279l-0.0943 -1.3279 0.2946 0 0.035 0.932 0.4322 -0.932 0.2917 0 0.0593 0.9225 0.4393 -0.9225 0.3139 0 -0.6749 1.3279 -0.3016 0 -0.0857 -0.8895 -0.4029 0.8895 -0.3066 0zm2.0544 -0.81l0.7219 0c-0.0227,-0.0833 -0.0647,-0.1479 -0.1269,-0.1941 -0.0618,-0.0461 -0.1385,-0.0692 -0.2291,-0.0692 -0.0828,0 -0.157,0.0231 -0.2217,0.0696 -0.0647,0.0466 -0.1129,0.1113 -0.1442,0.1937zm0.9732 0.3935c-0.0598,0.1454 -0.1475,0.2566 -0.2645,0.3345 -0.1166,0.0779 -0.2542,0.117 -0.4129,0.117 -0.1866,0 -0.3399,-0.0601 -0.4598,-0.1804 -0.1199,-0.1204 -0.18,-0.274 -0.18,-0.4607 0,-0.1116 0.0226,-0.2179 0.0675,-0.3181 0.045,-0.1001 0.1092,-0.1874 0.192,-0.2624 0.0635,-0.0573 0.1356,-0.1005 0.2159,-0.1306 0.0808,-0.0297 0.1669,-0.0445 0.2584,-0.0445 0.1891,0 0.3436,0.0593 0.4635,0.1784 0.1199,0.1186 0.18,0.2723 0.18,0.4598 0,0.0235 -0.0012,0.0494 -0.0037,0.0783 -0.0024,0.0284 -0.0061,0.0601 -0.0119,0.0947l-1.0502 0c0.0193,0.0969 0.058,0.1706 0.1157,0.2209 0.0581,0.0498 0.1335,0.075 0.2258,0.075 0.0664,0 0.1261,-0.0136 0.1797,-0.0404 0.0535,-0.0268 0.1013,-0.0672 0.1442,-0.1215l0.3403 0zm0.8088 0.4165l0.0494 -0.274 0.6799 -0.7692 -0.5361 0 0.052 -0.2847 0.9414 0 -0.047 0.267 -0.6818 0.7762 0.6081 0 -0.0495 0.2847 -1.0164 0zm1.5628 -0.81l0.7219 0c-0.0227,-0.0833 -0.0647,-0.1479 -0.1269,-0.1941 -0.0618,-0.0461 -0.1385,-0.0692 -0.2291,-0.0692 -0.0828,0 -0.157,0.0231 -0.2217,0.0696 -0.0647,0.0466 -0.1129,0.1113 -0.1442,0.1937zm0.9732 0.3935c-0.0598,0.1454 -0.1475,0.2566 -0.2645,0.3345 -0.1166,0.0779 -0.2542,0.117 -0.4129,0.117 -0.1866,0 -0.3399,-0.0601 -0.4598,-0.1804 -0.1199,-0.1204 -0.18,-0.274 -0.18,-0.4607 0,-0.1116 0.0226,-0.2179 0.0675,-0.3181 0.045,-0.1001 0.1092,-0.1874 0.192,-0.2624 0.0635,-0.0573 0.1356,-0.1005 0.2159,-0.1306 0.0808,-0.0297 0.1669,-0.0445 0.2584,-0.0445 0.1891,0 0.3436,0.0593 0.4635,0.1784 0.1199,0.1186 0.18,0.2723 0.18,0.4598 0,0.0235 -0.0012,0.0494 -0.0037,0.0783 -0.0024,0.0284 -0.0061,0.0601 -0.0119,0.0947l-1.0502 0c0.0193,0.0969 0.058,0.1706 0.1157,0.2209 0.0581,0.0498 0.1335,0.075 0.2258,0.075 0.0664,0 0.1261,-0.0136 0.1797,-0.0404 0.0535,-0.0268 0.1013,-0.0672 0.1442,-0.1215l0.3403 0zm1.8722 0.4165l0.0169 -0.0919c-0.0457,0.0429 -0.0968,0.0746 -0.1533,0.0956 -0.0564,0.021 -0.119,0.0313 -0.1883,0.0313 -0.1833,0 -0.3324,-0.0601 -0.4466,-0.1804 -0.1141,-0.1204 -0.1714,-0.2777 -0.1714,-0.4726 0,-0.082 0.0124,-0.1607 0.0367,-0.2353 0.0247,-0.075 0.0618,-0.1475 0.1116,-0.2175 0.0668,-0.0923 0.1492,-0.1632 0.2473,-0.2122 0.0976,-0.049 0.2047,-0.0738 0.3213,-0.0738 0.0886,0 0.1702,0.0169 0.2452,0.0507 0.075,0.0338 0.1409,0.0836 0.1982,0.1496l0.1133 -0.6012 0.3115 0 -0.3379 1.7577 -0.3045 0zm-0.2126 -1.0778c-0.1149,0 -0.2142,0.0445 -0.2979,0.1335 -0.0836,0.089 -0.1256,0.1961 -0.1256,0.3213 0,0.1105 0.0321,0.1994 0.096,0.267 0.0638,0.0676 0.1483,0.1014 0.2529,0.1014 0.1166,0 0.2155,-0.0445 0.2963,-0.1335 0.0807,-0.089 0.1215,-0.1986 0.1215,-0.3288 0,-0.1055 -0.0325,-0.192 -0.0972,-0.2596 -0.0647,-0.0676 -0.1467,-0.1013 -0.246,-0.1013zm1.8046 1.0778l0.0169 -0.0919c-0.0457,0.0429 -0.0968,0.0746 -0.1533,0.0956 -0.0564,0.021 -0.119,0.0313 -0.1883,0.0313 -0.1833,0 -0.3324,-0.0601 -0.4466,-0.1804 -0.1141,-0.1204 -0.1714,-0.2777 -0.1714,-0.4726 0,-0.082 0.0124,-0.1607 0.0367,-0.2353 0.0247,-0.075 0.0618,-0.1475 0.1116,-0.2175 0.0668,-0.0923 0.1492,-0.1632 0.2468,-0.2122 0.0981,-0.049 0.2052,-0.0738 0.3218,-0.0738 0.0886,0 0.1702,0.0169 0.2452,0.0507 0.0746,0.0338 0.1409,0.0836 0.1978,0.1496l0.0325 -0.1714 0.3164 0 -0.2645 1.3279 -0.3016 0zm-0.2126 -1.0778c-0.1149,0 -0.2142,0.0445 -0.2979,0.1335 -0.0836,0.089 -0.1256,0.1961 -0.1256,0.3213 0,0.1105 0.0321,0.1994 0.096,0.267 0.0638,0.0676 0.1483,0.1014 0.2529,0.1014 0.1166,0 0.2155,-0.0445 0.2963,-0.1335 0.0807,-0.089 0.1211,-0.1986 0.1211,-0.3288 0,-0.1055 -0.0321,-0.192 -0.0968,-0.2596 -0.0651,-0.0676 -0.1467,-0.1013 -0.246,-0.1013zm1.8046 1.0778l0.0169 -0.0919c-0.0457,0.0429 -0.0968,0.0746 -0.1533,0.0956 -0.0564,0.021 -0.119,0.0313 -0.1883,0.0313 -0.1833,0 -0.3324,-0.0601 -0.4466,-0.1804 -0.1141,-0.1204 -0.1714,-0.2777 -0.1714,-0.4726 0,-0.082 0.0124,-0.1607 0.0367,-0.2353 0.0247,-0.075 0.0618,-0.1475 0.1116,-0.2175 0.0668,-0.0923 0.1492,-0.1632 0.2468,-0.2122 0.0981,-0.049 0.2052,-0.0738 0.3218,-0.0738 0.0886,0 0.1702,0.0169 0.2452,0.0507 0.0746,0.0338 0.1409,0.0836 0.1978,0.1496l0.0325 -0.1714 0.3164 0 -0.2645 1.3279 -0.3016 0zm-0.2126 -1.0778c-0.1149,0 -0.2142,0.0445 -0.2979,0.1335 -0.0836,0.089 -0.1256,0.1961 -0.1256,0.3213 0,0.1105 0.0321,0.1994 0.096,0.267 0.0638,0.0676 0.1483,0.1014 0.2529,0.1014 0.1166,0 0.2155,-0.0445 0.2963,-0.1335 0.0807,-0.089 0.1211,-0.1986 0.1211,-0.3288 0,-0.1055 -0.0321,-0.192 -0.0968,-0.2596 -0.0651,-0.0676 -0.1467,-0.1013 -0.246,-0.1013zm0.7931 1.0778l0.2571 -1.3279 0.2827 0 -0.0351 0.1763c0.0565,-0.0737 0.1212,-0.1285 0.1949,-0.1636 0.0738,-0.035 0.1603,-0.0523 0.2604,-0.0523l0.0095 0 -0.0593 0.3115c-0.1422,0.0025 -0.2468,0.0313 -0.3136,0.0861 -0.0671,0.0552 -0.1149,0.1553 -0.1438,0.3l-0.1318 0.6699 -0.321 0zm1.7103 -1.0778c-0.1175,0 -0.2159,0.0441 -0.2946,0.1326 -0.0787,0.0886 -0.1183,0.2003 -0.1183,0.3346 0,0.1038 0.0326,0.1891 0.0973,0.2559 0.0646,0.0667 0.1479,0.1001 0.2492,0.1001 0.1183,0 0.218,-0.0441 0.3,-0.1327 0.0816,-0.0886 0.1223,-0.1978 0.1223,-0.3271 0,-0.1096 -0.0325,-0.1974 -0.0976,-0.2637 -0.0651,-0.0664 -0.1512,-0.0997 -0.2583,-0.0997zm-0.7194 0.4717c0,-0.1149 0.0226,-0.2229 0.0676,-0.3238 0.0449,-0.101 0.11,-0.1891 0.1944,-0.2637 0.0643,-0.0573 0.1368,-0.1005 0.2172,-0.1298 0.0803,-0.0293 0.1668,-0.0441 0.2595,-0.0441 0.1883,0 0.3424,0.0598 0.4627,0.1797 0.1203,0.1199 0.1805,0.2735 0.1805,0.4614 0,0.1051 -0.0186,0.2052 -0.056,0.2996 -0.0375,0.0947 -0.0911,0.1788 -0.1611,0.2517 -0.066,0.0676 -0.1438,0.1195 -0.2337,0.1557 -0.0898,0.0363 -0.187,0.0544 -0.2913,0.0544 -0.187,0 -0.3403,-0.0601 -0.4602,-0.1804 -0.1199,-0.1204 -0.1796,-0.2736 -0.1796,-0.4607zm1.9773 -0.7218l-0.0289 0.1269c0.0507,-0.0507 0.1059,-0.0886 0.1665,-0.1133 0.0601,-0.0252 0.1265,-0.0375 0.199,-0.0375 0.0997,0 0.185,0.0185 0.2558,0.056 0.0709,0.0375 0.1257,0.0927 0.1644,0.1661 0.0602,-0.0742 0.1273,-0.1294 0.2015,-0.1665 0.0738,-0.0371 0.1545,-0.0556 0.2415,-0.0556 0.1437,0 0.2566,0.0383 0.3378,0.1145 0.0812,0.0766 0.122,0.1834 0.122,0.3202 0,0.0618 -0.0132,0.1573 -0.04,0.2871 -0.0025,0.012 -0.0037,0.021 -0.0045,0.0264l-0.1175 0.6036 -0.3184 0 0.1363 -0.7025c0.0058,-0.0272 0.0099,-0.0544 0.0128,-0.0807 0.0029,-0.0268 0.0041,-0.0532 0.0041,-0.08 0,-0.0696 -0.0173,-0.1232 -0.0523,-0.1598 -0.035,-0.0367 -0.0869,-0.0548 -0.1553,-0.0548 -0.0964,0 -0.1747,0.0333 -0.2341,0.1001 -0.0597,0.0667 -0.1026,0.1701 -0.1293,0.3102l-0.1278 0.6675 -0.3197 0 0.1364 -0.7013c0.0054,-0.0271 0.0095,-0.0543 0.0124,-0.0815 0.0028,-0.0268 0.0045,-0.0536 0.0045,-0.0804 0,-0.0696 -0.0177,-0.1232 -0.0527,-0.1598 -0.0351,-0.0367 -0.0866,-0.0548 -0.155,-0.0548 -0.0968,0 -0.1743,0.0329 -0.2332,0.0988 -0.0585,0.066 -0.1021,0.1698 -0.1302,0.3115l-0.1351 0.6675 -0.302 0 0.2645 -1.3279 0.2765 0zm3.2665 0.2501c-0.1175,0 -0.2159,0.0441 -0.2946,0.1326 -0.0787,0.0886 -0.1183,0.2003 -0.1183,0.3346 0,0.1038 0.0326,0.1891 0.0973,0.2559 0.0646,0.0667 0.1479,0.1001 0.2492,0.1001 0.1183,0 0.218,-0.0441 0.3,-0.1327 0.0816,-0.0886 0.1223,-0.1978 0.1223,-0.3271 0,-0.1096 -0.0325,-0.1974 -0.0976,-0.2637 -0.0651,-0.0664 -0.1512,-0.0997 -0.2583,-0.0997zm-0.7194 0.4717c0,-0.1149 0.0226,-0.2229 0.0676,-0.3238 0.0449,-0.101 0.11,-0.1891 0.1944,-0.2637 0.0643,-0.0573 0.1368,-0.1005 0.2172,-0.1298 0.0803,-0.0293 0.1668,-0.0441 0.2595,-0.0441 0.1883,0 0.3424,0.0598 0.4627,0.1797 0.1203,0.1199 0.1805,0.2735 0.1805,0.4614 0,0.1051 -0.0186,0.2052 -0.056,0.2996 -0.0375,0.0947 -0.0911,0.1788 -0.1611,0.2517 -0.066,0.0676 -0.1438,0.1195 -0.2337,0.1557 -0.0898,0.0363 -0.187,0.0544 -0.2913,0.0544 -0.187,0 -0.3403,-0.0601 -0.4602,-0.1804 -0.1199,-0.1204 -0.1796,-0.2736 -0.1796,-0.4607zm2.2175 -0.4717c-0.1175,0 -0.2159,0.0441 -0.2946,0.1326 -0.0787,0.0886 -0.1183,0.2003 -0.1183,0.3346 0,0.1038 0.0326,0.1891 0.0973,0.2559 0.0646,0.0667 0.1479,0.1001 0.2492,0.1001 0.1183,0 0.218,-0.0441 0.3,-0.1327 0.0816,-0.0886 0.1223,-0.1978 0.1223,-0.3271 0,-0.1096 -0.0325,-0.1974 -0.0976,-0.2637 -0.0651,-0.0664 -0.1512,-0.0997 -0.2583,-0.0997zm-0.7194 0.4717c0,-0.1149 0.0226,-0.2229 0.0676,-0.3238 0.0449,-0.101 0.11,-0.1891 0.1944,-0.2637 0.0643,-0.0573 0.1368,-0.1005 0.2172,-0.1298 0.0803,-0.0293 0.1668,-0.0441 0.2595,-0.0441 0.1883,0 0.3424,0.0598 0.4627,0.1797 0.1203,0.1199 0.1805,0.2735 0.1805,0.4614 0,0.1051 -0.0186,0.2052 -0.056,0.2996 -0.0375,0.0947 -0.0911,0.1788 -0.1611,0.2517 -0.066,0.0676 -0.1438,0.1195 -0.2337,0.1557 -0.0898,0.0363 -0.187,0.0544 -0.2913,0.0544 -0.187,0 -0.3403,-0.0601 -0.4602,-0.1804 -0.1199,-0.1204 -0.1796,-0.2736 -0.1796,-0.4607zm1.4161 0.6061l0.3416 -1.7577 0.3234 0 -0.197 1.0078 0.5554 -0.578 0.3935 0 -0.618 0.6411 0.4273 0.6868 -0.3659 0 -0.4079 -0.665 -0.1277 0.665 -0.3247 0zm2.5599 -1.3279l-0.0276 0.1269c0.0507,-0.0499 0.1042,-0.087 0.1611,-0.1117 0.0569,-0.0243 0.117,-0.0367 0.1805,-0.0367 0.1594,0 0.2793,0.0363 0.3605,0.1088 0.0807,0.0721 0.1211,0.1801 0.1211,0.3235 0,0.0263 -0.0037,0.0671 -0.0115,0.1223 -0.0074,0.0552 -0.0186,0.1191 -0.033,0.1912l-0.1162 0.6036 -0.3185 0 0.1352 -0.7013c0.0057,-0.0271 0.0099,-0.0548 0.0132,-0.0819 0.0033,-0.0276 0.0049,-0.054 0.0049,-0.08 0,-0.0696 -0.0177,-0.1232 -0.0531,-0.1598 -0.0355,-0.0367 -0.087,-0.0548 -0.1546,-0.0548 -0.0972,0 -0.1755,0.0329 -0.234,0.0988 -0.0589,0.066 -0.1017,0.1698 -0.1294,0.3115l-0.1363 0.6675 -0.3066 0 0.2691 -1.3279 0.2752 0zm1.6732 0.2501c-0.1175,0 -0.2159,0.0441 -0.2946,0.1326 -0.0787,0.0886 -0.1183,0.2003 -0.1183,0.3346 0,0.1038 0.0326,0.1891 0.0973,0.2559 0.0646,0.0667 0.1479,0.1001 0.2492,0.1001 0.1183,0 0.218,-0.0441 0.3,-0.1327 0.0816,-0.0886 0.1223,-0.1978 0.1223,-0.3271 0,-0.1096 -0.0325,-0.1974 -0.0976,-0.2637 -0.0651,-0.0664 -0.1512,-0.0997 -0.2583,-0.0997zm-0.7194 0.4717c0,-0.1149 0.0226,-0.2229 0.0676,-0.3238 0.0449,-0.101 0.11,-0.1891 0.1944,-0.2637 0.0643,-0.0573 0.1368,-0.1005 0.2172,-0.1298 0.0803,-0.0293 0.1668,-0.0441 0.2595,-0.0441 0.1883,0 0.3424,0.0598 0.4627,0.1797 0.1203,0.1199 0.1805,0.2735 0.1805,0.4614 0,0.1051 -0.0186,0.2052 -0.056,0.2996 -0.0375,0.0947 -0.0911,0.1788 -0.1611,0.2517 -0.066,0.0676 -0.1438,0.1195 -0.2337,0.1557 -0.0898,0.0363 -0.187,0.0544 -0.2913,0.0544 -0.187,0 -0.3403,-0.0601 -0.4602,-0.1804 -0.1199,-0.1204 -0.1796,-0.2736 -0.1796,-0.4607zm2.4626 0.6061l0.0169 -0.0919c-0.0457,0.0429 -0.0968,0.0746 -0.1533,0.0956 -0.0564,0.021 -0.119,0.0313 -0.1883,0.0313 -0.1833,0 -0.3324,-0.0601 -0.4466,-0.1804 -0.1141,-0.1204 -0.1714,-0.2777 -0.1714,-0.4726 0,-0.082 0.0124,-0.1607 0.0367,-0.2353 0.0247,-0.075 0.0618,-0.1475 0.1116,-0.2175 0.0668,-0.0923 0.1492,-0.1632 0.2473,-0.2122 0.0976,-0.049 0.2047,-0.0738 0.3213,-0.0738 0.0886,0 0.1702,0.0169 0.2452,0.0507 0.075,0.0338 0.1409,0.0836 0.1982,0.1496l0.1133 -0.6012 0.3115 0 -0.3379 1.7577 -0.3045 0zm-0.2126 -1.0778c-0.1149,0 -0.2142,0.0445 -0.2979,0.1335 -0.0836,0.089 -0.1256,0.1961 -0.1256,0.3213 0,0.1105 0.0321,0.1994 0.096,0.267 0.0638,0.0676 0.1483,0.1014 0.2529,0.1014 0.1166,0 0.2155,-0.0445 0.2963,-0.1335 0.0807,-0.089 0.1215,-0.1986 0.1215,-0.3288 0,-0.1055 -0.0325,-0.192 -0.0972,-0.2596 -0.0647,-0.0676 -0.1467,-0.1013 -0.246,-0.1013zm0.7882 1.0778l0.2571 -1.3279 0.3065 0 -0.2571 1.3279 -0.3065 0zm0.2847 -1.468l0.0568 -0.2897 0.3066 0 -0.0569 0.2897 -0.3065 0zm1.6069 1.4849c-0.0355,0.1706 -0.1063,0.2966 -0.2126,0.3778 -0.1063,0.0812 -0.2538,0.122 -0.4429,0.122 -0.169,0 -0.3115,-0.0396 -0.4273,-0.1191 -0.1158,-0.0791 -0.1833,-0.1825 -0.2027,-0.3107l0.3185 0c0.028,0.0573 0.0696,0.0997 0.1244,0.1278 0.0548,0.0284 0.1228,0.0424 0.204,0.0424 0.11,0 0.1928,-0.0268 0.248,-0.0803 0.0552,-0.0536 0.0919,-0.143 0.1104,-0.2687 -0.0457,0.0429 -0.0968,0.0746 -0.1533,0.0956 -0.0564,0.021 -0.119,0.0313 -0.1883,0.0313 -0.1833,0 -0.3324,-0.0601 -0.4466,-0.1804 -0.1141,-0.1204 -0.1714,-0.2777 -0.1714,-0.4726 0,-0.082 0.0124,-0.1607 0.0367,-0.2353 0.0247,-0.075 0.0618,-0.1475 0.1116,-0.2175 0.0668,-0.0923 0.1492,-0.1632 0.2468,-0.2122 0.0981,-0.049 0.2052,-0.0738 0.3218,-0.0738 0.0886,0 0.1702,0.0169 0.2452,0.0507 0.0746,0.0338 0.1409,0.0836 0.1978,0.1496l0.0325 -0.1714 0.3164 0 -0.269 1.3448zm-0.5097 -1.0947c-0.1149,0 -0.2142,0.0445 -0.2979,0.1335 -0.0836,0.089 -0.1256,0.1961 -0.1256,0.3213 0,0.1105 0.0321,0.1994 0.096,0.267 0.0638,0.0676 0.1483,0.1014 0.2529,0.1014 0.1166,0 0.2155,-0.0445 0.2963,-0.1335 0.0807,-0.089 0.1211,-0.1986 0.1211,-0.3288 0,-0.1055 -0.0321,-0.192 -0.0968,-0.2596 -0.0651,-0.0676 -0.1467,-0.1013 -0.246,-0.1013zm0.8475 1.2335c0.0396,-0.009 0.0696,-0.0259 0.0906,-0.0506 0.0206,-0.0252 0.0347,-0.0602 0.0408,-0.1051l-0.1133 0 0.0639 -0.3308 0.309 0 -0.0639 0.3283c-0.0243,0.1265 -0.0626,0.2139 -0.1153,0.2625 -0.0528,0.049 -0.136,0.0766 -0.2493,0.084l0.0375 -0.1883zm1.3205 -0.1557l0.0494 -0.274 0.6799 -0.7692 -0.5361 0 0.052 -0.2847 0.9414 0 -0.047 0.267 -0.6818 0.7762 0.6081 0 -0.0495 0.2847 -1.0164 0zm1.1743 0l0.2571 -1.3279 0.3065 0 -0.2571 1.3279 -0.3065 0zm0.2847 -1.468l0.0568 -0.2897 0.3066 0 -0.0569 0.2897 -0.3065 0zm1.6802 1.0032c-0.0531,0.1578 -0.1401,0.2806 -0.2612,0.3684 -0.1211,0.0877 -0.2645,0.1314 -0.4306,0.1314 -0.1891,0 -0.3436,-0.0597 -0.4635,-0.1792 -0.1199,-0.1195 -0.1796,-0.2736 -0.1796,-0.4619 0,-0.1125 0.0222,-0.2192 0.0663,-0.3193 0.0445,-0.1001 0.108,-0.187 0.1908,-0.2612 0.0626,-0.0565 0.1339,-0.0993 0.2134,-0.1286 0.0799,-0.0292 0.1652,-0.044 0.2559,-0.044 0.166,0 0.3057,0.0449 0.4194,0.1347 0.1141,0.0898 0.1871,0.2126 0.2192,0.3687l-0.3152 0c-0.0305,-0.07 -0.0737,-0.1236 -0.1298,-0.1602 -0.056,-0.0367 -0.1219,-0.0548 -0.1986,-0.0548 -0.1211,0 -0.2208,0.0428 -0.2983,0.1285 -0.0778,0.0857 -0.1166,0.1961 -0.1166,0.3317 0,0.1051 0.0326,0.1912 0.0977,0.2571 0.0651,0.0659 0.1499,0.0989 0.2534,0.0989 0.0741,0 0.1405,-0.0177 0.1994,-0.0532 0.0585,-0.0354 0.1083,-0.0877 0.1495,-0.157l0.3284 0zm0.0619 0.4648l0.3415 -1.7577 0.309 0 -0.1038 0.5241c0.0474,-0.0387 0.0973,-0.0675 0.1492,-0.0869 0.0519,-0.0194 0.1067,-0.0289 0.1648,-0.0289 0.1553,0 0.2731,0.0367 0.3535,0.1101 0.0803,0.0729 0.1207,0.1804 0.1207,0.3222 0,0.0263 -0.0037,0.0671 -0.0115,0.1223 -0.0074,0.0552 -0.0186,0.1191 -0.033,0.1912l-0.1162 0.6036 -0.3185 0 0.1352 -0.7013c0.0057,-0.0271 0.0099,-0.0548 0.0132,-0.0819 0.0033,-0.0276 0.0049,-0.054 0.0049,-0.08 0,-0.0696 -0.0177,-0.1232 -0.0531,-0.1598 -0.0355,-0.0367 -0.087,-0.0548 -0.1546,-0.0548 -0.0972,0 -0.1755,0.0329 -0.234,0.0988 -0.0589,0.066 -0.1017,0.1698 -0.1294,0.3115l-0.1289 0.6675 -0.309 0zm1.5306 0l0.2027 -1.0502 -0.1784 0 0.054 -0.2777 0.1788 0 0.0807 -0.4149 0.3202 0 -0.08 0.4149 0.1908 0 -0.0519 0.2777 -0.1932 0 -0.2052 1.0502 -0.3185 0z"/>
   <path id="_44805960" class="fil1" d="M61.9692 8.4451c0,0.1101 0.0317,0.199 0.0951,0.2666 0.0639,0.0676 0.1467,0.1014 0.2489,0.1014 0.1182,0 0.2175,-0.0441 0.2987,-0.1327 0.0808,-0.0886 0.1211,-0.1978 0.1211,-0.3271 0,-0.108 -0.0321,-0.1945 -0.0964,-0.26 -0.0647,-0.0655 -0.1504,-0.0985 -0.2571,-0.0985 -0.1149,0 -0.2122,0.0429 -0.2917,0.129 -0.0791,0.0861 -0.1186,0.1932 -0.1186,0.3213zm-0.4347 0.6226l0.3403 -1.7577 0.302 0 -0.1018 0.5146c0.0507,-0.037 0.1063,-0.0651 0.1661,-0.0836 0.0601,-0.0185 0.124,-0.0276 0.1924,-0.0276 0.1747,0 0.3193,0.0597 0.4343,0.1792 0.1145,0.1195 0.1718,0.2699 0.1718,0.4508 0,0.1038 -0.0186,0.2031 -0.0561,0.2983 -0.0374,0.0947 -0.091,0.1784 -0.1611,0.2509 -0.0667,0.0692 -0.145,0.1215 -0.2344,0.157 -0.089,0.0354 -0.1883,0.0531 -0.2966,0.0531 -0.1014,0 -0.185,-0.0136 -0.2514,-0.0412 -0.0659,-0.0272 -0.1248,-0.0721 -0.1771,-0.1351l-0.0314 0.1413 -0.297 0zm2.6183 0l0.0169 -0.0919c-0.0457,0.0429 -0.0968,0.0746 -0.1533,0.0956 -0.0564,0.021 -0.119,0.0313 -0.1883,0.0313 -0.1833,0 -0.3324,-0.0601 -0.4466,-0.1804 -0.1141,-0.1204 -0.1714,-0.2777 -0.1714,-0.4726 0,-0.082 0.0124,-0.1607 0.0367,-0.2353 0.0247,-0.075 0.0618,-0.1475 0.1116,-0.2175 0.0668,-0.0923 0.1492,-0.1632 0.2468,-0.2122 0.0981,-0.049 0.2052,-0.0738 0.3218,-0.0738 0.0886,0 0.1702,0.0169 0.2452,0.0507 0.0746,0.0338 0.1409,0.0836 0.1978,0.1496l0.0325 -0.1714 0.3164 0 -0.2645 1.3279 -0.3016 0zm-0.2126 -1.0778c-0.1149,0 -0.2142,0.0445 -0.2979,0.1335 -0.0836,0.089 -0.1256,0.1961 -0.1256,0.3213 0,0.1105 0.0321,0.1994 0.096,0.267 0.0638,0.0676 0.1483,0.1014 0.2529,0.1014 0.1166,0 0.2155,-0.0445 0.2963,-0.1335 0.0807,-0.089 0.1211,-0.1986 0.1211,-0.3288 0,-0.1055 -0.0321,-0.192 -0.0968,-0.2596 -0.0651,-0.0676 -0.1467,-0.1013 -0.246,-0.1013zm1.8046 1.0778l0.0169 -0.0919c-0.0457,0.0429 -0.0968,0.0746 -0.1533,0.0956 -0.0564,0.021 -0.119,0.0313 -0.1883,0.0313 -0.1833,0 -0.3324,-0.0601 -0.4466,-0.1804 -0.1141,-0.1204 -0.1714,-0.2777 -0.1714,-0.4726 0,-0.082 0.0124,-0.1607 0.0367,-0.2353 0.0247,-0.075 0.0618,-0.1475 0.1116,-0.2175 0.0668,-0.0923 0.1492,-0.1632 0.2468,-0.2122 0.0981,-0.049 0.2052,-0.0738 0.3218,-0.0738 0.0886,0 0.1702,0.0169 0.2452,0.0507 0.0746,0.0338 0.1409,0.0836 0.1978,0.1496l0.0325 -0.1714 0.3164 0 -0.2645 1.3279 -0.3016 0zm-0.2126 -1.0778c-0.1149,0 -0.2142,0.0445 -0.2979,0.1335 -0.0836,0.089 -0.1256,0.1961 -0.1256,0.3213 0,0.1105 0.0321,0.1994 0.096,0.267 0.0638,0.0676 0.1483,0.1014 0.2529,0.1014 0.1166,0 0.2155,-0.0445 0.2963,-0.1335 0.0807,-0.089 0.1211,-0.1986 0.1211,-0.3288 0,-0.1055 -0.0321,-0.192 -0.0968,-0.2596 -0.0651,-0.0676 -0.1467,-0.1013 -0.246,-0.1013zm0.7931 1.0778l0.2571 -1.3279 0.2827 0 -0.0351 0.1763c0.0565,-0.0737 0.1212,-0.1285 0.1949,-0.1636 0.0738,-0.035 0.1603,-0.0523 0.2604,-0.0523l0.0095 0 -0.0593 0.3115c-0.1422,0.0025 -0.2468,0.0313 -0.3136,0.0861 -0.0671,0.0552 -0.1149,0.1553 -0.1438,0.3l-0.1318 0.6699 -0.321 0zm0.7049 0.1557c0.0396,-0.009 0.0696,-0.0259 0.0906,-0.0506 0.0206,-0.0252 0.0347,-0.0602 0.0408,-0.1051l-0.1133 0 0.0639 -0.3308 0.309 0 -0.0639 0.3283c-0.0243,0.1265 -0.0626,0.2139 -0.1153,0.2625 -0.0528,0.049 -0.136,0.0766 -0.2493,0.084l0.0375 -0.1883zm-61.1599 2.7906l0.2571 -1.3279 0.3065 0 -0.2571 1.3279 -0.3065 0zm0.2847 -1.468l0.0568 -0.2897 0.3066 0 -0.0569 0.2897 -0.3065 0zm0.8327 0.1401l-0.0276 0.1269c0.0507,-0.0499 0.1042,-0.087 0.1611,-0.1117 0.0569,-0.0243 0.117,-0.0367 0.1805,-0.0367 0.1594,0 0.2793,0.0363 0.3605,0.1088 0.0807,0.0721 0.1211,0.1801 0.1211,0.3235 0,0.0263 -0.0037,0.0671 -0.0115,0.1223 -0.0074,0.0552 -0.0186,0.1191 -0.033,0.1912l-0.1162 0.6036 -0.3185 0 0.1352 -0.7013c0.0057,-0.0271 0.0099,-0.0548 0.0132,-0.0819 0.0033,-0.0276 0.0049,-0.054 0.0049,-0.08 0,-0.0696 -0.0177,-0.1232 -0.0531,-0.1598 -0.0355,-0.0367 -0.087,-0.0548 -0.1546,-0.0548 -0.0972,0 -0.1755,0.0329 -0.234,0.0988 -0.0589,0.066 -0.1017,0.1698 -0.1294,0.3115l-0.1363 0.6675 -0.3066 0 0.2691 -1.3279 0.2752 0zm1.6213 1.3279l0.3415 -1.7577 0.309 0 -0.1038 0.5241c0.0474,-0.0387 0.0973,-0.0675 0.1492,-0.0869 0.0519,-0.0194 0.1067,-0.0289 0.1648,-0.0289 0.1553,0 0.2731,0.0367 0.3535,0.1101 0.0803,0.0729 0.1207,0.1804 0.1207,0.3222 0,0.0263 -0.0037,0.0671 -0.0115,0.1223 -0.0074,0.0552 -0.0186,0.1191 -0.033,0.1912l-0.1162 0.6036 -0.3185 0 0.1352 -0.7013c0.0057,-0.0271 0.0099,-0.0548 0.0132,-0.0819 0.0033,-0.0276 0.0049,-0.054 0.0049,-0.08 0,-0.0696 -0.0177,-0.1232 -0.0531,-0.1598 -0.0355,-0.0367 -0.087,-0.0548 -0.1546,-0.0548 -0.0972,0 -0.1755,0.0329 -0.234,0.0988 -0.0589,0.066 -0.1017,0.1698 -0.1294,0.3115l-0.1289 0.6675 -0.309 0zm1.8297 -0.81l0.7219 0c-0.0227,-0.0833 -0.0647,-0.1479 -0.1269,-0.1941 -0.0618,-0.0461 -0.1385,-0.0692 -0.2291,-0.0692 -0.0828,0 -0.157,0.0231 -0.2217,0.0696 -0.0647,0.0466 -0.1129,0.1113 -0.1442,0.1937zm0.9732 0.3935c-0.0598,0.1454 -0.1475,0.2566 -0.2645,0.3345 -0.1166,0.0779 -0.2542,0.117 -0.4129,0.117 -0.1866,0 -0.3399,-0.0601 -0.4598,-0.1804 -0.1199,-0.1204 -0.18,-0.274 -0.18,-0.4607 0,-0.1116 0.0226,-0.2179 0.0675,-0.3181 0.045,-0.1001 0.1092,-0.1874 0.192,-0.2624 0.0635,-0.0573 0.1356,-0.1005 0.2159,-0.1306 0.0808,-0.0297 0.1669,-0.0445 0.2584,-0.0445 0.1891,0 0.3436,0.0593 0.4635,0.1784 0.1199,0.1186 0.18,0.2723 0.18,0.4598 0,0.0235 -0.0012,0.0494 -0.0037,0.0783 -0.0024,0.0284 -0.0061,0.0601 -0.0119,0.0947l-1.0502 0c0.0193,0.0969 0.058,0.1706 0.1157,0.2209 0.0581,0.0498 0.1335,0.075 0.2258,0.075 0.0664,0 0.1261,-0.0136 0.1797,-0.0404 0.0535,-0.0268 0.1013,-0.0672 0.1442,-0.1215l0.3403 0zm0.2258 0.4165l0.2027 -1.0502 -0.1784 0 0.054 -0.2777 0.1788 0 0.0807 -0.4149 0.3202 0 -0.08 0.4149 0.1908 0 -0.0519 0.2777 -0.1932 0 -0.2052 1.0502 -0.3185 0zm1.4437 0l0.3415 -1.7577 0.309 0 -0.1038 0.5241c0.0474,-0.0387 0.0973,-0.0675 0.1492,-0.0869 0.0519,-0.0194 0.1067,-0.0289 0.1648,-0.0289 0.1553,0 0.2731,0.0367 0.3535,0.1101 0.0803,0.0729 0.1207,0.1804 0.1207,0.3222 0,0.0263 -0.0037,0.0671 -0.0115,0.1223 -0.0074,0.0552 -0.0186,0.1191 -0.033,0.1912l-0.1162 0.6036 -0.3185 0 0.1352 -0.7013c0.0057,-0.0271 0.0099,-0.0548 0.0132,-0.0819 0.0033,-0.0276 0.0049,-0.054 0.0049,-0.08 0,-0.0696 -0.0177,-0.1232 -0.0531,-0.1598 -0.0355,-0.0367 -0.087,-0.0548 -0.1546,-0.0548 -0.0972,0 -0.1755,0.0329 -0.234,0.0988 -0.0589,0.066 -0.1017,0.1698 -0.1294,0.3115l-0.1289 0.6675 -0.309 0zm2.2125 -1.0778c-0.1175,0 -0.2159,0.0441 -0.2946,0.1326 -0.0787,0.0886 -0.1183,0.2003 -0.1183,0.3346 0,0.1038 0.0326,0.1891 0.0973,0.2559 0.0646,0.0667 0.1479,0.1001 0.2492,0.1001 0.1183,0 0.218,-0.0441 0.3,-0.1327 0.0816,-0.0886 0.1223,-0.1978 0.1223,-0.3271 0,-0.1096 -0.0325,-0.1974 -0.0976,-0.2637 -0.0651,-0.0664 -0.1512,-0.0997 -0.2583,-0.0997zm-0.7194 0.4717c0,-0.1149 0.0226,-0.2229 0.0676,-0.3238 0.0449,-0.101 0.11,-0.1891 0.1944,-0.2637 0.0643,-0.0573 0.1368,-0.1005 0.2172,-0.1298 0.0803,-0.0293 0.1668,-0.0441 0.2595,-0.0441 0.1883,0 0.3424,0.0598 0.4627,0.1797 0.1203,0.1199 0.1805,0.2735 0.1805,0.4614 0,0.1051 -0.0186,0.2052 -0.056,0.2996 -0.0375,0.0947 -0.0911,0.1788 -0.1611,0.2517 -0.066,0.0676 -0.1438,0.1195 -0.2337,0.1557 -0.0898,0.0363 -0.187,0.0544 -0.2913,0.0544 -0.187,0 -0.3403,-0.0601 -0.4602,-0.1804 -0.1199,-0.1204 -0.1796,-0.2736 -0.1796,-0.4607zm2.2175 -0.4717c-0.1175,0 -0.2159,0.0441 -0.2946,0.1326 -0.0787,0.0886 -0.1183,0.2003 -0.1183,0.3346 0,0.1038 0.0326,0.1891 0.0973,0.2559 0.0646,0.0667 0.1479,0.1001 0.2492,0.1001 0.1183,0 0.218,-0.0441 0.3,-0.1327 0.0816,-0.0886 0.1223,-0.1978 0.1223,-0.3271 0,-0.1096 -0.0325,-0.1974 -0.0976,-0.2637 -0.0651,-0.0664 -0.1512,-0.0997 -0.2583,-0.0997zm-0.7194 0.4717c0,-0.1149 0.0226,-0.2229 0.0676,-0.3238 0.0449,-0.101 0.11,-0.1891 0.1944,-0.2637 0.0643,-0.0573 0.1368,-0.1005 0.2172,-0.1298 0.0803,-0.0293 0.1668,-0.0441 0.2595,-0.0441 0.1883,0 0.3424,0.0598 0.4627,0.1797 0.1203,0.1199 0.1805,0.2735 0.1805,0.4614 0,0.1051 -0.0186,0.2052 -0.056,0.2996 -0.0375,0.0947 -0.0911,0.1788 -0.1611,0.2517 -0.066,0.0676 -0.1438,0.1195 -0.2337,0.1557 -0.0898,0.0363 -0.187,0.0544 -0.2913,0.0544 -0.187,0 -0.3403,-0.0601 -0.4602,-0.1804 -0.1199,-0.1204 -0.1796,-0.2736 -0.1796,-0.4607zm1.5199 0.6061l0.2027 -1.0478 -0.192 0 0.0544 -0.2777 0.192 0c0.0243,-0.1569 0.0783,-0.2715 0.1628,-0.3436 0.0848,-0.0725 0.2076,-0.1088 0.3695,-0.1088 0.0227,0 0.059,0.0017 0.1101,0.005l0.0082 0.0012 -0.0544 0.2835c-0.0016,0 -0.0041,0 -0.007,0 -0.0379,-0.0033 -0.0647,-0.0049 -0.0799,-0.0049 -0.0659,0 -0.1137,0.0123 -0.1434,0.0374 -0.0301,0.0248 -0.0494,0.0684 -0.0593,0.1302l0.2002 0 -0.054 0.2777 -0.2006 0 -0.2052 1.0478 -0.3041 0zm1.7309 0l0.0169 -0.0919c-0.0457,0.0429 -0.0968,0.0746 -0.1533,0.0956 -0.0564,0.021 -0.119,0.0313 -0.1883,0.0313 -0.1833,0 -0.3324,-0.0601 -0.4466,-0.1804 -0.1141,-0.1204 -0.1714,-0.2777 -0.1714,-0.4726 0,-0.082 0.0124,-0.1607 0.0367,-0.2353 0.0247,-0.075 0.0618,-0.1475 0.1116,-0.2175 0.0668,-0.0923 0.1492,-0.1632 0.2473,-0.2122 0.0976,-0.049 0.2047,-0.0738 0.3213,-0.0738 0.0886,0 0.1702,0.0169 0.2452,0.0507 0.075,0.0338 0.1409,0.0836 0.1982,0.1496l0.1133 -0.6012 0.3115 0 -0.3379 1.7577 -0.3045 0zm-0.2126 -1.0778c-0.1149,0 -0.2142,0.0445 -0.2979,0.1335 -0.0836,0.089 -0.1256,0.1961 -0.1256,0.3213 0,0.1105 0.0321,0.1994 0.096,0.267 0.0638,0.0676 0.1483,0.1014 0.2529,0.1014 0.1166,0 0.2155,-0.0445 0.2963,-0.1335 0.0807,-0.089 0.1215,-0.1986 0.1215,-0.3288 0,-0.1055 -0.0325,-0.192 -0.0972,-0.2596 -0.0647,-0.0676 -0.1467,-0.1013 -0.246,-0.1013zm1.8961 0.2678l0.7219 0c-0.0227,-0.0833 -0.0647,-0.1479 -0.1269,-0.1941 -0.0618,-0.0461 -0.1385,-0.0692 -0.2291,-0.0692 -0.0828,0 -0.157,0.0231 -0.2217,0.0696 -0.0647,0.0466 -0.1129,0.1113 -0.1442,0.1937zm0.9732 0.3935c-0.0598,0.1454 -0.1475,0.2566 -0.2645,0.3345 -0.1166,0.0779 -0.2542,0.117 -0.4129,0.117 -0.1866,0 -0.3399,-0.0601 -0.4598,-0.1804 -0.1199,-0.1204 -0.18,-0.274 -0.18,-0.4607 0,-0.1116 0.0226,-0.2179 0.0675,-0.3181 0.045,-0.1001 0.1092,-0.1874 0.192,-0.2624 0.0635,-0.0573 0.1356,-0.1005 0.2159,-0.1306 0.0808,-0.0297 0.1669,-0.0445 0.2584,-0.0445 0.1891,0 0.3436,0.0593 0.4635,0.1784 0.1199,0.1186 0.18,0.2723 0.18,0.4598 0,0.0235 -0.0012,0.0494 -0.0037,0.0783 -0.0024,0.0284 -0.0061,0.0601 -0.0119,0.0947l-1.0502 0c0.0193,0.0969 0.058,0.1706 0.1157,0.2209 0.0581,0.0498 0.1335,0.075 0.2258,0.075 0.0664,0 0.1261,-0.0136 0.1797,-0.0404 0.0535,-0.0268 0.1013,-0.0672 0.1442,-0.1215l0.3403 0zm0.6757 -0.9114l-0.0276 0.1269c0.0507,-0.0499 0.1042,-0.087 0.1611,-0.1117 0.0569,-0.0243 0.117,-0.0367 0.1805,-0.0367 0.1594,0 0.2793,0.0363 0.3605,0.1088 0.0807,0.0721 0.1211,0.1801 0.1211,0.3235 0,0.0263 -0.0037,0.0671 -0.0115,0.1223 -0.0074,0.0552 -0.0186,0.1191 -0.033,0.1912l-0.1162 0.6036 -0.3185 0 0.1352 -0.7013c0.0057,-0.0271 0.0099,-0.0548 0.0132,-0.0819 0.0033,-0.0276 0.0049,-0.054 0.0049,-0.08 0,-0.0696 -0.0177,-0.1232 -0.0531,-0.1598 -0.0355,-0.0367 -0.087,-0.0548 -0.1546,-0.0548 -0.0972,0 -0.1755,0.0329 -0.234,0.0988 -0.0589,0.066 -0.1017,0.1698 -0.1294,0.3115l-0.1363 0.6675 -0.3066 0 0.2691 -1.3279 0.2752 0zm1.6213 1.3279l0.3415 -1.7577 0.309 0 -0.1038 0.5241c0.0474,-0.0387 0.0973,-0.0675 0.1492,-0.0869 0.0519,-0.0194 0.1067,-0.0289 0.1648,-0.0289 0.1553,0 0.2731,0.0367 0.3535,0.1101 0.0803,0.0729 0.1207,0.1804 0.1207,0.3222 0,0.0263 -0.0037,0.0671 -0.0115,0.1223 -0.0074,0.0552 -0.0186,0.1191 -0.033,0.1912l-0.1162 0.6036 -0.3185 0 0.1352 -0.7013c0.0057,-0.0271 0.0099,-0.0548 0.0132,-0.0819 0.0033,-0.0276 0.0049,-0.054 0.0049,-0.08 0,-0.0696 -0.0177,-0.1232 -0.0531,-0.1598 -0.0355,-0.0367 -0.087,-0.0548 -0.1546,-0.0548 -0.0972,0 -0.1755,0.0329 -0.234,0.0988 -0.0589,0.066 -0.1017,0.1698 -0.1294,0.3115l-0.1289 0.6675 -0.309 0zm1.8297 -0.81l0.7219 0c-0.0227,-0.0833 -0.0647,-0.1479 -0.1269,-0.1941 -0.0618,-0.0461 -0.1385,-0.0692 -0.2291,-0.0692 -0.0828,0 -0.157,0.0231 -0.2217,0.0696 -0.0647,0.0466 -0.1129,0.1113 -0.1442,0.1937zm0.9732 0.3935c-0.0598,0.1454 -0.1475,0.2566 -0.2645,0.3345 -0.1166,0.0779 -0.2542,0.117 -0.4129,0.117 -0.1866,0 -0.3399,-0.0601 -0.4598,-0.1804 -0.1199,-0.1204 -0.18,-0.274 -0.18,-0.4607 0,-0.1116 0.0226,-0.2179 0.0675,-0.3181 0.045,-0.1001 0.1092,-0.1874 0.192,-0.2624 0.0635,-0.0573 0.1356,-0.1005 0.2159,-0.1306 0.0808,-0.0297 0.1669,-0.0445 0.2584,-0.0445 0.1891,0 0.3436,0.0593 0.4635,0.1784 0.1199,0.1186 0.18,0.2723 0.18,0.4598 0,0.0235 -0.0012,0.0494 -0.0037,0.0783 -0.0024,0.0284 -0.0061,0.0601 -0.0119,0.0947l-1.0502 0c0.0193,0.0969 0.058,0.1706 0.1157,0.2209 0.0581,0.0498 0.1335,0.075 0.2258,0.075 0.0664,0 0.1261,-0.0136 0.1797,-0.0404 0.0535,-0.0268 0.1013,-0.0672 0.1442,-0.1215l0.3403 0zm0.2258 0.4165l0.2027 -1.0502 -0.1784 0 0.054 -0.2777 0.1788 0 0.0807 -0.4149 0.3202 0 -0.08 0.4149 0.1908 0 -0.0519 0.2777 -0.1932 0 -0.2052 1.0502 -0.3185 0zm1.4437 0l0.3415 -1.7577 0.309 0 -0.1038 0.5241c0.0474,-0.0387 0.0973,-0.0675 0.1492,-0.0869 0.0519,-0.0194 0.1067,-0.0289 0.1648,-0.0289 0.1553,0 0.2731,0.0367 0.3535,0.1101 0.0803,0.0729 0.1207,0.1804 0.1207,0.3222 0,0.0263 -0.0037,0.0671 -0.0115,0.1223 -0.0074,0.0552 -0.0186,0.1191 -0.033,0.1912l-0.1162 0.6036 -0.3185 0 0.1352 -0.7013c0.0057,-0.0271 0.0099,-0.0548 0.0132,-0.0819 0.0033,-0.0276 0.0049,-0.054 0.0049,-0.08 0,-0.0696 -0.0177,-0.1232 -0.0531,-0.1598 -0.0355,-0.0367 -0.087,-0.0548 -0.1546,-0.0548 -0.0972,0 -0.1755,0.0329 -0.234,0.0988 -0.0589,0.066 -0.1017,0.1698 -0.1294,0.3115l-0.1289 0.6675 -0.309 0zm2.4576 0l0.0169 -0.0919c-0.0457,0.0429 -0.0968,0.0746 -0.1533,0.0956 -0.0564,0.021 -0.119,0.0313 -0.1883,0.0313 -0.1833,0 -0.3324,-0.0601 -0.4466,-0.1804 -0.1141,-0.1204 -0.1714,-0.2777 -0.1714,-0.4726 0,-0.082 0.0124,-0.1607 0.0367,-0.2353 0.0247,-0.075 0.0618,-0.1475 0.1116,-0.2175 0.0668,-0.0923 0.1492,-0.1632 0.2468,-0.2122 0.0981,-0.049 0.2052,-0.0738 0.3218,-0.0738 0.0886,0 0.1702,0.0169 0.2452,0.0507 0.0746,0.0338 0.1409,0.0836 0.1978,0.1496l0.0325 -0.1714 0.3164 0 -0.2645 1.3279 -0.3016 0zm-0.2126 -1.0778c-0.1149,0 -0.2142,0.0445 -0.2979,0.1335 -0.0836,0.089 -0.1256,0.1961 -0.1256,0.3213 0,0.1105 0.0321,0.1994 0.096,0.267 0.0638,0.0676 0.1483,0.1014 0.2529,0.1014 0.1166,0 0.2155,-0.0445 0.2963,-0.1335 0.0807,-0.089 0.1211,-0.1986 0.1211,-0.3288 0,-0.1055 -0.0321,-0.192 -0.0968,-0.2596 -0.0651,-0.0676 -0.1467,-0.1013 -0.246,-0.1013zm0.7931 1.0778l0.2571 -1.3279 0.2827 0 -0.0351 0.1763c0.0565,-0.0737 0.1212,-0.1285 0.1949,-0.1636 0.0738,-0.035 0.1603,-0.0523 0.2604,-0.0523l0.0095 0 -0.0593 0.3115c-0.1422,0.0025 -0.2468,0.0313 -0.3136,0.0861 -0.0671,0.0552 -0.1149,0.1553 -0.1438,0.3l-0.1318 0.6699 -0.321 0zm1.0284 0l0.2027 -1.0502 -0.1784 0 0.054 -0.2777 0.1788 0 0.0807 -0.4149 0.3202 0 -0.08 0.4149 0.1908 0 -0.0519 0.2777 -0.1932 0 -0.2052 1.0502 -0.3185 0zm1.8322 -0.81l0.7219 0c-0.0227,-0.0833 -0.0647,-0.1479 -0.1269,-0.1941 -0.0618,-0.0461 -0.1385,-0.0692 -0.2291,-0.0692 -0.0828,0 -0.157,0.0231 -0.2217,0.0696 -0.0647,0.0466 -0.1129,0.1113 -0.1442,0.1937zm0.9732 0.3935c-0.0598,0.1454 -0.1475,0.2566 -0.2645,0.3345 -0.1166,0.0779 -0.2542,0.117 -0.4129,0.117 -0.1866,0 -0.3399,-0.0601 -0.4598,-0.1804 -0.1199,-0.1204 -0.18,-0.274 -0.18,-0.4607 0,-0.1116 0.0226,-0.2179 0.0675,-0.3181 0.045,-0.1001 0.1092,-0.1874 0.192,-0.2624 0.0635,-0.0573 0.1356,-0.1005 0.2159,-0.1306 0.0808,-0.0297 0.1669,-0.0445 0.2584,-0.0445 0.1891,0 0.3436,0.0593 0.4635,0.1784 0.1199,0.1186 0.18,0.2723 0.18,0.4598 0,0.0235 -0.0012,0.0494 -0.0037,0.0783 -0.0024,0.0284 -0.0061,0.0601 -0.0119,0.0947l-1.0502 0c0.0193,0.0969 0.058,0.1706 0.1157,0.2209 0.0581,0.0498 0.1335,0.075 0.2258,0.075 0.0664,0 0.1261,-0.0136 0.1797,-0.0404 0.0535,-0.0268 0.1013,-0.0672 0.1442,-0.1215l0.3403 0zm-0.5579 -1.0841l-0.1582 0 0.2666 -0.4223 0.2571 0 -0.3655 0.4223zm1.2336 0.1727l-0.0276 0.1269c0.0507,-0.0499 0.1042,-0.087 0.1611,-0.1117 0.0569,-0.0243 0.117,-0.0367 0.1805,-0.0367 0.1594,0 0.2793,0.0363 0.3605,0.1088 0.0807,0.0721 0.1211,0.1801 0.1211,0.3235 0,0.0263 -0.0037,0.0671 -0.0115,0.1223 -0.0074,0.0552 -0.0186,0.1191 -0.033,0.1912l-0.1162 0.6036 -0.3185 0 0.1352 -0.7013c0.0057,-0.0271 0.0099,-0.0548 0.0132,-0.0819 0.0033,-0.0276 0.0049,-0.054 0.0049,-0.08 0,-0.0696 -0.0177,-0.1232 -0.0531,-0.1598 -0.0355,-0.0367 -0.087,-0.0548 -0.1546,-0.0548 -0.0972,0 -0.1755,0.0329 -0.234,0.0988 -0.0589,0.066 -0.1017,0.1698 -0.1294,0.3115l-0.1363 0.6675 -0.3066 0 0.2691 -1.3279 0.2752 0zm1.6213 1.3279l0.2571 -1.3279 0.3065 0 -0.2571 1.3279 -0.3065 0zm0.2847 -1.468l0.0568 -0.2897 0.3066 0 -0.0569 0.2897 -0.3065 0zm0.8327 0.1401l-0.0276 0.1269c0.0507,-0.0499 0.1042,-0.087 0.1611,-0.1117 0.0569,-0.0243 0.117,-0.0367 0.1805,-0.0367 0.1594,0 0.2793,0.0363 0.3605,0.1088 0.0807,0.0721 0.1211,0.1801 0.1211,0.3235 0,0.0263 -0.0037,0.0671 -0.0115,0.1223 -0.0074,0.0552 -0.0186,0.1191 -0.033,0.1912l-0.1162 0.6036 -0.3185 0 0.1352 -0.7013c0.0057,-0.0271 0.0099,-0.0548 0.0132,-0.0819 0.0033,-0.0276 0.0049,-0.054 0.0049,-0.08 0,-0.0696 -0.0177,-0.1232 -0.0531,-0.1598 -0.0355,-0.0367 -0.087,-0.0548 -0.1546,-0.0548 -0.0972,0 -0.1755,0.0329 -0.234,0.0988 -0.0589,0.066 -0.1017,0.1698 -0.1294,0.3115l-0.1363 0.6675 -0.3066 0 0.2691 -1.3279 0.2752 0zm2.6377 1.3279l0.0169 -0.0919c-0.0457,0.0429 -0.0968,0.0746 -0.1533,0.0956 -0.0564,0.021 -0.119,0.0313 -0.1883,0.0313 -0.1833,0 -0.3324,-0.0601 -0.4466,-0.1804 -0.1141,-0.1204 -0.1714,-0.2777 -0.1714,-0.4726 0,-0.082 0.0124,-0.1607 0.0367,-0.2353 0.0247,-0.075 0.0618,-0.1475 0.1116,-0.2175 0.0668,-0.0923 0.1492,-0.1632 0.2473,-0.2122 0.0976,-0.049 0.2047,-0.0738 0.3213,-0.0738 0.0886,0 0.1702,0.0169 0.2452,0.0507 0.075,0.0338 0.1409,0.0836 0.1982,0.1496l0.1133 -0.6012 0.3115 0 -0.3379 1.7577 -0.3045 0zm-0.2126 -1.0778c-0.1149,0 -0.2142,0.0445 -0.2979,0.1335 -0.0836,0.089 -0.1256,0.1961 -0.1256,0.3213 0,0.1105 0.0321,0.1994 0.096,0.267 0.0638,0.0676 0.1483,0.1014 0.2529,0.1014 0.1166,0 0.2155,-0.0445 0.2963,-0.1335 0.0807,-0.089 0.1215,-0.1986 0.1215,-0.3288 0,-0.1055 -0.0325,-0.192 -0.0972,-0.2596 -0.0647,-0.0676 -0.1467,-0.1013 -0.246,-0.1013zm1.1767 0.2678l0.7219 0c-0.0227,-0.0833 -0.0647,-0.1479 -0.1269,-0.1941 -0.0618,-0.0461 -0.1385,-0.0692 -0.2291,-0.0692 -0.0828,0 -0.157,0.0231 -0.2217,0.0696 -0.0647,0.0466 -0.1129,0.1113 -0.1442,0.1937zm0.9732 0.3935c-0.0598,0.1454 -0.1475,0.2566 -0.2645,0.3345 -0.1166,0.0779 -0.2542,0.117 -0.4129,0.117 -0.1866,0 -0.3399,-0.0601 -0.4598,-0.1804 -0.1199,-0.1204 -0.18,-0.274 -0.18,-0.4607 0,-0.1116 0.0226,-0.2179 0.0675,-0.3181 0.045,-0.1001 0.1092,-0.1874 0.192,-0.2624 0.0635,-0.0573 0.1356,-0.1005 0.2159,-0.1306 0.0808,-0.0297 0.1669,-0.0445 0.2584,-0.0445 0.1891,0 0.3436,0.0593 0.4635,0.1784 0.1199,0.1186 0.18,0.2723 0.18,0.4598 0,0.0235 -0.0012,0.0494 -0.0037,0.0783 -0.0024,0.0284 -0.0061,0.0601 -0.0119,0.0947l-1.0502 0c0.0193,0.0969 0.058,0.1706 0.1157,0.2209 0.0581,0.0498 0.1335,0.075 0.2258,0.075 0.0664,0 0.1261,-0.0136 0.1797,-0.0404 0.0535,-0.0268 0.1013,-0.0672 0.1442,-0.1215l0.3403 0zm0.8834 -0.0206l0.3139 0 0 0.0074c0,0.0576 0.0136,0.1026 0.0404,0.1343 0.0272,0.0317 0.0647,0.0478 0.1129,0.0478 0.0379,0 0.0692,-0.012 0.0939,-0.0355 0.0244,-0.0239 0.0367,-0.0539 0.0367,-0.0902 0,-0.0297 -0.0095,-0.0568 -0.0288,-0.0812 -0.0194,-0.0247 -0.0528,-0.0519 -0.0993,-0.0815 -0.0252,-0.0169 -0.0594,-0.0388 -0.1026,-0.0651 -0.0795,-0.0499 -0.1282,-0.0845 -0.145,-0.1039 -0.033,-0.037 -0.0569,-0.0745 -0.0717,-0.1124 -0.0149,-0.0375 -0.0223,-0.0783 -0.0223,-0.1216 0,-0.1186 0.0433,-0.2175 0.1294,-0.2979 0.0861,-0.0799 0.1936,-0.1199 0.3234,-0.1199 0.1232,0 0.2233,0.0367 0.3,0.11 0.077,0.073 0.1153,0.169 0.1153,0.2872l0 0.0206 -0.3139 -0.0012c-0.0017,-0.0491 -0.0124,-0.0865 -0.0322,-0.1121 -0.0197,-0.0251 -0.0478,-0.0379 -0.084,-0.0379 -0.033,0 -0.061,0.0107 -0.0845,0.0321 -0.0235,0.0211 -0.035,0.047 -0.035,0.0767 0,0.0465 0.0519,0.1017 0.1562,0.1656 0.0169,0.0103 0.0304,0.0185 0.0407,0.0251 0.1047,0.0651 0.178,0.1265 0.2192,0.1834 0.0417,0.0573 0.0623,0.1228 0.0623,0.1969 0,0.1273 -0.0437,0.2332 -0.1315,0.3181 -0.0877,0.0849 -0.1982,0.1273 -0.3308,0.1273 -0.1442,0 -0.258,-0.0379 -0.3408,-0.1141 -0.0828,-0.0762 -0.1244,-0.1801 -0.1244,-0.3123 0,-0.0037 0.0004,-0.0111 0.0012,-0.0214 0.0009,-0.0108 0.0013,-0.0186 0.0013,-0.0243zm1.1495 0.4371l0.2027 -1.0502 -0.1784 0 0.054 -0.2777 0.1788 0 0.0807 -0.4149 0.3202 0 -0.08 0.4149 0.1908 0 -0.0519 0.2777 -0.1932 0 -0.2052 1.0502 -0.3185 0zm0.7292 0l0.2571 -1.3279 0.2827 0 -0.0351 0.1763c0.0565,-0.0737 0.1212,-0.1285 0.1949,-0.1636 0.0738,-0.035 0.1603,-0.0523 0.2604,-0.0523l0.0095 0 -0.0593 0.3115c-0.1422,0.0025 -0.2468,0.0313 -0.3136,0.0861 -0.0671,0.0552 -0.1149,0.1553 -0.1438,0.3l-0.1318 0.6699 -0.321 0zm1.9554 0l0.0169 -0.0919c-0.0457,0.0429 -0.0968,0.0746 -0.1533,0.0956 -0.0564,0.021 -0.119,0.0313 -0.1883,0.0313 -0.1833,0 -0.3324,-0.0601 -0.4466,-0.1804 -0.1141,-0.1204 -0.1714,-0.2777 -0.1714,-0.4726 0,-0.082 0.0124,-0.1607 0.0367,-0.2353 0.0247,-0.075 0.0618,-0.1475 0.1116,-0.2175 0.0668,-0.0923 0.1492,-0.1632 0.2468,-0.2122 0.0981,-0.049 0.2052,-0.0738 0.3218,-0.0738 0.0886,0 0.1702,0.0169 0.2452,0.0507 0.0746,0.0338 0.1409,0.0836 0.1978,0.1496l0.0325 -0.1714 0.3164 0 -0.2645 1.3279 -0.3016 0zm-0.2126 -1.0778c-0.1149,0 -0.2142,0.0445 -0.2979,0.1335 -0.0836,0.089 -0.1256,0.1961 -0.1256,0.3213 0,0.1105 0.0321,0.1994 0.096,0.267 0.0638,0.0676 0.1483,0.1014 0.2529,0.1014 0.1166,0 0.2155,-0.0445 0.2963,-0.1335 0.0807,-0.089 0.1211,-0.1986 0.1211,-0.3288 0,-0.1055 -0.0321,-0.192 -0.0968,-0.2596 -0.0651,-0.0676 -0.1467,-0.1013 -0.246,-0.1013zm0.8776 1.0778l0.2027 -1.0502 -0.1784 0 0.054 -0.2777 0.1788 0 0.0807 -0.4149 0.3202 0 -0.08 0.4149 0.1908 0 -0.0519 0.2777 -0.1932 0 -0.2052 1.0502 -0.3185 0zm1.1128 -0.81l0.7219 0c-0.0227,-0.0833 -0.0647,-0.1479 -0.1269,-0.1941 -0.0618,-0.0461 -0.1385,-0.0692 -0.2291,-0.0692 -0.0828,0 -0.157,0.0231 -0.2217,0.0696 -0.0647,0.0466 -0.1129,0.1113 -0.1442,0.1937zm0.9732 0.3935c-0.0598,0.1454 -0.1475,0.2566 -0.2645,0.3345 -0.1166,0.0779 -0.2542,0.117 -0.4129,0.117 -0.1866,0 -0.3399,-0.0601 -0.4598,-0.1804 -0.1199,-0.1204 -0.18,-0.274 -0.18,-0.4607 0,-0.1116 0.0226,-0.2179 0.0675,-0.3181 0.045,-0.1001 0.1092,-0.1874 0.192,-0.2624 0.0635,-0.0573 0.1356,-0.1005 0.2159,-0.1306 0.0808,-0.0297 0.1669,-0.0445 0.2584,-0.0445 0.1891,0 0.3436,0.0593 0.4635,0.1784 0.1199,0.1186 0.18,0.2723 0.18,0.4598 0,0.0235 -0.0012,0.0494 -0.0037,0.0783 -0.0024,0.0284 -0.0061,0.0601 -0.0119,0.0947l-1.0502 0c0.0193,0.0969 0.058,0.1706 0.1157,0.2209 0.0581,0.0498 0.1335,0.075 0.2258,0.075 0.0664,0 0.1261,-0.0136 0.1797,-0.0404 0.0535,-0.0268 0.1013,-0.0672 0.1442,-0.1215l0.3403 0zm0.6757 -0.9114l-0.0276 0.1269c0.0507,-0.0499 0.1042,-0.087 0.1611,-0.1117 0.0569,-0.0243 0.117,-0.0367 0.1805,-0.0367 0.1594,0 0.2793,0.0363 0.3605,0.1088 0.0807,0.0721 0.1211,0.1801 0.1211,0.3235 0,0.0263 -0.0037,0.0671 -0.0115,0.1223 -0.0074,0.0552 -0.0186,0.1191 -0.033,0.1912l-0.1162 0.6036 -0.3185 0 0.1352 -0.7013c0.0057,-0.0271 0.0099,-0.0548 0.0132,-0.0819 0.0033,-0.0276 0.0049,-0.054 0.0049,-0.08 0,-0.0696 -0.0177,-0.1232 -0.0531,-0.1598 -0.0355,-0.0367 -0.087,-0.0548 -0.1546,-0.0548 -0.0972,0 -0.1755,0.0329 -0.234,0.0988 -0.0589,0.066 -0.1017,0.1698 -0.1294,0.3115l-0.1363 0.6675 -0.3066 0 0.2691 -1.3279 0.2752 0zm2.0811 0.8701l-0.309 0 0.2521 -1.2999 0.309 0 -0.2521 1.2999zm-0.0894 0.4578l-0.309 0 0.0638 -0.3308 0.309 0 -0.0638 0.3308z"/>
  </g>
  <path class="fil1" d="M40.8298 15.6302l-0.842 0 0.0225 -0.1078 0.3894 -0.3393c0.0145,-0.0127 0.0358,-0.0313 0.0643,-0.0554 0.2438,-0.2107 0.3658,-0.3757 0.3658,-0.4953 0,-0.0686 -0.021,-0.1236 -0.0633,-0.1647 -0.0424,-0.0411 -0.0992,-0.0615 -0.1703,-0.0615 -0.0871,0 -0.157,0.0278 -0.2101,0.0837 -0.0532,0.056 -0.0893,0.14 -0.1088,0.2522l-0.1248 0c0.0151,-0.1443 0.0602,-0.2565 0.1356,-0.3365 0.0757,-0.0801 0.174,-0.1199 0.2954,-0.1199 0.1079,0 0.1966,0.0337 0.2661,0.101 0.0695,0.0671 0.1041,0.1521 0.1041,0.2546 0,0.077 -0.0231,0.1515 -0.0698,0.2238 -0.0463,0.0726 -0.1412,0.1718 -0.2843,0.2979l-0.41 0.3594 0.66 0 -0.0198 0.1078zm0.3276 -0.9159c0.0278,-0.1419 0.081,-0.2491 0.1598,-0.3214 0.0788,-0.0726 0.1817,-0.1088 0.3093,-0.1088 0.1304,0 0.233,0.0331 0.3081,0.0992 0.0751,0.0661 0.1128,0.1555 0.1128,0.2682 0,0.0195 -0.0012,0.0415 -0.004,0.0659 -0.0028,0.0244 -0.0068,0.0503 -0.0124,0.0781l-0.085 0.4327c-0.029,0.1424 -0.0825,0.2497 -0.161,0.322 -0.0785,0.072 -0.181,0.1081 -0.3077,0.1081 -0.1335,0 -0.2368,-0.033 -0.3097,-0.0992 -0.0732,-0.0661 -0.1097,-0.1591 -0.1097,-0.2793 0,-0.0198 0.0013,-0.0402 0.0037,-0.0615 0.0025,-0.021 0.0059,-0.0442 0.0108,-0.0695l0.085 -0.4345zm0.6638 0.495l0.084 -0.4264c0.0062,-0.0312 0.0109,-0.0581 0.0136,-0.0801 0.0031,-0.0219 0.0047,-0.0417 0.0047,-0.0593 0,-0.0711 -0.0266,-0.1289 -0.0801,-0.1727 -0.0534,-0.0442 -0.1242,-0.0662 -0.2126,-0.0662 -0.1026,0 -0.1804,0.0248 -0.2336,0.0742 -0.0528,0.0494 -0.0914,0.1344 -0.1149,0.2543l-0.0841 0.4283c-0.0055,0.0281 -0.0096,0.0538 -0.0123,0.0763 -0.0028,0.0226 -0.0041,0.0433 -0.0041,0.0622 0,0.0717 0.0263,0.1294 0.0791,0.1727 0.0529,0.0436 0.1233,0.0652 0.2117,0.0652 0.1032,0 0.1811,-0.0247 0.2339,-0.0739 0.0529,-0.0491 0.0912,-0.1341 0.1147,-0.2546zm0.8473 0.4209l-0.1257 0 0.2135 -1.1091 -0.4082 0.4435 -0.0905 -0.0779 0.5278 -0.5748 0.1393 0 -0.2562 1.3183zm0.6141 -0.3909l0 0.0235c0,0.0813 0.0284,0.1477 0.085,0.1987 0.0568,0.051 0.1304,0.0763 0.2209,0.0763 0.1079,0 0.1944,-0.0362 0.2596,-0.1082 0.0652,-0.072 0.0976,-0.1684 0.0976,-0.2892 0,-0.0862 -0.0278,-0.1554 -0.0837,-0.208 -0.0556,-0.0525 -0.1298,-0.0788 -0.2222,-0.0788 -0.0615,0 -0.1162,0.0118 -0.1641,0.035 -0.0479,0.0231 -0.0893,0.0587 -0.1242,0.1063l-0.1026 -0.0353 0.2355 -0.6477 0.6344 0 -0.03 0.1168 -0.5148 0 -0.1248 0.3597c0.0445,-0.0188 0.0852,-0.0327 0.122,-0.0417 0.0368,-0.0089 0.0711,-0.0136 0.1023,-0.0136 0.1184,0 0.2135,0.0387 0.2862,0.1162 0.0723,0.0776 0.1084,0.1799 0.1084,0.3066 0,0.1477 -0.0442,0.2682 -0.1322,0.3612 -0.0881,0.093 -0.2028,0.1394 -0.344,0.1394 -0.135,0 -0.2407,-0.0362 -0.317,-0.1082 -0.0764,-0.072 -0.1147,-0.1721 -0.1147,-0.3l0 -0.009 0.1224 0zm1.9382 -0.1669l-0.0225 0.1205 -0.4265 0 0.0226 -0.1205 0.4264 0zm0.5977 0.183l0.1285 0.0009c-0.0006,0.0037 -0.0009,0.0077 -0.0012,0.012 -0.0003,0.0047 -0.0006,0.0115 -0.0006,0.0204 0,0.0754 0.0228,0.1357 0.0683,0.1802 0.0457,0.0448 0.1072,0.067 0.1845,0.067 0.0754,0 0.1384,-0.0253 0.1891,-0.0757 0.0507,-0.0503 0.076,-0.1121 0.076,-0.186 0,-0.0516 -0.013,-0.0961 -0.0389,-0.1335 -0.026,-0.0371 -0.0767,-0.0785 -0.1521,-0.1242 -0.0114,-0.0068 -0.0293,-0.017 -0.0544,-0.0309 -0.0887,-0.0488 -0.1529,-0.0949 -0.1928,-0.1375 -0.0241,-0.0272 -0.0423,-0.0575 -0.0547,-0.0906 -0.0124,-0.0333 -0.0185,-0.0686 -0.0185,-0.106 0,-0.0995 0.037,-0.1847 0.1109,-0.2558 0.0739,-0.0708 0.1635,-0.1063 0.2682,-0.1063 0.1014,0 0.1833,0.0306 0.2451,0.0914 0.0618,0.0609 0.0927,0.1413 0.0927,0.2411 0,0.0126 0,0.0222 -0.0003,0.0287 -0.0003,0.0068 -0.001,0.0124 -0.0016,0.0173l-0.1294 0c0,-0.0037 0.0003,-0.0089 0.0009,-0.0157 0.0006,-0.0071 0.0009,-0.0124 0.0009,-0.0161 0,-0.0742 -0.0185,-0.131 -0.0556,-0.1706 -0.0371,-0.0395 -0.0902,-0.0593 -0.1598,-0.0593 -0.068,0 -0.1245,0.0213 -0.1696,0.064 -0.0448,0.0423 -0.0674,0.0954 -0.0674,0.1588 0,0.0862 0.0785,0.1737 0.2352,0.2623 0.029,0.0164 0.0513,0.0291 0.067,0.0384 0.0705,0.0401 0.1239,0.0886 0.1601,0.1452 0.0362,0.0562 0.0544,0.1199 0.0544,0.1904 0,0.1081 -0.0405,0.2005 -0.1218,0.2774 -0.0812,0.077 -0.1795,0.1156 -0.2948,0.1156 -0.1134,0 -0.2036,-0.0327 -0.2707,-0.0982 -0.067,-0.0656 -0.1004,-0.1536 -0.1004,-0.2639 0,-0.0109 0.0003,-0.0192 0.0006,-0.0251 0.0003,-0.0055 0.0009,-0.0108 0.0022,-0.0157zm1.9363 0.0244c-0.0442,0.122 -0.1113,0.2154 -0.2018,0.2806 -0.0906,0.0652 -0.1981,0.0979 -0.3223,0.0979 -0.1419,0 -0.2577,-0.0451 -0.3477,-0.1353 -0.0899,-0.0903 -0.135,-0.2061 -0.135,-0.3474 0,-0.0849 0.0167,-0.1653 0.0497,-0.2407 0.0334,-0.0754 0.081,-0.1409 0.1431,-0.1965 0.0482,-0.0436 0.1029,-0.0763 0.1638,-0.0983 0.0612,-0.0219 0.127,-0.0331 0.1984,-0.0331 0.1261,0 0.2308,0.0347 0.3146,0.1036 0.0834,0.0692 0.1369,0.1662 0.1597,0.2911l-0.1341 0c-0.0133,-0.0875 -0.0507,-0.1564 -0.1118,-0.2068 -0.0612,-0.0503 -0.1379,-0.0757 -0.2303,-0.0757 -0.1202,0 -0.2203,0.043 -0.3003,0.1292 -0.0804,0.0859 -0.1205,0.1931 -0.1205,0.322 0,0.1134 0.0321,0.2046 0.0961,0.2735 0.0639,0.0689 0.1486,0.1032 0.2543,0.1032 0.0874,0 0.1644,-0.0229 0.2302,-0.0689 0.0661,-0.0458 0.1174,-0.1119 0.1536,-0.1984l0.1403 0zm0.4437 -0.9679l-0.0834 0.4175c0.0507,-0.038 0.1007,-0.0664 0.1502,-0.085 0.0497,-0.0188 0.0989,-0.0281 0.1477,-0.0281 0.1075,0 0.1947,0.0303 0.2617,0.0906 0.0671,0.0602 0.1005,0.1387 0.1005,0.2354 0,0.0368 -0.0022,0.0751 -0.0068,0.1153 -0.0047,0.0402 -0.0112,0.08 -0.0195,0.1199l-0.0905 0.4527 -0.1233 0 0.1022 -0.5096c0.0056,-0.0272 0.0096,-0.0528 0.0124,-0.0769 0.0028,-0.0241 0.0043,-0.0476 0.0049,-0.0699 0,-0.076 -0.021,-0.135 -0.0633,-0.1773 -0.0423,-0.0424 -0.1011,-0.0634 -0.1765,-0.0634 -0.1001,0 -0.1804,0.0297 -0.2404,0.0893 -0.0599,0.0594 -0.1026,0.1518 -0.1279,0.2772l-0.1078 0.5306 -0.1169 0 0.2581 -1.3183 0.1186 0zm1.6054 0.7485c-0.0096,-0.1063 -0.0461,-0.1901 -0.1094,-0.2513 -0.0637,-0.0611 -0.1449,-0.0917 -0.2448,-0.0917 -0.0976,0 -0.1829,0.0309 -0.2561,0.0927 -0.073,0.0618 -0.1221,0.1452 -0.1474,0.2503l0.7577 0zm0.0952 0.2376c-0.0482,0.1196 -0.1156,0.2092 -0.2018,0.2689 -0.0866,0.0596 -0.1925,0.0896 -0.318,0.0896 -0.1406,0 -0.2559,-0.0452 -0.3455,-0.1351 -0.0896,-0.0899 -0.1344,-0.2052 -0.1344,-0.3458 0,-0.0849 0.0167,-0.1653 0.0497,-0.2407 0.0334,-0.0754 0.081,-0.1409 0.1431,-0.1965 0.0488,-0.0436 0.1042,-0.0763 0.1653,-0.0983 0.0612,-0.0219 0.1264,-0.0331 0.196,-0.0331 0.1436,0 0.2595,0.0461 0.3473,0.1385 0.0878,0.0924 0.1316,0.2148 0.1316,0.3674 0,0.0151 0,0.0266 -0.0003,0.0346 -0.0003,0.0077 -0.0012,0.0155 -0.0024,0.0226l-0.899 0c0,0.1125 0.0322,0.203 0.0964,0.2719 0.0643,0.0689 0.1477,0.1032 0.2503,0.1032 0.0859,0 0.1601,-0.0204 0.2228,-0.0615 0.0628,-0.0411 0.1141,-0.1029 0.1539,-0.1857l0.145 0zm0.2867 -0.1242c0,0.1112 0.0322,0.2005 0.0965,0.2682 0.0642,0.0677 0.1483,0.1014 0.2521,0.1014 0.0488,0 0.0958,-0.0084 0.1409,-0.0251 0.0448,-0.0163 0.0856,-0.0404 0.1227,-0.072 0.0501,-0.0426 0.0893,-0.0964 0.118,-0.161 0.0288,-0.0645 0.043,-0.1325 0.043,-0.2039 0,-0.1085 -0.0328,-0.1965 -0.0986,-0.2636 -0.0658,-0.0671 -0.152,-0.1004 -0.2589,-0.1004 -0.1159,0 -0.2142,0.0438 -0.2948,0.1316 -0.0804,0.0881 -0.1209,0.1962 -0.1209,0.3248zm-0.0126 -0.5396l0.1295 0 -0.0235 0.1005c0.0438,-0.043 0.0933,-0.0748 0.1483,-0.0961 0.055,-0.021 0.1153,-0.0316 0.1811,-0.0316 0.1412,0 0.2571,0.0449 0.3473,0.1345 0.0902,0.0896 0.1354,0.2048 0.1354,0.3454 0,0.0798 -0.0146,0.1552 -0.0436,0.2262 -0.0287,0.0714 -0.0708,0.1345 -0.1258,0.1895 -0.05,0.05 -0.1069,0.0877 -0.1706,0.1134 -0.0636,0.0256 -0.1328,0.0386 -0.207,0.0386 -0.0946,0 -0.1758,-0.0173 -0.2432,-0.0519 -0.0671,-0.0349 -0.123,-0.0881 -0.1669,-0.1598l-0.1004 0.5096 -0.1205 0 0.2599 -1.3183zm1.9168 0.4262c-0.0096,-0.1063 -0.0461,-0.1901 -0.1094,-0.2513 -0.0637,-0.0611 -0.1449,-0.0917 -0.2448,-0.0917 -0.0976,0 -0.1829,0.0309 -0.2561,0.0927 -0.073,0.0618 -0.1221,0.1452 -0.1474,0.2503l0.7577 0zm0.0952 0.2376c-0.0482,0.1196 -0.1156,0.2092 -0.2018,0.2689 -0.0866,0.0596 -0.1925,0.0896 -0.318,0.0896 -0.1406,0 -0.2559,-0.0452 -0.3455,-0.1351 -0.0896,-0.0899 -0.1344,-0.2052 -0.1344,-0.3458 0,-0.0849 0.0167,-0.1653 0.0497,-0.2407 0.0334,-0.0754 0.081,-0.1409 0.1431,-0.1965 0.0488,-0.0436 0.1042,-0.0763 0.1653,-0.0983 0.0612,-0.0219 0.1264,-0.0331 0.196,-0.0331 0.1436,0 0.2595,0.0461 0.3473,0.1385 0.0878,0.0924 0.1316,0.2148 0.1316,0.3674 0,0.0151 0,0.0266 -0.0003,0.0346 -0.0003,0.0077 -0.0012,0.0155 -0.0024,0.0226l-0.899 0c0,0.1125 0.0322,0.203 0.0964,0.2719 0.0643,0.0689 0.1477,0.1032 0.2503,0.1032 0.0859,0 0.1601,-0.0204 0.2228,-0.0615 0.0628,-0.0411 0.1141,-0.1029 0.1539,-0.1857l0.145 0zm0.3946 -0.6638l-0.0201 0.0952c0.0507,-0.038 0.1007,-0.0664 0.1502,-0.085 0.0497,-0.0188 0.0989,-0.0281 0.1477,-0.0281 0.1075,0 0.1947,0.0303 0.2617,0.0906 0.0671,0.0602 0.1005,0.1387 0.1005,0.2354 0,0.0368 -0.0022,0.0751 -0.0068,0.1153 -0.0047,0.0402 -0.0112,0.08 -0.0195,0.1199l-0.0905 0.4527 -0.1233 0 0.1022 -0.5096c0.0056,-0.0272 0.0096,-0.0528 0.0124,-0.0769 0.0028,-0.0241 0.0043,-0.0476 0.0049,-0.0699 0,-0.076 -0.021,-0.135 -0.0633,-0.1773 -0.0423,-0.0424 -0.1011,-0.0634 -0.1765,-0.0634 -0.1001,0 -0.1804,0.0297 -0.2404,0.0893 -0.0599,0.0594 -0.1026,0.1518 -0.1279,0.2772l-0.1078 0.5306 -0.1169 0 0.1929 -0.996 0.1205 0zm2.046 0.4654l-0.1322 -0.6968 -0.3838 0.6968 0.516 0zm-0.9425 0.5306l0.7163 -1.3198 0.2 0 0.2598 1.3198 -0.1304 0 -0.0797 -0.4101 -0.6038 0 -0.221 0.4101 -0.1412 0zm1.2695 -0.2834l0.1186 0 0 0.0037c0,0.0566 0.0152,0.1026 0.0458,0.1382 0.0302,0.0352 0.0701,0.0528 0.1189,0.0528 0.0451,0 0.0844,-0.0179 0.1181,-0.0538 0.0333,-0.0358 0.05,-0.0781 0.05,-0.1263 0,-0.0628 -0.05,-0.1277 -0.1501,-0.1947l-0.0053 -0.0034c-0.0828,-0.0556 -0.1369,-0.1029 -0.1622,-0.1419 -0.0254,-0.0389 -0.038,-0.0849 -0.038,-0.1381 0,-0.0791 0.0259,-0.1452 0.0781,-0.1987 0.0523,-0.0535 0.1172,-0.08 0.1944,-0.08 0.0729,0 0.1316,0.0216 0.1761,0.0649 0.0442,0.0429 0.0665,0.1001 0.0665,0.1715 0,0.0108 0,0.0194 -0.0003,0.0253 -0.0003,0.0062 -0.001,0.0108 -0.0016,0.0145l-0.1168 0.001c0,-0.0025 0.0003,-0.0065 0.0009,-0.0124 0.0007,-0.0056 0.001,-0.0096 0.001,-0.0121 0,-0.0429 -0.0115,-0.0769 -0.0343,-0.1019 -0.0229,-0.0251 -0.0541,-0.0377 -0.0933,-0.0377 -0.0427,0 -0.0782,0.0142 -0.1063,0.0426 -0.0282,0.0284 -0.0421,0.0637 -0.0421,0.106 0,0.0541 0.0522,0.1174 0.1564,0.1891 0.0096,0.0068 0.017,0.0118 0.0219,0.0155l0.0006 0c0.1221,0.0837 0.183,0.1718 0.183,0.2642 0,0.0949 -0.0291,0.1724 -0.0869,0.2327 -0.058,0.0602 -0.1325,0.0905 -0.2234,0.0905 -0.0785,0 -0.1437,-0.0259 -0.1953,-0.0782 -0.0516,-0.0522 -0.0772,-0.1183 -0.0772,-0.198 0,-0.0096 0,-0.0167 0.0003,-0.0217 0.0003,-0.0049 0.0012,-0.0092 0.0025,-0.0136zm0.7447 0.2834l0.173 -0.8847 -0.2101 0 0.0207 -0.1113 0.2092 0 0.0634 -0.3223 0.1205 0 -0.0637 0.3223 0.2101 0 -0.0225 0.1113 -0.2092 0 -0.1709 0.8847 -0.1205 0zm0.5469 0l-0.1168 0 0.1928 -0.996 0.1168 0 -0.0173 0.0816c0.0393,-0.0374 0.0835,-0.0652 0.1323,-0.0837 0.0488,-0.0183 0.1044,-0.0275 0.1665,-0.0275l0.0282 0 -0.0245 0.123 -0.0055 0c-0.0983,0 -0.1777,0.0259 -0.238,0.0781 -0.0602,0.0523 -0.1007,0.1301 -0.1214,0.2334l-0.1131 0.5911zm0.699 -1.0936l0.0427 -0.2247 0.1183 0 -0.0426 0.2247 -0.1184 0zm0.0986 0.0976l-0.1928 0.996 -0.1187 0 0.1947 -0.996 0.1168 0zm0.9904 0.4546c0,-0.1112 -0.0318,-0.2009 -0.0955,-0.2692 -0.0636,-0.0682 -0.1474,-0.1022 -0.2512,-0.1022 -0.0488,0 -0.0958,0.0083 -0.1406,0.025 -0.0451,0.0164 -0.0859,0.0405 -0.1227,0.072 -0.0504,0.0426 -0.0896,0.0967 -0.1183,0.1616 -0.0288,0.0649 -0.043,0.1326 -0.043,0.2033 0,0.1085 0.0328,0.1966 0.0986,0.2636 0.0658,0.0671 0.1523,0.1005 0.2589,0.1005 0.1159,0 0.2139,-0.0436 0.2939,-0.1311 0.0801,-0.0871 0.1199,-0.1949 0.1199,-0.3235zm0.0145 0.5414l-0.1313 0 0.0219 -0.0939c-0.0497,0.0389 -0.1022,0.0686 -0.1585,0.0883 -0.0562,0.0201 -0.1149,0.03 -0.1767,0.03 -0.1375,0 -0.251,-0.0451 -0.34,-0.135 -0.0889,-0.09 -0.1334,-0.2046 -0.1334,-0.344 0,-0.0803 0.0142,-0.156 0.0429,-0.2271 0.0287,-0.0714 0.0702,-0.1341 0.1245,-0.1885 0.0501,-0.0501 0.1076,-0.0881 0.1722,-0.114 0.0645,-0.026 0.1335,-0.039 0.2073,-0.039 0.0943,0 0.1749,0.0177 0.2426,0.0526 0.0677,0.0349 0.1236,0.0884 0.1675,0.16l0.1004 -0.5077 0.1205 0 -0.2599 1.3183zm0.8047 -1.3183l0.1243 0 0.0859 1.1789 0.5414 -1.1789 0.1112 0 0.0797 1.1808 0.5504 -1.1808 0.1313 0 -0.6226 1.3183 -0.1595 0 -0.076 -1.0902 -0.5006 1.0902 -0.1595 0 -0.106 -1.3183zm1.7175 0.2247l0.0427 -0.2247 0.1183 0 -0.0426 0.2247 -0.1184 0zm0.0986 0.0976l-0.1928 0.996 -0.1187 0 0.1947 -0.996 0.1168 0zm0.1221 0.996l0.173 -0.8847 -0.2101 0 0.0207 -0.1113 0.2092 0 0.0634 -0.3223 0.1205 0 -0.0637 0.3223 0.2101 0 -0.0225 0.1113 -0.2092 0 -0.1709 0.8847 -0.1205 0zm0.5188 0l0.173 -0.8847 -0.2101 0 0.0207 -0.1113 0.2092 0 0.0634 -0.3223 0.1205 0 -0.0637 0.3223 0.2101 0 -0.0225 0.1113 -0.2092 0 -0.1709 0.8847 -0.1205 0zm1.3791 -0.5698c-0.0096,-0.1063 -0.0461,-0.1901 -0.1094,-0.2513 -0.0637,-0.0611 -0.1449,-0.0917 -0.2448,-0.0917 -0.0976,0 -0.1829,0.0309 -0.2561,0.0927 -0.073,0.0618 -0.1221,0.1452 -0.1474,0.2503l0.7577 0zm0.0952 0.2376c-0.0482,0.1196 -0.1156,0.2092 -0.2018,0.2689 -0.0866,0.0596 -0.1925,0.0896 -0.318,0.0896 -0.1406,0 -0.2559,-0.0452 -0.3455,-0.1351 -0.0896,-0.0899 -0.1344,-0.2052 -0.1344,-0.3458 0,-0.0849 0.0167,-0.1653 0.0497,-0.2407 0.0334,-0.0754 0.081,-0.1409 0.1431,-0.1965 0.0488,-0.0436 0.1042,-0.0763 0.1653,-0.0983 0.0612,-0.0219 0.1264,-0.0331 0.196,-0.0331 0.1436,0 0.2595,0.0461 0.3473,0.1385 0.0878,0.0924 0.1316,0.2148 0.1316,0.3674 0,0.0151 0,0.0266 -0.0003,0.0346 -0.0003,0.0077 -0.0012,0.0155 -0.0024,0.0226l-0.899 0c0,0.1125 0.0322,0.203 0.0964,0.2719 0.0643,0.0689 0.1477,0.1032 0.2503,0.1032 0.0859,0 0.1601,-0.0204 0.2228,-0.0615 0.0628,-0.0411 0.1141,-0.1029 0.1539,-0.1857l0.145 0zm0.2905 -0.1224c0,0.1113 0.0321,0.2009 0.0964,0.2692 0.0642,0.0683 0.1483,0.1023 0.2518,0.1023 0.0485,0 0.0949,-0.0081 0.1394,-0.0244 0.0448,-0.0164 0.0856,-0.0405 0.1223,-0.0727 0.0507,-0.0426 0.0906,-0.0967 0.1193,-0.1616 0.0291,-0.0649 0.0436,-0.1325 0.0436,-0.2033 0,-0.1082 -0.0331,-0.1956 -0.0995,-0.263 -0.0664,-0.0673 -0.153,-0.101 -0.2599,-0.101 -0.1159,0 -0.2135,0.0439 -0.2936,0.1313 -0.08,0.0875 -0.1198,0.1953 -0.1198,0.3232zm0.0488 -0.8637l0.122 0 -0.0797 0.4157c0.0491,-0.0405 0.1007,-0.0705 0.1554,-0.0897 0.0544,-0.0194 0.1125,-0.029 0.1743,-0.029 0.1406,0 0.2562,0.0451 0.3467,0.135 0.0906,0.09 0.1357,0.2049 0.1357,0.3449 0,0.0803 -0.0142,0.1561 -0.0429,0.2271 -0.0288,0.0714 -0.0702,0.1341 -0.1246,0.1885 -0.05,0.0501 -0.1075,0.0884 -0.1721,0.1147 -0.0643,0.0262 -0.1335,0.0392 -0.207,0.0392 -0.0968,0 -0.1783,-0.0176 -0.2451,-0.0525 -0.0667,-0.0349 -0.1199,-0.0881 -0.1598,-0.1592l-0.0386 0.1836 -0.1242 0 0.2599 -1.3183zm1.4919 0.4021c-0.1174,0 -0.216,0.0448 -0.2948,0.1341 -0.0791,0.0893 -0.1187,0.2015 -0.1187,0.3368 0,0.1026 0.0328,0.1885 0.0983,0.258 0.0655,0.0696 0.1465,0.1042 0.2429,0.1042 0.0519,0 0.101,-0.0084 0.1471,-0.0251 0.046,-0.0163 0.0874,-0.0411 0.1236,-0.0735 0.0507,-0.0442 0.0902,-0.0986 0.1183,-0.1635 0.0285,-0.0649 0.0427,-0.1328 0.0427,-0.2033 0,-0.1094 -0.0331,-0.1978 -0.0992,-0.2648 -0.0658,-0.0674 -0.1527,-0.1017 -0.2602,-0.1029zm-0.5448 0.4601c0,-0.0878 0.0164,-0.1684 0.0494,-0.2429 0.0328,-0.0742 0.0807,-0.1384 0.1434,-0.1928 0.0507,-0.0439 0.1069,-0.0776 0.1684,-0.1008 0.0615,-0.0231 0.1258,-0.0349 0.1929,-0.0349 0.1399,0 0.2552,0.0454 0.3461,0.1366 0.0908,0.0912 0.1362,0.2064 0.1362,0.3461 0,0.0776 -0.0142,0.152 -0.0426,0.2225 -0.0281,0.0708 -0.0689,0.1338 -0.1221,0.1894 -0.0513,0.0522 -0.1109,0.0924 -0.1789,0.1199 -0.0677,0.0275 -0.1418,0.0411 -0.2222,0.0411 -0.1356,0 -0.2481,-0.0457 -0.3371,-0.1375 -0.089,-0.0918 -0.1335,-0.2073 -0.1335,-0.3467zm1.4793 -0.8622l-0.2553 1.3183 -0.1186 0 0.2552 -1.3183 0.1187 0zm0.373 0l-0.2553 1.3183 -0.1186 0 0.2552 -1.3183 0.1187 0zm0.9218 0.7485c-0.0096,-0.1063 -0.0461,-0.1901 -0.1094,-0.2513 -0.0637,-0.0611 -0.1449,-0.0917 -0.2448,-0.0917 -0.0976,0 -0.1829,0.0309 -0.2561,0.0927 -0.073,0.0618 -0.1221,0.1452 -0.1474,0.2503l0.7577 0zm0.0952 0.2376c-0.0482,0.1196 -0.1156,0.2092 -0.2018,0.2689 -0.0866,0.0596 -0.1925,0.0896 -0.318,0.0896 -0.1406,0 -0.2559,-0.0452 -0.3455,-0.1351 -0.0896,-0.0899 -0.1344,-0.2052 -0.1344,-0.3458 0,-0.0849 0.0167,-0.1653 0.0497,-0.2407 0.0334,-0.0754 0.081,-0.1409 0.1431,-0.1965 0.0488,-0.0436 0.1042,-0.0763 0.1653,-0.0983 0.0612,-0.0219 0.1264,-0.0331 0.196,-0.0331 0.1436,0 0.2595,0.0461 0.3473,0.1385 0.0878,0.0924 0.1316,0.2148 0.1316,0.3674 0,0.0151 0,0.0266 -0.0003,0.0346 -0.0003,0.0077 -0.0012,0.0155 -0.0024,0.0226l-0.899 0c0,0.1125 0.0322,0.203 0.0964,0.2719 0.0643,0.0689 0.1477,0.1032 0.2503,0.1032 0.0859,0 0.1601,-0.0204 0.2228,-0.0615 0.0628,-0.0411 0.1141,-0.1029 0.1539,-0.1857l0.145 0z"/>
  <rect class="fil2" x="0.1431" y="0.2481" width="74.8045" height="26.3706"/>
 </g>
</svg>
