<?xml version="1.0" encoding="UTF-8"?>
<!DOCTYPE svg PUBLIC "-//W3C//DTD SVG 1.1//EN" "http://www.w3.org/Graphics/SVG/1.1/DTD/svg11.dtd">
<!-- Creator: CorelDRAW -->
<svg xmlns="http://www.w3.org/2000/svg" xml:space="preserve" width="75mm" height="27mm" style="shape-rendering:geometricPrecision; text-rendering:geometricPrecision; image-rendering:optimizeQuality; fill-rule:evenodd; clip-rule:evenodd"
viewBox="0 0 75 27"
 xmlns:xlink="http://www.w3.org/1999/xlink">
 <defs>
  <style type="text/css">
   <![CDATA[
    .str0 {stroke:#606062;stroke-width:1.5}
    .fil0 {fill:none}
    .fil2 {fill:#727376;fill-rule:nonzero}
    .fil1 {fill:#FEFEFE;fill-rule:nonzero}
   ]]>
  </style>
 </defs>
 <g id="Laag_x0020_1">
  <metadata id="CorelCorpID_0Corel-Layer"/>
  <rect class="fil0" x="0.143" y="0.2481" width="74.8045" height="26.3706"/>
  <path class="fil1 str0" d="M72.6024 5.6569c0,3.4758 0,6.9514 0,10.4272 0,1.9191 -2.3624,3.4757 -5.2748,3.4757 -2.9024,0 -5.8046,0 -8.707,0 0.038,1.8569 0.0759,3.7136 0.114,5.5704 -5.2811,-1.8568 -10.5622,-3.7135 -15.8433,-5.5704 -11.641,0 -23.2818,0 -34.9228,0 -2.9124,0 -5.2748,-1.5566 -5.2748,-3.4757 0,-3.4758 0,-6.9514 0,-10.4272 0,-1.9191 2.3624,-3.4757 5.2748,-3.4757 19.7864,0 39.5727,0 59.3591,0 2.9124,0 5.2748,1.5566 5.2748,3.4757z"/>
  <g id="_538954440">
   <path id="_538954392" class="fil2" d="M6.453 8.3969l0.9864 -1.7577 0.3679 0 0.3815 1.7577 -0.351 0 -0.0799 -0.3704 -0.7219 0 -0.2052 0.3704 -0.3778 0zm1.2385 -0.6975l-0.1339 -0.628 -0.3428 0.628 0.4767 0zm0.5266 0.6975l0.3416 -1.7577 0.309 0 -0.3416 1.7577 -0.309 0zm0.5781 0l0.3416 -1.7577 0.309 0 -0.3416 1.7577 -0.309 0zm0.9691 -0.81l0.7219 0c-0.0227,-0.0833 -0.0647,-0.1479 -0.1269,-0.1941 -0.0618,-0.0461 -0.1385,-0.0692 -0.2291,-0.0692 -0.0828,0 -0.157,0.0231 -0.2217,0.0696 -0.0647,0.0466 -0.1129,0.1113 -0.1442,0.1937zm0.9732 0.3935c-0.0598,0.1454 -0.1475,0.2566 -0.2645,0.3345 -0.1166,0.0779 -0.2542,0.117 -0.4129,0.117 -0.1866,0 -0.3399,-0.0601 -0.4598,-0.1804 -0.1199,-0.1204 -0.18,-0.274 -0.18,-0.4607 0,-0.1116 0.0226,-0.2179 0.0675,-0.3181 0.045,-0.1001 0.1092,-0.1874 0.192,-0.2624 0.0635,-0.0573 0.1356,-0.1005 0.2159,-0.1306 0.0808,-0.0297 0.1669,-0.0445 0.2584,-0.0445 0.1891,0 0.3436,0.0593 0.4635,0.1784 0.1199,0.1186 0.18,0.2723 0.18,0.4598 0,0.0235 -0.0012,0.0494 -0.0037,0.0783 -0.0024,0.0284 -0.0061,0.0601 -0.0119,0.0947l-1.0502 0c0.0193,0.0969 0.058,0.1706 0.1157,0.2209 0.0581,0.0498 0.1335,0.075 0.2258,0.075 0.0664,0 0.1261,-0.0136 0.1797,-0.0404 0.0535,-0.0268 0.1013,-0.0672 0.1442,-0.1215l0.3403 0zm2.1693 0.4334c-0.0355,0.1706 -0.1063,0.2966 -0.2126,0.3778 -0.1063,0.0812 -0.2538,0.122 -0.4429,0.122 -0.169,0 -0.3115,-0.0396 -0.4273,-0.1191 -0.1158,-0.0791 -0.1833,-0.1825 -0.2027,-0.3107l0.3185 0c0.028,0.0573 0.0696,0.0997 0.1244,0.1278 0.0548,0.0284 0.1228,0.0424 0.204,0.0424 0.11,0 0.1928,-0.0268 0.248,-0.0803 0.0552,-0.0536 0.0919,-0.143 0.1104,-0.2687 -0.0457,0.0429 -0.0968,0.0746 -0.1533,0.0956 -0.0564,0.021 -0.119,0.0313 -0.1883,0.0313 -0.1833,0 -0.3324,-0.0601 -0.4466,-0.1804 -0.1141,-0.1204 -0.1714,-0.2777 -0.1714,-0.4726 0,-0.082 0.0124,-0.1607 0.0367,-0.2353 0.0247,-0.075 0.0618,-0.1475 0.1116,-0.2175 0.0668,-0.0923 0.1492,-0.1632 0.2468,-0.2122 0.0981,-0.049 0.2052,-0.0738 0.3218,-0.0738 0.0886,0 0.1702,0.0169 0.2452,0.0507 0.0746,0.0338 0.1409,0.0836 0.1978,0.1496l0.0325 -0.1714 0.3164 0 -0.269 1.3448zm-0.5097 -1.0947c-0.1149,0 -0.2142,0.0445 -0.2979,0.1335 -0.0836,0.089 -0.1256,0.1961 -0.1256,0.3213 0,0.1105 0.0321,0.1994 0.096,0.267 0.0638,0.0676 0.1483,0.1014 0.2529,0.1014 0.1166,0 0.2155,-0.0445 0.2963,-0.1335 0.0807,-0.089 0.1211,-0.1986 0.1211,-0.3288 0,-0.1055 -0.0321,-0.192 -0.0968,-0.2596 -0.0651,-0.0676 -0.1467,-0.1013 -0.246,-0.1013zm1.1767 0.2678l0.7219 0c-0.0227,-0.0833 -0.0647,-0.1479 -0.1269,-0.1941 -0.0618,-0.0461 -0.1385,-0.0692 -0.2291,-0.0692 -0.0828,0 -0.157,0.0231 -0.2217,0.0696 -0.0647,0.0466 -0.1129,0.1113 -0.1442,0.1937zm0.9732 0.3935c-0.0598,0.1454 -0.1475,0.2566 -0.2645,0.3345 -0.1166,0.0779 -0.2542,0.117 -0.4129,0.117 -0.1866,0 -0.3399,-0.0601 -0.4598,-0.1804 -0.1199,-0.1204 -0.18,-0.274 -0.18,-0.4607 0,-0.1116 0.0226,-0.2179 0.0675,-0.3181 0.045,-0.1001 0.1092,-0.1874 0.192,-0.2624 0.0635,-0.0573 0.1356,-0.1005 0.2159,-0.1306 0.0808,-0.0297 0.1669,-0.0445 0.2584,-0.0445 0.1891,0 0.3436,0.0593 0.4635,0.1784 0.1199,0.1186 0.18,0.2723 0.18,0.4598 0,0.0235 -0.0012,0.0494 -0.0037,0.0783 -0.0024,0.0284 -0.0061,0.0601 -0.0119,0.0947l-1.0502 0c0.0193,0.0969 0.058,0.1706 0.1157,0.2209 0.0581,0.0498 0.1335,0.075 0.2258,0.075 0.0664,0 0.1261,-0.0136 0.1797,-0.0404 0.0535,-0.0268 0.1013,-0.0672 0.1442,-0.1215l0.3403 0zm0.6757 -0.9114l-0.0276 0.1269c0.0507,-0.0499 0.1042,-0.087 0.1611,-0.1117 0.0569,-0.0243 0.117,-0.0367 0.1805,-0.0367 0.1594,0 0.2793,0.0363 0.3605,0.1088 0.0807,0.0721 0.1211,0.1801 0.1211,0.3235 0,0.0263 -0.0037,0.0671 -0.0115,0.1223 -0.0074,0.0552 -0.0186,0.1191 -0.033,0.1912l-0.1162 0.6036 -0.3185 0 0.1352 -0.7013c0.0057,-0.0271 0.0099,-0.0548 0.0132,-0.0819 0.0033,-0.0276 0.0049,-0.054 0.0049,-0.08 0,-0.0696 -0.0177,-0.1232 -0.0531,-0.1598 -0.0355,-0.0367 -0.087,-0.0548 -0.1546,-0.0548 -0.0972,0 -0.1755,0.0329 -0.234,0.0988 -0.0589,0.066 -0.1017,0.1698 -0.1294,0.3115l-0.1363 0.6675 -0.3066 0 0.2691 -1.3279 0.2752 0zm1.2904 0.5179l0.7219 0c-0.0227,-0.0833 -0.0647,-0.1479 -0.1269,-0.1941 -0.0618,-0.0461 -0.1385,-0.0692 -0.2291,-0.0692 -0.0828,0 -0.157,0.0231 -0.2217,0.0696 -0.0647,0.0466 -0.1129,0.1113 -0.1442,0.1937zm0.9732 0.3935c-0.0598,0.1454 -0.1475,0.2566 -0.2645,0.3345 -0.1166,0.0779 -0.2542,0.117 -0.4129,0.117 -0.1866,0 -0.3399,-0.0601 -0.4598,-0.1804 -0.1199,-0.1204 -0.18,-0.274 -0.18,-0.4607 0,-0.1116 0.0226,-0.2179 0.0675,-0.3181 0.045,-0.1001 0.1092,-0.1874 0.192,-0.2624 0.0635,-0.0573 0.1356,-0.1005 0.2159,-0.1306 0.0808,-0.0297 0.1669,-0.0445 0.2584,-0.0445 0.1891,0 0.3436,0.0593 0.4635,0.1784 0.1199,0.1186 0.18,0.2723 0.18,0.4598 0,0.0235 -0.0012,0.0494 -0.0037,0.0783 -0.0024,0.0284 -0.0061,0.0601 -0.0119,0.0947l-1.0502 0c0.0193,0.0969 0.058,0.1706 0.1157,0.2209 0.0581,0.0498 0.1335,0.075 0.2258,0.075 0.0664,0 0.1261,-0.0136 0.1797,-0.0404 0.0535,-0.0268 0.1013,-0.0672 0.1442,-0.1215l0.3403 0zm0.1413 0.4165l0.2571 -1.3279 0.2827 0 -0.0351 0.1763c0.0565,-0.0737 0.1212,-0.1285 0.1949,-0.1636 0.0738,-0.035 0.1603,-0.0523 0.2604,-0.0523l0.0095 0 -0.0593 0.3115c-0.1422,0.0025 -0.2468,0.0313 -0.3136,0.0861 -0.0671,0.0552 -0.1149,0.1553 -0.1438,0.3l-0.1318 0.6699 -0.321 0zm1.9554 0l0.0169 -0.0919c-0.0457,0.0429 -0.0968,0.0746 -0.1533,0.0956 -0.0564,0.021 -0.119,0.0313 -0.1883,0.0313 -0.1833,0 -0.3324,-0.0601 -0.4466,-0.1804 -0.1141,-0.1204 -0.1714,-0.2777 -0.1714,-0.4726 0,-0.082 0.0124,-0.1607 0.0367,-0.2353 0.0247,-0.075 0.0618,-0.1475 0.1116,-0.2175 0.0668,-0.0923 0.1492,-0.1632 0.2468,-0.2122 0.0981,-0.049 0.2052,-0.0738 0.3218,-0.0738 0.0886,0 0.1702,0.0169 0.2452,0.0507 0.0746,0.0338 0.1409,0.0836 0.1978,0.1496l0.0325 -0.1714 0.3164 0 -0.2645 1.3279 -0.3016 0zm-0.2126 -1.0778c-0.1149,0 -0.2142,0.0445 -0.2979,0.1335 -0.0836,0.089 -0.1256,0.1961 -0.1256,0.3213 0,0.1105 0.0321,0.1994 0.096,0.267 0.0638,0.0676 0.1483,0.1014 0.2529,0.1014 0.1166,0 0.2155,-0.0445 0.2963,-0.1335 0.0807,-0.089 0.1211,-0.1986 0.1211,-0.3288 0,-0.1055 -0.0321,-0.192 -0.0968,-0.2596 -0.0651,-0.0676 -0.1467,-0.1013 -0.246,-0.1013zm0.8776 1.0778l0.2027 -1.0502 -0.1784 0 0.054 -0.2777 0.1788 0 0.0807 -0.4149 0.3202 0 -0.08 0.4149 0.1908 0 -0.0519 0.2777 -0.1932 0 -0.2052 1.0502 -0.3185 0zm0.7243 0l0.2571 -1.3279 0.3065 0 -0.2571 1.3279 -0.3065 0zm0.2847 -1.468l0.0568 -0.2897 0.3066 0 -0.0569 0.2897 -0.3065 0zm0.6819 0.658l0.7219 0c-0.0227,-0.0833 -0.0647,-0.1479 -0.1269,-0.1941 -0.0618,-0.0461 -0.1385,-0.0692 -0.2291,-0.0692 -0.0828,0 -0.157,0.0231 -0.2217,0.0696 -0.0647,0.0466 -0.1129,0.1113 -0.1442,0.1937zm0.9732 0.3935c-0.0598,0.1454 -0.1475,0.2566 -0.2645,0.3345 -0.1166,0.0779 -0.2542,0.117 -0.4129,0.117 -0.1866,0 -0.3399,-0.0601 -0.4598,-0.1804 -0.1199,-0.1204 -0.18,-0.274 -0.18,-0.4607 0,-0.1116 0.0226,-0.2179 0.0675,-0.3181 0.045,-0.1001 0.1092,-0.1874 0.192,-0.2624 0.0635,-0.0573 0.1356,-0.1005 0.2159,-0.1306 0.0808,-0.0297 0.1669,-0.0445 0.2584,-0.0445 0.1891,0 0.3436,0.0593 0.4635,0.1784 0.1199,0.1186 0.18,0.2723 0.18,0.4598 0,0.0235 -0.0012,0.0494 -0.0037,0.0783 -0.0024,0.0284 -0.0061,0.0601 -0.0119,0.0947l-1.0502 0c0.0193,0.0969 0.058,0.1706 0.1157,0.2209 0.0581,0.0498 0.1335,0.075 0.2258,0.075 0.0664,0 0.1261,-0.0136 0.1797,-0.0404 0.0535,-0.0268 0.1013,-0.0672 0.1442,-0.1215l0.3403 0zm0.164 -0.0206l0.3139 0 0 0.0074c0,0.0576 0.0136,0.1026 0.0404,0.1343 0.0272,0.0317 0.0647,0.0478 0.1129,0.0478 0.0379,0 0.0692,-0.012 0.0939,-0.0355 0.0244,-0.0239 0.0367,-0.0539 0.0367,-0.0902 0,-0.0297 -0.0095,-0.0568 -0.0288,-0.0812 -0.0194,-0.0247 -0.0528,-0.0519 -0.0993,-0.0815 -0.0252,-0.0169 -0.0594,-0.0388 -0.1026,-0.0651 -0.0795,-0.0499 -0.1282,-0.0845 -0.145,-0.1039 -0.033,-0.037 -0.0569,-0.0745 -0.0717,-0.1124 -0.0149,-0.0375 -0.0223,-0.0783 -0.0223,-0.1216 0,-0.1186 0.0433,-0.2175 0.1294,-0.2979 0.0861,-0.0799 0.1936,-0.1199 0.3234,-0.1199 0.1232,0 0.2233,0.0367 0.3,0.11 0.077,0.073 0.1153,0.169 0.1153,0.2872l0 0.0206 -0.3139 -0.0012c-0.0017,-0.0491 -0.0124,-0.0865 -0.0322,-0.1121 -0.0197,-0.0251 -0.0478,-0.0379 -0.084,-0.0379 -0.033,0 -0.061,0.0107 -0.0845,0.0321 -0.0235,0.0211 -0.035,0.047 -0.035,0.0767 0,0.0465 0.0519,0.1017 0.1562,0.1656 0.0169,0.0103 0.0304,0.0185 0.0407,0.0251 0.1047,0.0651 0.178,0.1265 0.2192,0.1834 0.0417,0.0573 0.0623,0.1228 0.0623,0.1969 0,0.1273 -0.0437,0.2332 -0.1315,0.3181 -0.0877,0.0849 -0.1982,0.1273 -0.3308,0.1273 -0.1442,0 -0.258,-0.0379 -0.3408,-0.1141 -0.0828,-0.0762 -0.1244,-0.1801 -0.1244,-0.3123 0,-0.0037 0.0004,-0.0111 0.0012,-0.0214 0.0009,-0.0108 0.0013,-0.0186 0.0013,-0.0243zm2.3188 -0.8908l-0.0276 0.1269c0.0507,-0.0499 0.1042,-0.087 0.1611,-0.1117 0.0569,-0.0243 0.117,-0.0367 0.1805,-0.0367 0.1594,0 0.2793,0.0363 0.3605,0.1088 0.0807,0.0721 0.1211,0.1801 0.1211,0.3235 0,0.0263 -0.0037,0.0671 -0.0115,0.1223 -0.0074,0.0552 -0.0186,0.1191 -0.033,0.1912l-0.1162 0.6036 -0.3185 0 0.1352 -0.7013c0.0057,-0.0271 0.0099,-0.0548 0.0132,-0.0819 0.0033,-0.0276 0.0049,-0.054 0.0049,-0.08 0,-0.0696 -0.0177,-0.1232 -0.0531,-0.1598 -0.0355,-0.0367 -0.087,-0.0548 -0.1546,-0.0548 -0.0972,0 -0.1755,0.0329 -0.234,0.0988 -0.0589,0.066 -0.1017,0.1698 -0.1294,0.3115l-0.1363 0.6675 -0.3066 0 0.2691 -1.3279 0.2752 0zm1.9183 1.3279l0.0169 -0.0919c-0.0457,0.0429 -0.0968,0.0746 -0.1533,0.0956 -0.0564,0.021 -0.119,0.0313 -0.1883,0.0313 -0.1833,0 -0.3324,-0.0601 -0.4466,-0.1804 -0.1141,-0.1204 -0.1714,-0.2777 -0.1714,-0.4726 0,-0.082 0.0124,-0.1607 0.0367,-0.2353 0.0247,-0.075 0.0618,-0.1475 0.1116,-0.2175 0.0668,-0.0923 0.1492,-0.1632 0.2468,-0.2122 0.0981,-0.049 0.2052,-0.0738 0.3218,-0.0738 0.0886,0 0.1702,0.0169 0.2452,0.0507 0.0746,0.0338 0.1409,0.0836 0.1978,0.1496l0.0325 -0.1714 0.3164 0 -0.2645 1.3279 -0.3016 0zm-0.2126 -1.0778c-0.1149,0 -0.2142,0.0445 -0.2979,0.1335 -0.0836,0.089 -0.1256,0.1961 -0.1256,0.3213 0,0.1105 0.0321,0.1994 0.096,0.267 0.0638,0.0676 0.1483,0.1014 0.2529,0.1014 0.1166,0 0.2155,-0.0445 0.2963,-0.1335 0.0807,-0.089 0.1211,-0.1986 0.1211,-0.3288 0,-0.1055 -0.0321,-0.192 -0.0968,-0.2596 -0.0651,-0.0676 -0.1467,-0.1013 -0.246,-0.1013zm2.2789 0c-0.1175,0 -0.2159,0.0441 -0.2946,0.1326 -0.0787,0.0886 -0.1183,0.2003 -0.1183,0.3346 0,0.1038 0.0326,0.1891 0.0973,0.2559 0.0646,0.0667 0.1479,0.1001 0.2492,0.1001 0.1183,0 0.218,-0.0441 0.3,-0.1327 0.0816,-0.0886 0.1223,-0.1978 0.1223,-0.3271 0,-0.1096 -0.0325,-0.1974 -0.0976,-0.2637 -0.0651,-0.0664 -0.1512,-0.0997 -0.2583,-0.0997zm-0.7194 0.4717c0,-0.1149 0.0226,-0.2229 0.0676,-0.3238 0.0449,-0.101 0.11,-0.1891 0.1944,-0.2637 0.0643,-0.0573 0.1368,-0.1005 0.2172,-0.1298 0.0803,-0.0293 0.1668,-0.0441 0.2595,-0.0441 0.1883,0 0.3424,0.0598 0.4627,0.1797 0.1203,0.1199 0.1805,0.2735 0.1805,0.4614 0,0.1051 -0.0186,0.2052 -0.056,0.2996 -0.0375,0.0947 -0.0911,0.1788 -0.1611,0.2517 -0.066,0.0676 -0.1438,0.1195 -0.2337,0.1557 -0.0898,0.0363 -0.187,0.0544 -0.2913,0.0544 -0.187,0 -0.3403,-0.0601 -0.4602,-0.1804 -0.1199,-0.1204 -0.1796,-0.2736 -0.1796,-0.4607zm1.9855 -0.7218l-0.0276 0.1269c0.0507,-0.0499 0.1042,-0.087 0.1611,-0.1117 0.0569,-0.0243 0.117,-0.0367 0.1805,-0.0367 0.1594,0 0.2793,0.0363 0.3605,0.1088 0.0807,0.0721 0.1211,0.1801 0.1211,0.3235 0,0.0263 -0.0037,0.0671 -0.0115,0.1223 -0.0074,0.0552 -0.0186,0.1191 -0.033,0.1912l-0.1162 0.6036 -0.3185 0 0.1352 -0.7013c0.0057,-0.0271 0.0099,-0.0548 0.0132,-0.0819 0.0033,-0.0276 0.0049,-0.054 0.0049,-0.08 0,-0.0696 -0.0177,-0.1232 -0.0531,-0.1598 -0.0355,-0.0367 -0.087,-0.0548 -0.1546,-0.0548 -0.0972,0 -0.1755,0.0329 -0.234,0.0988 -0.0589,0.066 -0.1017,0.1698 -0.1294,0.3115l-0.1363 0.6675 -0.3066 0 0.2691 -1.3279 0.2752 0zm0.9295 0.8908l0.3139 0 0 0.0074c0,0.0576 0.0136,0.1026 0.0404,0.1343 0.0272,0.0317 0.0647,0.0478 0.1129,0.0478 0.0379,0 0.0692,-0.012 0.0939,-0.0355 0.0244,-0.0239 0.0367,-0.0539 0.0367,-0.0902 0,-0.0297 -0.0095,-0.0568 -0.0288,-0.0812 -0.0194,-0.0247 -0.0528,-0.0519 -0.0993,-0.0815 -0.0252,-0.0169 -0.0594,-0.0388 -0.1026,-0.0651 -0.0795,-0.0499 -0.1282,-0.0845 -0.145,-0.1039 -0.033,-0.037 -0.0569,-0.0745 -0.0717,-0.1124 -0.0149,-0.0375 -0.0223,-0.0783 -0.0223,-0.1216 0,-0.1186 0.0433,-0.2175 0.1294,-0.2979 0.0861,-0.0799 0.1936,-0.1199 0.3234,-0.1199 0.1232,0 0.2233,0.0367 0.3,0.11 0.077,0.073 0.1153,0.169 0.1153,0.2872l0 0.0206 -0.3139 -0.0012c-0.0017,-0.0491 -0.0124,-0.0865 -0.0322,-0.1121 -0.0197,-0.0251 -0.0478,-0.0379 -0.084,-0.0379 -0.033,0 -0.061,0.0107 -0.0845,0.0321 -0.0235,0.0211 -0.035,0.047 -0.035,0.0767 0,0.0465 0.0519,0.1017 0.1562,0.1656 0.0169,0.0103 0.0304,0.0185 0.0407,0.0251 0.1047,0.0651 0.178,0.1265 0.2192,0.1834 0.0417,0.0573 0.0623,0.1228 0.0623,0.1969 0,0.1273 -0.0437,0.2332 -0.1315,0.3181 -0.0877,0.0849 -0.1982,0.1273 -0.3308,0.1273 -0.1442,0 -0.258,-0.0379 -0.3408,-0.1141 -0.0828,-0.0762 -0.1244,-0.1801 -0.1244,-0.3123 0,-0.0037 0.0004,-0.0111 0.0012,-0.0214 0.0009,-0.0108 0.0013,-0.0186 0.0013,-0.0243zm1.9327 0.4371l-0.0943 -1.3279 0.2946 0 0.035 0.932 0.4322 -0.932 0.2917 0 0.0593 0.9225 0.4393 -0.9225 0.3139 0 -0.6749 1.3279 -0.3016 0 -0.0857 -0.8895 -0.4029 0.8895 -0.3066 0zm2.0544 -0.81l0.7219 0c-0.0227,-0.0833 -0.0647,-0.1479 -0.1269,-0.1941 -0.0618,-0.0461 -0.1385,-0.0692 -0.2291,-0.0692 -0.0828,0 -0.157,0.0231 -0.2217,0.0696 -0.0647,0.0466 -0.1129,0.1113 -0.1442,0.1937zm0.9732 0.3935c-0.0598,0.1454 -0.1475,0.2566 -0.2645,0.3345 -0.1166,0.0779 -0.2542,0.117 -0.4129,0.117 -0.1866,0 -0.3399,-0.0601 -0.4598,-0.1804 -0.1199,-0.1204 -0.18,-0.274 -0.18,-0.4607 0,-0.1116 0.0226,-0.2179 0.0675,-0.3181 0.045,-0.1001 0.1092,-0.1874 0.192,-0.2624 0.0635,-0.0573 0.1356,-0.1005 0.2159,-0.1306 0.0808,-0.0297 0.1669,-0.0445 0.2584,-0.0445 0.1891,0 0.3436,0.0593 0.4635,0.1784 0.1199,0.1186 0.18,0.2723 0.18,0.4598 0,0.0235 -0.0012,0.0494 -0.0037,0.0783 -0.0024,0.0284 -0.0061,0.0601 -0.0119,0.0947l-1.0502 0c0.0193,0.0969 0.058,0.1706 0.1157,0.2209 0.0581,0.0498 0.1335,0.075 0.2258,0.075 0.0664,0 0.1261,-0.0136 0.1797,-0.0404 0.0535,-0.0268 0.1013,-0.0672 0.1442,-0.1215l0.3403 0zm0.2258 0.4165l0.2027 -1.0502 -0.1784 0 0.054 -0.2777 0.1788 0 0.0807 -0.4149 0.3202 0 -0.08 0.4149 0.1908 0 -0.0519 0.2777 -0.1932 0 -0.2052 1.0502 -0.3185 0zm1.1128 -0.81l0.7219 0c-0.0227,-0.0833 -0.0647,-0.1479 -0.1269,-0.1941 -0.0618,-0.0461 -0.1385,-0.0692 -0.2291,-0.0692 -0.0828,0 -0.157,0.0231 -0.2217,0.0696 -0.0647,0.0466 -0.1129,0.1113 -0.1442,0.1937zm0.9732 0.3935c-0.0598,0.1454 -0.1475,0.2566 -0.2645,0.3345 -0.1166,0.0779 -0.2542,0.117 -0.4129,0.117 -0.1866,0 -0.3399,-0.0601 -0.4598,-0.1804 -0.1199,-0.1204 -0.18,-0.274 -0.18,-0.4607 0,-0.1116 0.0226,-0.2179 0.0675,-0.3181 0.045,-0.1001 0.1092,-0.1874 0.192,-0.2624 0.0635,-0.0573 0.1356,-0.1005 0.2159,-0.1306 0.0808,-0.0297 0.1669,-0.0445 0.2584,-0.0445 0.1891,0 0.3436,0.0593 0.4635,0.1784 0.1199,0.1186 0.18,0.2723 0.18,0.4598 0,0.0235 -0.0012,0.0494 -0.0037,0.0783 -0.0024,0.0284 -0.0061,0.0601 -0.0119,0.0947l-1.0502 0c0.0193,0.0969 0.058,0.1706 0.1157,0.2209 0.0581,0.0498 0.1335,0.075 0.2258,0.075 0.0664,0 0.1261,-0.0136 0.1797,-0.0404 0.0535,-0.0268 0.1013,-0.0672 0.1442,-0.1215l0.3403 0zm0.6757 -0.9114l-0.0276 0.1269c0.0507,-0.0499 0.1042,-0.087 0.1611,-0.1117 0.0569,-0.0243 0.117,-0.0367 0.1805,-0.0367 0.1594,0 0.2793,0.0363 0.3605,0.1088 0.0807,0.0721 0.1211,0.1801 0.1211,0.3235 0,0.0263 -0.0037,0.0671 -0.0115,0.1223 -0.0074,0.0552 -0.0186,0.1191 -0.033,0.1912l-0.1162 0.6036 -0.3185 0 0.1352 -0.7013c0.0057,-0.0271 0.0099,-0.0548 0.0132,-0.0819 0.0033,-0.0276 0.0049,-0.054 0.0049,-0.08 0,-0.0696 -0.0177,-0.1232 -0.0531,-0.1598 -0.0355,-0.0367 -0.087,-0.0548 -0.1546,-0.0548 -0.0972,0 -0.1755,0.0329 -0.234,0.0988 -0.0589,0.066 -0.1017,0.1698 -0.1294,0.3115l-0.1363 0.6675 -0.3066 0 0.2691 -1.3279 0.2752 0zm2.6377 1.3279l0.0169 -0.0919c-0.0457,0.0429 -0.0968,0.0746 -0.1533,0.0956 -0.0564,0.021 -0.119,0.0313 -0.1883,0.0313 -0.1833,0 -0.3324,-0.0601 -0.4466,-0.1804 -0.1141,-0.1204 -0.1714,-0.2777 -0.1714,-0.4726 0,-0.082 0.0124,-0.1607 0.0367,-0.2353 0.0247,-0.075 0.0618,-0.1475 0.1116,-0.2175 0.0668,-0.0923 0.1492,-0.1632 0.2473,-0.2122 0.0976,-0.049 0.2047,-0.0738 0.3213,-0.0738 0.0886,0 0.1702,0.0169 0.2452,0.0507 0.075,0.0338 0.1409,0.0836 0.1982,0.1496l0.1133 -0.6012 0.3115 0 -0.3379 1.7577 -0.3045 0zm-0.2126 -1.0778c-0.1149,0 -0.2142,0.0445 -0.2979,0.1335 -0.0836,0.089 -0.1256,0.1961 -0.1256,0.3213 0,0.1105 0.0321,0.1994 0.096,0.267 0.0638,0.0676 0.1483,0.1014 0.2529,0.1014 0.1166,0 0.2155,-0.0445 0.2963,-0.1335 0.0807,-0.089 0.1215,-0.1986 0.1215,-0.3288 0,-0.1055 -0.0325,-0.192 -0.0972,-0.2596 -0.0647,-0.0676 -0.1467,-0.1013 -0.246,-0.1013zm1.8046 1.0778l0.0169 -0.0919c-0.0457,0.0429 -0.0968,0.0746 -0.1533,0.0956 -0.0564,0.021 -0.119,0.0313 -0.1883,0.0313 -0.1833,0 -0.3324,-0.0601 -0.4466,-0.1804 -0.1141,-0.1204 -0.1714,-0.2777 -0.1714,-0.4726 0,-0.082 0.0124,-0.1607 0.0367,-0.2353 0.0247,-0.075 0.0618,-0.1475 0.1116,-0.2175 0.0668,-0.0923 0.1492,-0.1632 0.2468,-0.2122 0.0981,-0.049 0.2052,-0.0738 0.3218,-0.0738 0.0886,0 0.1702,0.0169 0.2452,0.0507 0.0746,0.0338 0.1409,0.0836 0.1978,0.1496l0.0325 -0.1714 0.3164 0 -0.2645 1.3279 -0.3016 0zm-0.2126 -1.0778c-0.1149,0 -0.2142,0.0445 -0.2979,0.1335 -0.0836,0.089 -0.1256,0.1961 -0.1256,0.3213 0,0.1105 0.0321,0.1994 0.096,0.267 0.0638,0.0676 0.1483,0.1014 0.2529,0.1014 0.1166,0 0.2155,-0.0445 0.2963,-0.1335 0.0807,-0.089 0.1211,-0.1986 0.1211,-0.3288 0,-0.1055 -0.0321,-0.192 -0.0968,-0.2596 -0.0651,-0.0676 -0.1467,-0.1013 -0.246,-0.1013zm0.8776 1.0778l0.2027 -1.0502 -0.1784 0 0.054 -0.2777 0.1788 0 0.0807 -0.4149 0.3202 0 -0.08 0.4149 0.1908 0 -0.0519 0.2777 -0.1932 0 -0.2052 1.0502 -0.3185 0zm1.7259 0l-0.2571 -1.3279 0.314 0 0.1701 0.9394 0.5043 -0.9394 0.3453 0 -0.7313 1.3279 -0.3453 0zm2.0053 0l0.0169 -0.0919c-0.0457,0.0429 -0.0968,0.0746 -0.1533,0.0956 -0.0564,0.021 -0.119,0.0313 -0.1883,0.0313 -0.1833,0 -0.3324,-0.0601 -0.4466,-0.1804 -0.1141,-0.1204 -0.1714,-0.2777 -0.1714,-0.4726 0,-0.082 0.0124,-0.1607 0.0367,-0.2353 0.0247,-0.075 0.0618,-0.1475 0.1116,-0.2175 0.0668,-0.0923 0.1492,-0.1632 0.2468,-0.2122 0.0981,-0.049 0.2052,-0.0738 0.3218,-0.0738 0.0886,0 0.1702,0.0169 0.2452,0.0507 0.0746,0.0338 0.1409,0.0836 0.1978,0.1496l0.0325 -0.1714 0.3164 0 -0.2645 1.3279 -0.3016 0zm-0.2126 -1.0778c-0.1149,0 -0.2142,0.0445 -0.2979,0.1335 -0.0836,0.089 -0.1256,0.1961 -0.1256,0.3213 0,0.1105 0.0321,0.1994 0.096,0.267 0.0638,0.0676 0.1483,0.1014 0.2529,0.1014 0.1166,0 0.2155,-0.0445 0.2963,-0.1335 0.0807,-0.089 0.1211,-0.1986 0.1211,-0.3288 0,-0.1055 -0.0321,-0.192 -0.0968,-0.2596 -0.0651,-0.0676 -0.1467,-0.1013 -0.246,-0.1013zm1.3275 -0.2501l-0.0276 0.1269c0.0507,-0.0499 0.1042,-0.087 0.1611,-0.1117 0.0569,-0.0243 0.117,-0.0367 0.1805,-0.0367 0.1594,0 0.2793,0.0363 0.3605,0.1088 0.0807,0.0721 0.1211,0.1801 0.1211,0.3235 0,0.0263 -0.0037,0.0671 -0.0115,0.1223 -0.0074,0.0552 -0.0186,0.1191 -0.033,0.1912l-0.1162 0.6036 -0.3185 0 0.1352 -0.7013c0.0057,-0.0271 0.0099,-0.0548 0.0132,-0.0819 0.0033,-0.0276 0.0049,-0.054 0.0049,-0.08 0,-0.0696 -0.0177,-0.1232 -0.0531,-0.1598 -0.0355,-0.0367 -0.087,-0.0548 -0.1546,-0.0548 -0.0972,0 -0.1755,0.0329 -0.234,0.0988 -0.0589,0.066 -0.1017,0.1698 -0.1294,0.3115l-0.1363 0.6675 -0.3066 0 0.2691 -1.3279 0.2752 0zm1.9183 1.3279l0.0169 -0.0919c-0.0457,0.0429 -0.0968,0.0746 -0.1533,0.0956 -0.0564,0.021 -0.119,0.0313 -0.1883,0.0313 -0.1833,0 -0.3324,-0.0601 -0.4466,-0.1804 -0.1141,-0.1204 -0.1714,-0.2777 -0.1714,-0.4726 0,-0.082 0.0124,-0.1607 0.0367,-0.2353 0.0247,-0.075 0.0618,-0.1475 0.1116,-0.2175 0.0668,-0.0923 0.1492,-0.1632 0.2473,-0.2122 0.0976,-0.049 0.2047,-0.0738 0.3213,-0.0738 0.0886,0 0.1702,0.0169 0.2452,0.0507 0.075,0.0338 0.1409,0.0836 0.1982,0.1496l0.1133 -0.6012 0.3115 0 -0.3379 1.7577 -0.3045 0zm-0.2126 -1.0778c-0.1149,0 -0.2142,0.0445 -0.2979,0.1335 -0.0836,0.089 -0.1256,0.1961 -0.1256,0.3213 0,0.1105 0.0321,0.1994 0.096,0.267 0.0638,0.0676 0.1483,0.1014 0.2529,0.1014 0.1166,0 0.2155,-0.0445 0.2963,-0.1335 0.0807,-0.089 0.1215,-0.1986 0.1215,-0.3288 0,-0.1055 -0.0325,-0.192 -0.0972,-0.2596 -0.0647,-0.0676 -0.1467,-0.1013 -0.246,-0.1013zm1.8046 1.0778l0.0169 -0.0919c-0.0457,0.0429 -0.0968,0.0746 -0.1533,0.0956 -0.0564,0.021 -0.119,0.0313 -0.1883,0.0313 -0.1833,0 -0.3324,-0.0601 -0.4466,-0.1804 -0.1141,-0.1204 -0.1714,-0.2777 -0.1714,-0.4726 0,-0.082 0.0124,-0.1607 0.0367,-0.2353 0.0247,-0.075 0.0618,-0.1475 0.1116,-0.2175 0.0668,-0.0923 0.1492,-0.1632 0.2468,-0.2122 0.0981,-0.049 0.2052,-0.0738 0.3218,-0.0738 0.0886,0 0.1702,0.0169 0.2452,0.0507 0.0746,0.0338 0.1409,0.0836 0.1978,0.1496l0.0325 -0.1714 0.3164 0 -0.2645 1.3279 -0.3016 0zm-0.2126 -1.0778c-0.1149,0 -0.2142,0.0445 -0.2979,0.1335 -0.0836,0.089 -0.1256,0.1961 -0.1256,0.3213 0,0.1105 0.0321,0.1994 0.096,0.267 0.0638,0.0676 0.1483,0.1014 0.2529,0.1014 0.1166,0 0.2155,-0.0445 0.2963,-0.1335 0.0807,-0.089 0.1211,-0.1986 0.1211,-0.3288 0,-0.1055 -0.0321,-0.192 -0.0968,-0.2596 -0.0651,-0.0676 -0.1467,-0.1013 -0.246,-0.1013zm1.8046 1.0778l0.0169 -0.0919c-0.0457,0.0429 -0.0968,0.0746 -0.1533,0.0956 -0.0564,0.021 -0.119,0.0313 -0.1883,0.0313 -0.1833,0 -0.3324,-0.0601 -0.4466,-0.1804 -0.1141,-0.1204 -0.1714,-0.2777 -0.1714,-0.4726 0,-0.082 0.0124,-0.1607 0.0367,-0.2353 0.0247,-0.075 0.0618,-0.1475 0.1116,-0.2175 0.0668,-0.0923 0.1492,-0.1632 0.2468,-0.2122 0.0981,-0.049 0.2052,-0.0738 0.3218,-0.0738 0.0886,0 0.1702,0.0169 0.2452,0.0507 0.0746,0.0338 0.1409,0.0836 0.1978,0.1496l0.0325 -0.1714 0.3164 0 -0.2645 1.3279 -0.3016 0zm-0.2126 -1.0778c-0.1149,0 -0.2142,0.0445 -0.2979,0.1335 -0.0836,0.089 -0.1256,0.1961 -0.1256,0.3213 0,0.1105 0.0321,0.1994 0.096,0.267 0.0638,0.0676 0.1483,0.1014 0.2529,0.1014 0.1166,0 0.2155,-0.0445 0.2963,-0.1335 0.0807,-0.089 0.1211,-0.1986 0.1211,-0.3288 0,-0.1055 -0.0321,-0.192 -0.0968,-0.2596 -0.0651,-0.0676 -0.1467,-0.1013 -0.246,-0.1013zm2.1017 1.0947c-0.0355,0.1706 -0.1063,0.2966 -0.2126,0.3778 -0.1063,0.0812 -0.2538,0.122 -0.4429,0.122 -0.169,0 -0.3115,-0.0396 -0.4273,-0.1191 -0.1158,-0.0791 -0.1833,-0.1825 -0.2027,-0.3107l0.3185 0c0.028,0.0573 0.0696,0.0997 0.1244,0.1278 0.0548,0.0284 0.1228,0.0424 0.204,0.0424 0.11,0 0.1928,-0.0268 0.248,-0.0803 0.0552,-0.0536 0.0919,-0.143 0.1104,-0.2687 -0.0457,0.0429 -0.0968,0.0746 -0.1533,0.0956 -0.0564,0.021 -0.119,0.0313 -0.1883,0.0313 -0.1833,0 -0.3324,-0.0601 -0.4466,-0.1804 -0.1141,-0.1204 -0.1714,-0.2777 -0.1714,-0.4726 0,-0.082 0.0124,-0.1607 0.0367,-0.2353 0.0247,-0.075 0.0618,-0.1475 0.1116,-0.2175 0.0668,-0.0923 0.1492,-0.1632 0.2468,-0.2122 0.0981,-0.049 0.2052,-0.0738 0.3218,-0.0738 0.0886,0 0.1702,0.0169 0.2452,0.0507 0.0746,0.0338 0.1409,0.0836 0.1978,0.1496l0.0325 -0.1714 0.3164 0 -0.269 1.3448zm-0.5097 -1.0947c-0.1149,0 -0.2142,0.0445 -0.2979,0.1335 -0.0836,0.089 -0.1256,0.1961 -0.1256,0.3213 0,0.1105 0.0321,0.1994 0.096,0.267 0.0638,0.0676 0.1483,0.1014 0.2529,0.1014 0.1166,0 0.2155,-0.0445 0.2963,-0.1335 0.0807,-0.089 0.1211,-0.1986 0.1211,-0.3288 0,-0.1055 -0.0321,-0.192 -0.0968,-0.2596 -0.0651,-0.0676 -0.1467,-0.1013 -0.246,-0.1013zm1.6983 1.0778l0.2934 -1.4606 -0.3708 0 0.0568 -0.2971 1.049 0 -0.0568 0.2971 -0.3342 0 -0.2946 1.4606 -0.3428 0zm1.7149 -0.1088c-0.0515,0.0495 -0.1091,0.0861 -0.173,0.11 -0.0643,0.0243 -0.136,0.0363 -0.2155,0.0363 -0.1376,0 -0.2447,-0.0375 -0.3205,-0.1129 -0.0763,-0.0754 -0.1142,-0.1813 -0.1142,-0.3181 0,-0.0338 0.0033,-0.0762 0.0103,-0.1273 0.0066,-0.0511 0.0173,-0.1141 0.0322,-0.1891l0.1182 -0.618 0.321 0 -0.1376 0.7198c-0.0075,0.0337 -0.0124,0.0634 -0.0157,0.0898 -0.0033,0.0259 -0.0049,0.0494 -0.0049,0.0704 0,0.0701 0.0177,0.1232 0.0535,0.1591 0.0359,0.0358 0.0882,0.0535 0.1566,0.0535 0.0972,0 0.1755,-0.0325 0.234,-0.0976 0.0589,-0.0655 0.1018,-0.1685 0.1294,-0.3094l0.1364 -0.6856 0.304 0 -0.2645 1.3279 -0.274 0 0.0243 -0.1088zm0.5216 0.1088l0.2571 -1.3279 0.2827 0 -0.0351 0.1763c0.0565,-0.0737 0.1212,-0.1285 0.1949,-0.1636 0.0738,-0.035 0.1603,-0.0523 0.2604,-0.0523l0.0095 0 -0.0593 0.3115c-0.1422,0.0025 -0.2468,0.0313 -0.3136,0.0861 -0.0671,0.0552 -0.1149,0.1553 -0.1438,0.3l-0.1318 0.6699 -0.321 0zm1.4783 -1.3279l-0.0276 0.1269c0.0507,-0.0499 0.1042,-0.087 0.1611,-0.1117 0.0569,-0.0243 0.117,-0.0367 0.1805,-0.0367 0.1594,0 0.2793,0.0363 0.3605,0.1088 0.0807,0.0721 0.1211,0.1801 0.1211,0.3235 0,0.0263 -0.0037,0.0671 -0.0115,0.1223 -0.0074,0.0552 -0.0186,0.1191 -0.033,0.1912l-0.1162 0.6036 -0.3185 0 0.1352 -0.7013c0.0057,-0.0271 0.0099,-0.0548 0.0132,-0.0819 0.0033,-0.0276 0.0049,-0.054 0.0049,-0.08 0,-0.0696 -0.0177,-0.1232 -0.0531,-0.1598 -0.0355,-0.0367 -0.087,-0.0548 -0.1546,-0.0548 -0.0972,0 -0.1755,0.0329 -0.234,0.0988 -0.0589,0.066 -0.1017,0.1698 -0.1294,0.3115l-0.1363 0.6675 -0.3066 0 0.2691 -1.3279 0.2752 0z"/>
   <path id="_538954224" class="fil2" d="M62.0614 8.3969l0.3415 -1.7577 0.309 0 -0.1038 0.5241c0.0474,-0.0387 0.0973,-0.0675 0.1492,-0.0869 0.0519,-0.0194 0.1067,-0.0289 0.1648,-0.0289 0.1553,0 0.2731,0.0367 0.3535,0.1101 0.0803,0.0729 0.1207,0.1804 0.1207,0.3222 0,0.0263 -0.0037,0.0671 -0.0115,0.1223 -0.0074,0.0552 -0.0186,0.1191 -0.033,0.1912l-0.1162 0.6036 -0.3185 0 0.1352 -0.7013c0.0057,-0.0271 0.0099,-0.0548 0.0132,-0.0819 0.0033,-0.0276 0.0049,-0.054 0.0049,-0.08 0,-0.0696 -0.0177,-0.1232 -0.0531,-0.1598 -0.0355,-0.0367 -0.087,-0.0548 -0.1546,-0.0548 -0.0972,0 -0.1755,0.0329 -0.234,0.0988 -0.0589,0.066 -0.1017,0.1698 -0.1294,0.3115l-0.1289 0.6675 -0.309 0zm2.2125 -1.0778c-0.1175,0 -0.2159,0.0441 -0.2946,0.1326 -0.0787,0.0886 -0.1183,0.2003 -0.1183,0.3346 0,0.1038 0.0326,0.1891 0.0973,0.2559 0.0646,0.0667 0.1479,0.1001 0.2492,0.1001 0.1183,0 0.218,-0.0441 0.3,-0.1327 0.0816,-0.0886 0.1223,-0.1978 0.1223,-0.3271 0,-0.1096 -0.0325,-0.1974 -0.0976,-0.2637 -0.0651,-0.0664 -0.1512,-0.0997 -0.2583,-0.0997zm-0.7194 0.4717c0,-0.1149 0.0226,-0.2229 0.0676,-0.3238 0.0449,-0.101 0.11,-0.1891 0.1944,-0.2637 0.0643,-0.0573 0.1368,-0.1005 0.2172,-0.1298 0.0803,-0.0293 0.1668,-0.0441 0.2595,-0.0441 0.1883,0 0.3424,0.0598 0.4627,0.1797 0.1203,0.1199 0.1805,0.2735 0.1805,0.4614 0,0.1051 -0.0186,0.2052 -0.056,0.2996 -0.0375,0.0947 -0.0911,0.1788 -0.1611,0.2517 -0.066,0.0676 -0.1438,0.1195 -0.2337,0.1557 -0.0898,0.0363 -0.187,0.0544 -0.2913,0.0544 -0.187,0 -0.3403,-0.0601 -0.4602,-0.1804 -0.1199,-0.1204 -0.1796,-0.2736 -0.1796,-0.4607zm2.3707 0.4973c-0.0515,0.0495 -0.1091,0.0861 -0.173,0.11 -0.0643,0.0243 -0.136,0.0363 -0.2155,0.0363 -0.1376,0 -0.2447,-0.0375 -0.3205,-0.1129 -0.0763,-0.0754 -0.1142,-0.1813 -0.1142,-0.3181 0,-0.0338 0.0033,-0.0762 0.0103,-0.1273 0.0066,-0.0511 0.0173,-0.1141 0.0322,-0.1891l0.1182 -0.618 0.321 0 -0.1376 0.7198c-0.0075,0.0337 -0.0124,0.0634 -0.0157,0.0898 -0.0033,0.0259 -0.0049,0.0494 -0.0049,0.0704 0,0.0701 0.0177,0.1232 0.0535,0.1591 0.0359,0.0358 0.0882,0.0535 0.1566,0.0535 0.0972,0 0.1755,-0.0325 0.234,-0.0976 0.0589,-0.0655 0.1018,-0.1685 0.1294,-0.3094l0.1364 -0.6856 0.304 0 -0.2645 1.3279 -0.274 0 0.0243 -0.1088zm0.6061 0.1088l0.2027 -1.0502 -0.1784 0 0.054 -0.2777 0.1788 0 0.0807 -0.4149 0.3202 0 -0.08 0.4149 0.1908 0 -0.0519 0.2777 -0.1932 0 -0.2052 1.0502 -0.3185 0zm-59.4747 2.1363l0.7219 0c-0.0227,-0.0833 -0.0647,-0.1479 -0.1269,-0.1941 -0.0618,-0.0461 -0.1385,-0.0692 -0.2291,-0.0692 -0.0828,0 -0.157,0.0231 -0.2217,0.0696 -0.0647,0.0466 -0.1129,0.1113 -0.1442,0.1937zm0.9732 0.3935c-0.0598,0.1454 -0.1475,0.2566 -0.2645,0.3345 -0.1166,0.0779 -0.2542,0.117 -0.4129,0.117 -0.1866,0 -0.3399,-0.0601 -0.4598,-0.1804 -0.1199,-0.1204 -0.18,-0.274 -0.18,-0.4607 0,-0.1116 0.0226,-0.2179 0.0675,-0.3181 0.045,-0.1001 0.1092,-0.1874 0.192,-0.2624 0.0635,-0.0573 0.1356,-0.1005 0.2159,-0.1306 0.0808,-0.0297 0.1669,-0.0445 0.2584,-0.0445 0.1891,0 0.3436,0.0593 0.4635,0.1784 0.1199,0.1186 0.18,0.2723 0.18,0.4598 0,0.0235 -0.0012,0.0494 -0.0037,0.0783 -0.0024,0.0284 -0.0061,0.0601 -0.0119,0.0947l-1.0502 0c0.0193,0.0969 0.058,0.1706 0.1157,0.2209 0.0581,0.0498 0.1335,0.075 0.2258,0.075 0.0664,0 0.1261,-0.0136 0.1797,-0.0404 0.0535,-0.0268 0.1013,-0.0672 0.1442,-0.1215l0.3403 0zm0.5249 -0.3935l0.7219 0c-0.0227,-0.0833 -0.0647,-0.1479 -0.1269,-0.1941 -0.0618,-0.0461 -0.1385,-0.0692 -0.2291,-0.0692 -0.0828,0 -0.157,0.0231 -0.2217,0.0696 -0.0647,0.0466 -0.1129,0.1113 -0.1442,0.1937zm0.9732 0.3935c-0.0598,0.1454 -0.1475,0.2566 -0.2645,0.3345 -0.1166,0.0779 -0.2542,0.117 -0.4129,0.117 -0.1866,0 -0.3399,-0.0601 -0.4598,-0.1804 -0.1199,-0.1204 -0.18,-0.274 -0.18,-0.4607 0,-0.1116 0.0226,-0.2179 0.0675,-0.3181 0.045,-0.1001 0.1092,-0.1874 0.192,-0.2624 0.0635,-0.0573 0.1356,-0.1005 0.2159,-0.1306 0.0808,-0.0297 0.1669,-0.0445 0.2584,-0.0445 0.1891,0 0.3436,0.0593 0.4635,0.1784 0.1199,0.1186 0.18,0.2723 0.18,0.4598 0,0.0235 -0.0012,0.0494 -0.0037,0.0783 -0.0024,0.0284 -0.0061,0.0601 -0.0119,0.0947l-1.0502 0c0.0193,0.0969 0.058,0.1706 0.1157,0.2209 0.0581,0.0498 0.1335,0.075 0.2258,0.075 0.0664,0 0.1261,-0.0136 0.1797,-0.0404 0.0535,-0.0268 0.1013,-0.0672 0.1442,-0.1215l0.3403 0zm0.6757 -0.9114l-0.0276 0.1269c0.0507,-0.0499 0.1042,-0.087 0.1611,-0.1117 0.0569,-0.0243 0.117,-0.0367 0.1805,-0.0367 0.1594,0 0.2793,0.0363 0.3605,0.1088 0.0807,0.0721 0.1211,0.1801 0.1211,0.3235 0,0.0263 -0.0037,0.0671 -0.0115,0.1223 -0.0074,0.0552 -0.0186,0.1191 -0.033,0.1912l-0.1162 0.6036 -0.3185 0 0.1352 -0.7013c0.0057,-0.0271 0.0099,-0.0548 0.0132,-0.0819 0.0033,-0.0276 0.0049,-0.054 0.0049,-0.08 0,-0.0696 -0.0177,-0.1232 -0.0531,-0.1598 -0.0355,-0.0367 -0.087,-0.0548 -0.1546,-0.0548 -0.0972,0 -0.1755,0.0329 -0.234,0.0988 -0.0589,0.066 -0.1017,0.1698 -0.1294,0.3115l-0.1363 0.6675 -0.3066 0 0.2691 -1.3279 0.2752 0zm2.1186 0.4079c0.0103,0.0008 0.0222,0.0016 0.0354,0.002 0.0132,0.0004 0.033,0.0004 0.0585,0.0004 0.1714,0 0.2983,-0.0251 0.3803,-0.0749 0.082,-0.0499 0.1232,-0.1269 0.1232,-0.2316 0,-0.0775 -0.026,-0.1368 -0.0783,-0.1788 -0.0523,-0.0416 -0.1269,-0.0626 -0.2233,-0.0626 -0.026,0 -0.0548,0.0004 -0.0869,0.0016 -0.0322,0.0012 -0.0672,0.0033 -0.1051,0.0058l-0.1038 0.5381zm0.3584 0.262l0.4017 0.658 -0.3798 0 -0.4083 -0.7812 -0.1508 0.7812 -0.3428 0 0.3403 -1.7577 0.4928 0c0.206,0 0.3646,0.0454 0.4767,0.1364 0.1116,0.0911 0.1677,0.2192 0.1677,0.3852 0,0.1649 -0.054,0.3 -0.162,0.4051 -0.1075,0.1046 -0.2529,0.1627 -0.4355,0.173zm0.9946 -0.152l0.7219 0c-0.0227,-0.0833 -0.0647,-0.1479 -0.1269,-0.1941 -0.0618,-0.0461 -0.1385,-0.0692 -0.2291,-0.0692 -0.0828,0 -0.157,0.0231 -0.2217,0.0696 -0.0647,0.0466 -0.1129,0.1113 -0.1442,0.1937zm0.9732 0.3935c-0.0598,0.1454 -0.1475,0.2566 -0.2645,0.3345 -0.1166,0.0779 -0.2542,0.117 -0.4129,0.117 -0.1866,0 -0.3399,-0.0601 -0.4598,-0.1804 -0.1199,-0.1204 -0.18,-0.274 -0.18,-0.4607 0,-0.1116 0.0226,-0.2179 0.0675,-0.3181 0.045,-0.1001 0.1092,-0.1874 0.192,-0.2624 0.0635,-0.0573 0.1356,-0.1005 0.2159,-0.1306 0.0808,-0.0297 0.1669,-0.0445 0.2584,-0.0445 0.1891,0 0.3436,0.0593 0.4635,0.1784 0.1199,0.1186 0.18,0.2723 0.18,0.4598 0,0.0235 -0.0012,0.0494 -0.0037,0.0783 -0.0024,0.0284 -0.0061,0.0601 -0.0119,0.0947l-1.0502 0c0.0193,0.0969 0.058,0.1706 0.1157,0.2209 0.0581,0.0498 0.1335,0.075 0.2258,0.075 0.0664,0 0.1261,-0.0136 0.1797,-0.0404 0.0535,-0.0268 0.1013,-0.0672 0.1442,-0.1215l0.3403 0zm1.0609 0.3077c-0.0515,0.0495 -0.1091,0.0861 -0.173,0.11 -0.0643,0.0243 -0.136,0.0363 -0.2155,0.0363 -0.1376,0 -0.2447,-0.0375 -0.3205,-0.1129 -0.0763,-0.0754 -0.1142,-0.1813 -0.1142,-0.3181 0,-0.0338 0.0033,-0.0762 0.0103,-0.1273 0.0066,-0.0511 0.0173,-0.1141 0.0322,-0.1891l0.1182 -0.618 0.321 0 -0.1376 0.7198c-0.0075,0.0337 -0.0124,0.0634 -0.0157,0.0898 -0.0033,0.0259 -0.0049,0.0494 -0.0049,0.0704 0,0.0701 0.0177,0.1232 0.0535,0.1591 0.0359,0.0358 0.0882,0.0535 0.1566,0.0535 0.0972,0 0.1755,-0.0325 0.234,-0.0976 0.0589,-0.0655 0.1018,-0.1685 0.1294,-0.3094l0.1364 -0.6856 0.304 0 -0.2645 1.3279 -0.274 0 0.0243 -0.1088zm0.5443 -0.3283l0.3139 0 0 0.0074c0,0.0576 0.0136,0.1026 0.0404,0.1343 0.0272,0.0317 0.0647,0.0478 0.1129,0.0478 0.0379,0 0.0692,-0.012 0.0939,-0.0355 0.0244,-0.0239 0.0367,-0.0539 0.0367,-0.0902 0,-0.0297 -0.0095,-0.0568 -0.0288,-0.0812 -0.0194,-0.0247 -0.0528,-0.0519 -0.0993,-0.0815 -0.0252,-0.0169 -0.0594,-0.0388 -0.1026,-0.0651 -0.0795,-0.0499 -0.1282,-0.0845 -0.145,-0.1039 -0.033,-0.037 -0.0569,-0.0745 -0.0717,-0.1124 -0.0149,-0.0375 -0.0223,-0.0783 -0.0223,-0.1216 0,-0.1186 0.0433,-0.2175 0.1294,-0.2979 0.0861,-0.0799 0.1936,-0.1199 0.3234,-0.1199 0.1232,0 0.2233,0.0367 0.3,0.11 0.077,0.073 0.1153,0.169 0.1153,0.2872l0 0.0206 -0.3139 -0.0012c-0.0017,-0.0491 -0.0124,-0.0865 -0.0322,-0.1121 -0.0197,-0.0251 -0.0478,-0.0379 -0.084,-0.0379 -0.033,0 -0.061,0.0107 -0.0845,0.0321 -0.0235,0.0211 -0.035,0.047 -0.035,0.0767 0,0.0465 0.0519,0.1017 0.1562,0.1656 0.0169,0.0103 0.0304,0.0185 0.0407,0.0251 0.1047,0.0651 0.178,0.1265 0.2192,0.1834 0.0417,0.0573 0.0623,0.1228 0.0623,0.1969 0,0.1273 -0.0437,0.2332 -0.1315,0.3181 -0.0877,0.0849 -0.1982,0.1273 -0.3308,0.1273 -0.1442,0 -0.258,-0.0379 -0.3408,-0.1141 -0.0828,-0.0762 -0.1244,-0.1801 -0.1244,-0.3123 0,-0.0037 0.0004,-0.0111 0.0012,-0.0214 0.0009,-0.0108 0.0013,-0.0186 0.0013,-0.0243zm1.3423 0.4371l-0.2571 -1.3279 0.314 0 0.1701 0.9394 0.5043 -0.9394 0.3453 0 -0.7313 1.3279 -0.3453 0zm0.9938 0l0.2571 -1.3279 0.2827 0 -0.0351 0.1763c0.0565,-0.0737 0.1212,-0.1285 0.1949,-0.1636 0.0738,-0.035 0.1603,-0.0523 0.2604,-0.0523l0.0095 0 -0.0593 0.3115c-0.1422,0.0025 -0.2468,0.0313 -0.3136,0.0861 -0.0671,0.0552 -0.1149,0.1553 -0.1438,0.3l-0.1318 0.6699 -0.321 0zm0.939 0l0.2571 -1.3279 0.3065 0 -0.2571 1.3279 -0.3065 0zm0.2847 -1.468l0.0568 -0.2897 0.3066 0 -0.0569 0.2897 -0.3065 0zm0.6819 0.658l0.7219 0c-0.0227,-0.0833 -0.0647,-0.1479 -0.1269,-0.1941 -0.0618,-0.0461 -0.1385,-0.0692 -0.2291,-0.0692 -0.0828,0 -0.157,0.0231 -0.2217,0.0696 -0.0647,0.0466 -0.1129,0.1113 -0.1442,0.1937zm0.9732 0.3935c-0.0598,0.1454 -0.1475,0.2566 -0.2645,0.3345 -0.1166,0.0779 -0.2542,0.117 -0.4129,0.117 -0.1866,0 -0.3399,-0.0601 -0.4598,-0.1804 -0.1199,-0.1204 -0.18,-0.274 -0.18,-0.4607 0,-0.1116 0.0226,-0.2179 0.0675,-0.3181 0.045,-0.1001 0.1092,-0.1874 0.192,-0.2624 0.0635,-0.0573 0.1356,-0.1005 0.2159,-0.1306 0.0808,-0.0297 0.1669,-0.0445 0.2584,-0.0445 0.1891,0 0.3436,0.0593 0.4635,0.1784 0.1199,0.1186 0.18,0.2723 0.18,0.4598 0,0.0235 -0.0012,0.0494 -0.0037,0.0783 -0.0024,0.0284 -0.0061,0.0601 -0.0119,0.0947l-1.0502 0c0.0193,0.0969 0.058,0.1706 0.1157,0.2209 0.0581,0.0498 0.1335,0.075 0.2258,0.075 0.0664,0 0.1261,-0.0136 0.1797,-0.0404 0.0535,-0.0268 0.1013,-0.0672 0.1442,-0.1215l0.3403 0zm0.6757 -0.9114l-0.0276 0.1269c0.0507,-0.0499 0.1042,-0.087 0.1611,-0.1117 0.0569,-0.0243 0.117,-0.0367 0.1805,-0.0367 0.1594,0 0.2793,0.0363 0.3605,0.1088 0.0807,0.0721 0.1211,0.1801 0.1211,0.3235 0,0.0263 -0.0037,0.0671 -0.0115,0.1223 -0.0074,0.0552 -0.0186,0.1191 -0.033,0.1912l-0.1162 0.6036 -0.3185 0 0.1352 -0.7013c0.0057,-0.0271 0.0099,-0.0548 0.0132,-0.0819 0.0033,-0.0276 0.0049,-0.054 0.0049,-0.08 0,-0.0696 -0.0177,-0.1232 -0.0531,-0.1598 -0.0355,-0.0367 -0.087,-0.0548 -0.1546,-0.0548 -0.0972,0 -0.1755,0.0329 -0.234,0.0988 -0.0589,0.066 -0.1017,0.1698 -0.1294,0.3115l-0.1363 0.6675 -0.3066 0 0.2691 -1.3279 0.2752 0zm1.9183 1.3279l0.0169 -0.0919c-0.0457,0.0429 -0.0968,0.0746 -0.1533,0.0956 -0.0564,0.021 -0.119,0.0313 -0.1883,0.0313 -0.1833,0 -0.3324,-0.0601 -0.4466,-0.1804 -0.1141,-0.1204 -0.1714,-0.2777 -0.1714,-0.4726 0,-0.082 0.0124,-0.1607 0.0367,-0.2353 0.0247,-0.075 0.0618,-0.1475 0.1116,-0.2175 0.0668,-0.0923 0.1492,-0.1632 0.2473,-0.2122 0.0976,-0.049 0.2047,-0.0738 0.3213,-0.0738 0.0886,0 0.1702,0.0169 0.2452,0.0507 0.075,0.0338 0.1409,0.0836 0.1982,0.1496l0.1133 -0.6012 0.3115 0 -0.3379 1.7577 -0.3045 0zm-0.2126 -1.0778c-0.1149,0 -0.2142,0.0445 -0.2979,0.1335 -0.0836,0.089 -0.1256,0.1961 -0.1256,0.3213 0,0.1105 0.0321,0.1994 0.096,0.267 0.0638,0.0676 0.1483,0.1014 0.2529,0.1014 0.1166,0 0.2155,-0.0445 0.2963,-0.1335 0.0807,-0.089 0.1215,-0.1986 0.1215,-0.3288 0,-0.1055 -0.0325,-0.192 -0.0972,-0.2596 -0.0647,-0.0676 -0.1467,-0.1013 -0.246,-0.1013zm1.1767 0.2678l0.7219 0c-0.0227,-0.0833 -0.0647,-0.1479 -0.1269,-0.1941 -0.0618,-0.0461 -0.1385,-0.0692 -0.2291,-0.0692 -0.0828,0 -0.157,0.0231 -0.2217,0.0696 -0.0647,0.0466 -0.1129,0.1113 -0.1442,0.1937zm0.9732 0.3935c-0.0598,0.1454 -0.1475,0.2566 -0.2645,0.3345 -0.1166,0.0779 -0.2542,0.117 -0.4129,0.117 -0.1866,0 -0.3399,-0.0601 -0.4598,-0.1804 -0.1199,-0.1204 -0.18,-0.274 -0.18,-0.4607 0,-0.1116 0.0226,-0.2179 0.0675,-0.3181 0.045,-0.1001 0.1092,-0.1874 0.192,-0.2624 0.0635,-0.0573 0.1356,-0.1005 0.2159,-0.1306 0.0808,-0.0297 0.1669,-0.0445 0.2584,-0.0445 0.1891,0 0.3436,0.0593 0.4635,0.1784 0.1199,0.1186 0.18,0.2723 0.18,0.4598 0,0.0235 -0.0012,0.0494 -0.0037,0.0783 -0.0024,0.0284 -0.0061,0.0601 -0.0119,0.0947l-1.0502 0c0.0193,0.0969 0.058,0.1706 0.1157,0.2209 0.0581,0.0498 0.1335,0.075 0.2258,0.075 0.0664,0 0.1261,-0.0136 0.1797,-0.0404 0.0535,-0.0268 0.1013,-0.0672 0.1442,-0.1215l0.3403 0zm0.1339 0.4165l0.3416 -1.7577 0.309 0 -0.3416 1.7577 -0.309 0zm0.5806 0l0.2571 -1.3279 0.3065 0 -0.2571 1.3279 -0.3065 0zm0.2847 -1.468l0.0568 -0.2897 0.3066 0 -0.0569 0.2897 -0.3065 0zm0.5851 0l0.0544 -0.2897 0.3308 0 -0.0544 0.2897 -0.3308 0zm-0.5863 1.9002l0.0568 -0.2884 0.0227 0c0.0766,0 0.1306,-0.0153 0.1632,-0.0457 0.0321,-0.0309 0.0576,-0.0973 0.077,-0.1995l0.2365 -1.2265 0.3321 0 -0.2596 1.3497c-0.0284,0.148 -0.082,0.2543 -0.1611,0.3189 -0.0795,0.0643 -0.1945,0.0964 -0.3457,0.0964 -0.0259,0 -0.0634,-0.0012 -0.1133,-0.0037l-0.0086 -0.0012zm0.8607 -0.4322l0.3416 -1.7577 0.3234 0 -0.197 1.0078 0.5554 -0.578 0.3935 0 -0.618 0.6411 0.4273 0.6868 -0.3659 0 -0.4079 -0.665 -0.1277 0.665 -0.3247 0zm1.6234 -0.81l0.7219 0c-0.0227,-0.0833 -0.0647,-0.1479 -0.1269,-0.1941 -0.0618,-0.0461 -0.1385,-0.0692 -0.2291,-0.0692 -0.0828,0 -0.157,0.0231 -0.2217,0.0696 -0.0647,0.0466 -0.1129,0.1113 -0.1442,0.1937zm0.9732 0.3935c-0.0598,0.1454 -0.1475,0.2566 -0.2645,0.3345 -0.1166,0.0779 -0.2542,0.117 -0.4129,0.117 -0.1866,0 -0.3399,-0.0601 -0.4598,-0.1804 -0.1199,-0.1204 -0.18,-0.274 -0.18,-0.4607 0,-0.1116 0.0226,-0.2179 0.0675,-0.3181 0.045,-0.1001 0.1092,-0.1874 0.192,-0.2624 0.0635,-0.0573 0.1356,-0.1005 0.2159,-0.1306 0.0808,-0.0297 0.1669,-0.0445 0.2584,-0.0445 0.1891,0 0.3436,0.0593 0.4635,0.1784 0.1199,0.1186 0.18,0.2723 0.18,0.4598 0,0.0235 -0.0012,0.0494 -0.0037,0.0783 -0.0024,0.0284 -0.0061,0.0601 -0.0119,0.0947l-1.0502 0c0.0193,0.0969 0.058,0.1706 0.1157,0.2209 0.0581,0.0498 0.1335,0.075 0.2258,0.075 0.0664,0 0.1261,-0.0136 0.1797,-0.0404 0.0535,-0.0268 0.1013,-0.0672 0.1442,-0.1215l0.3403 0zm2.7169 -0.5006c-0.0231,0.2929 -0.1245,0.5253 -0.3029,0.6971 -0.1788,0.1718 -0.4087,0.2575 -0.6905,0.2575 -0.2423,0 -0.4363,-0.0729 -0.5822,-0.2192 -0.1463,-0.1459 -0.2192,-0.3403 -0.2192,-0.5826 0,-0.1199 0.0153,-0.232 0.0453,-0.3362 0.0301,-0.1042 0.0746,-0.199 0.1335,-0.2843 0.0898,-0.1302 0.2048,-0.2307 0.3445,-0.3016 0.1396,-0.0709 0.2921,-0.1063 0.4581,-0.1063 0.2052,0 0.3758,0.0495 0.5118,0.1483 0.1359,0.0993 0.2262,0.2382 0.2702,0.4178l-0.379 0c-0.0313,-0.075 -0.0845,-0.1335 -0.1586,-0.1755 -0.0746,-0.0424 -0.1624,-0.0634 -0.2637,-0.0634 -0.1788,0 -0.3255,0.063 -0.4405,0.1891 -0.1149,0.1256 -0.1726,0.2884 -0.1726,0.4882 0,0.1512 0.0441,0.2715 0.1327,0.3614 0.0885,0.0898 0.2068,0.1347 0.3547,0.1347 0.1145,0 0.2184,-0.0284 0.3127,-0.0857 0.094,-0.0573 0.1677,-0.1364 0.2209,-0.2378l-0.712 0 0.0589 -0.3015 1.0779 0zm0.461 0.1071l0.7219 0c-0.0227,-0.0833 -0.0647,-0.1479 -0.1269,-0.1941 -0.0618,-0.0461 -0.1385,-0.0692 -0.2291,-0.0692 -0.0828,0 -0.157,0.0231 -0.2217,0.0696 -0.0647,0.0466 -0.1129,0.1113 -0.1442,0.1937zm0.9732 0.3935c-0.0598,0.1454 -0.1475,0.2566 -0.2645,0.3345 -0.1166,0.0779 -0.2542,0.117 -0.4129,0.117 -0.1866,0 -0.3399,-0.0601 -0.4598,-0.1804 -0.1199,-0.1204 -0.18,-0.274 -0.18,-0.4607 0,-0.1116 0.0226,-0.2179 0.0675,-0.3181 0.045,-0.1001 0.1092,-0.1874 0.192,-0.2624 0.0635,-0.0573 0.1356,-0.1005 0.2159,-0.1306 0.0808,-0.0297 0.1669,-0.0445 0.2584,-0.0445 0.1891,0 0.3436,0.0593 0.4635,0.1784 0.1199,0.1186 0.18,0.2723 0.18,0.4598 0,0.0235 -0.0012,0.0494 -0.0037,0.0783 -0.0024,0.0284 -0.0061,0.0601 -0.0119,0.0947l-1.0502 0c0.0193,0.0969 0.058,0.1706 0.1157,0.2209 0.0581,0.0498 0.1335,0.075 0.2258,0.075 0.0664,0 0.1261,-0.0136 0.1797,-0.0404 0.0535,-0.0268 0.1013,-0.0672 0.1442,-0.1215l0.3403 0zm0.6675 -0.9114l-0.0289 0.1269c0.0507,-0.0507 0.1059,-0.0886 0.1665,-0.1133 0.0601,-0.0252 0.1265,-0.0375 0.199,-0.0375 0.0997,0 0.185,0.0185 0.2558,0.056 0.0709,0.0375 0.1257,0.0927 0.1644,0.1661 0.0602,-0.0742 0.1273,-0.1294 0.2015,-0.1665 0.0738,-0.0371 0.1545,-0.0556 0.2415,-0.0556 0.1437,0 0.2566,0.0383 0.3378,0.1145 0.0812,0.0766 0.122,0.1834 0.122,0.3202 0,0.0618 -0.0132,0.1573 -0.04,0.2871 -0.0025,0.012 -0.0037,0.021 -0.0045,0.0264l-0.1175 0.6036 -0.3184 0 0.1363 -0.7025c0.0058,-0.0272 0.0099,-0.0544 0.0128,-0.0807 0.0029,-0.0268 0.0041,-0.0532 0.0041,-0.08 0,-0.0696 -0.0173,-0.1232 -0.0523,-0.1598 -0.035,-0.0367 -0.0869,-0.0548 -0.1553,-0.0548 -0.0964,0 -0.1747,0.0333 -0.2341,0.1001 -0.0597,0.0667 -0.1026,0.1701 -0.1293,0.3102l-0.1278 0.6675 -0.3197 0 0.1364 -0.7013c0.0054,-0.0271 0.0095,-0.0543 0.0124,-0.0815 0.0028,-0.0268 0.0045,-0.0536 0.0045,-0.0804 0,-0.0696 -0.0177,-0.1232 -0.0527,-0.1598 -0.0351,-0.0367 -0.0866,-0.0548 -0.155,-0.0548 -0.0968,0 -0.1743,0.0329 -0.2332,0.0988 -0.0585,0.066 -0.1021,0.1698 -0.1302,0.3115l-0.1351 0.6675 -0.302 0 0.2645 -1.3279 0.2765 0zm2.1643 0.5179l0.7219 0c-0.0227,-0.0833 -0.0647,-0.1479 -0.1269,-0.1941 -0.0618,-0.0461 -0.1385,-0.0692 -0.2291,-0.0692 -0.0828,0 -0.157,0.0231 -0.2217,0.0696 -0.0647,0.0466 -0.1129,0.1113 -0.1442,0.1937zm0.9732 0.3935c-0.0598,0.1454 -0.1475,0.2566 -0.2645,0.3345 -0.1166,0.0779 -0.2542,0.117 -0.4129,0.117 -0.1866,0 -0.3399,-0.0601 -0.4598,-0.1804 -0.1199,-0.1204 -0.18,-0.274 -0.18,-0.4607 0,-0.1116 0.0226,-0.2179 0.0675,-0.3181 0.045,-0.1001 0.1092,-0.1874 0.192,-0.2624 0.0635,-0.0573 0.1356,-0.1005 0.2159,-0.1306 0.0808,-0.0297 0.1669,-0.0445 0.2584,-0.0445 0.1891,0 0.3436,0.0593 0.4635,0.1784 0.1199,0.1186 0.18,0.2723 0.18,0.4598 0,0.0235 -0.0012,0.0494 -0.0037,0.0783 -0.0024,0.0284 -0.0061,0.0601 -0.0119,0.0947l-1.0502 0c0.0193,0.0969 0.058,0.1706 0.1157,0.2209 0.0581,0.0498 0.1335,0.075 0.2258,0.075 0.0664,0 0.1261,-0.0136 0.1797,-0.0404 0.0535,-0.0268 0.1013,-0.0672 0.1442,-0.1215l0.3403 0zm0.5249 -0.3935l0.7219 0c-0.0227,-0.0833 -0.0647,-0.1479 -0.1269,-0.1941 -0.0618,-0.0461 -0.1385,-0.0692 -0.2291,-0.0692 -0.0828,0 -0.157,0.0231 -0.2217,0.0696 -0.0647,0.0466 -0.1129,0.1113 -0.1442,0.1937zm0.9732 0.3935c-0.0598,0.1454 -0.1475,0.2566 -0.2645,0.3345 -0.1166,0.0779 -0.2542,0.117 -0.4129,0.117 -0.1866,0 -0.3399,-0.0601 -0.4598,-0.1804 -0.1199,-0.1204 -0.18,-0.274 -0.18,-0.4607 0,-0.1116 0.0226,-0.2179 0.0675,-0.3181 0.045,-0.1001 0.1092,-0.1874 0.192,-0.2624 0.0635,-0.0573 0.1356,-0.1005 0.2159,-0.1306 0.0808,-0.0297 0.1669,-0.0445 0.2584,-0.0445 0.1891,0 0.3436,0.0593 0.4635,0.1784 0.1199,0.1186 0.18,0.2723 0.18,0.4598 0,0.0235 -0.0012,0.0494 -0.0037,0.0783 -0.0024,0.0284 -0.0061,0.0601 -0.0119,0.0947l-1.0502 0c0.0193,0.0969 0.058,0.1706 0.1157,0.2209 0.0581,0.0498 0.1335,0.075 0.2258,0.075 0.0664,0 0.1261,-0.0136 0.1797,-0.0404 0.0535,-0.0268 0.1013,-0.0672 0.1442,-0.1215l0.3403 0zm0.6757 -0.9114l-0.0276 0.1269c0.0507,-0.0499 0.1042,-0.087 0.1611,-0.1117 0.0569,-0.0243 0.117,-0.0367 0.1805,-0.0367 0.1594,0 0.2793,0.0363 0.3605,0.1088 0.0807,0.0721 0.1211,0.1801 0.1211,0.3235 0,0.0263 -0.0037,0.0671 -0.0115,0.1223 -0.0074,0.0552 -0.0186,0.1191 -0.033,0.1912l-0.1162 0.6036 -0.3185 0 0.1352 -0.7013c0.0057,-0.0271 0.0099,-0.0548 0.0132,-0.0819 0.0033,-0.0276 0.0049,-0.054 0.0049,-0.08 0,-0.0696 -0.0177,-0.1232 -0.0531,-0.1598 -0.0355,-0.0367 -0.087,-0.0548 -0.1546,-0.0548 -0.0972,0 -0.1755,0.0329 -0.234,0.0988 -0.0589,0.066 -0.1017,0.1698 -0.1294,0.3115l-0.1363 0.6675 -0.3066 0 0.2691 -1.3279 0.2752 0zm0.9913 1.3279l0.2027 -1.0502 -0.1784 0 0.054 -0.2777 0.1788 0 0.0807 -0.4149 0.3202 0 -0.08 0.4149 0.1908 0 -0.0519 0.2777 -0.1932 0 -0.2052 1.0502 -0.3185 0zm1.1128 -0.81l0.7219 0c-0.0227,-0.0833 -0.0647,-0.1479 -0.1269,-0.1941 -0.0618,-0.0461 -0.1385,-0.0692 -0.2291,-0.0692 -0.0828,0 -0.157,0.0231 -0.2217,0.0696 -0.0647,0.0466 -0.1129,0.1113 -0.1442,0.1937zm0.9732 0.3935c-0.0598,0.1454 -0.1475,0.2566 -0.2645,0.3345 -0.1166,0.0779 -0.2542,0.117 -0.4129,0.117 -0.1866,0 -0.3399,-0.0601 -0.4598,-0.1804 -0.1199,-0.1204 -0.18,-0.274 -0.18,-0.4607 0,-0.1116 0.0226,-0.2179 0.0675,-0.3181 0.045,-0.1001 0.1092,-0.1874 0.192,-0.2624 0.0635,-0.0573 0.1356,-0.1005 0.2159,-0.1306 0.0808,-0.0297 0.1669,-0.0445 0.2584,-0.0445 0.1891,0 0.3436,0.0593 0.4635,0.1784 0.1199,0.1186 0.18,0.2723 0.18,0.4598 0,0.0235 -0.0012,0.0494 -0.0037,0.0783 -0.0024,0.0284 -0.0061,0.0601 -0.0119,0.0947l-1.0502 0c0.0193,0.0969 0.058,0.1706 0.1157,0.2209 0.0581,0.0498 0.1335,0.075 0.2258,0.075 0.0664,0 0.1261,-0.0136 0.1797,-0.0404 0.0535,-0.0268 0.1013,-0.0672 0.1442,-0.1215l0.3403 0zm2.1693 0.4334c-0.0355,0.1706 -0.1063,0.2966 -0.2126,0.3778 -0.1063,0.0812 -0.2538,0.122 -0.4429,0.122 -0.169,0 -0.3115,-0.0396 -0.4273,-0.1191 -0.1158,-0.0791 -0.1833,-0.1825 -0.2027,-0.3107l0.3185 0c0.028,0.0573 0.0696,0.0997 0.1244,0.1278 0.0548,0.0284 0.1228,0.0424 0.204,0.0424 0.11,0 0.1928,-0.0268 0.248,-0.0803 0.0552,-0.0536 0.0919,-0.143 0.1104,-0.2687 -0.0457,0.0429 -0.0968,0.0746 -0.1533,0.0956 -0.0564,0.021 -0.119,0.0313 -0.1883,0.0313 -0.1833,0 -0.3324,-0.0601 -0.4466,-0.1804 -0.1141,-0.1204 -0.1714,-0.2777 -0.1714,-0.4726 0,-0.082 0.0124,-0.1607 0.0367,-0.2353 0.0247,-0.075 0.0618,-0.1475 0.1116,-0.2175 0.0668,-0.0923 0.1492,-0.1632 0.2468,-0.2122 0.0981,-0.049 0.2052,-0.0738 0.3218,-0.0738 0.0886,0 0.1702,0.0169 0.2452,0.0507 0.0746,0.0338 0.1409,0.0836 0.1978,0.1496l0.0325 -0.1714 0.3164 0 -0.269 1.3448zm-0.5097 -1.0947c-0.1149,0 -0.2142,0.0445 -0.2979,0.1335 -0.0836,0.089 -0.1256,0.1961 -0.1256,0.3213 0,0.1105 0.0321,0.1994 0.096,0.267 0.0638,0.0676 0.1483,0.1014 0.2529,0.1014 0.1166,0 0.2155,-0.0445 0.2963,-0.1335 0.0807,-0.089 0.1211,-0.1986 0.1211,-0.3288 0,-0.1055 -0.0321,-0.192 -0.0968,-0.2596 -0.0651,-0.0676 -0.1467,-0.1013 -0.246,-0.1013zm1.1767 0.2678l0.7219 0c-0.0227,-0.0833 -0.0647,-0.1479 -0.1269,-0.1941 -0.0618,-0.0461 -0.1385,-0.0692 -0.2291,-0.0692 -0.0828,0 -0.157,0.0231 -0.2217,0.0696 -0.0647,0.0466 -0.1129,0.1113 -0.1442,0.1937zm0.9732 0.3935c-0.0598,0.1454 -0.1475,0.2566 -0.2645,0.3345 -0.1166,0.0779 -0.2542,0.117 -0.4129,0.117 -0.1866,0 -0.3399,-0.0601 -0.4598,-0.1804 -0.1199,-0.1204 -0.18,-0.274 -0.18,-0.4607 0,-0.1116 0.0226,-0.2179 0.0675,-0.3181 0.045,-0.1001 0.1092,-0.1874 0.192,-0.2624 0.0635,-0.0573 0.1356,-0.1005 0.2159,-0.1306 0.0808,-0.0297 0.1669,-0.0445 0.2584,-0.0445 0.1891,0 0.3436,0.0593 0.4635,0.1784 0.1199,0.1186 0.18,0.2723 0.18,0.4598 0,0.0235 -0.0012,0.0494 -0.0037,0.0783 -0.0024,0.0284 -0.0061,0.0601 -0.0119,0.0947l-1.0502 0c0.0193,0.0969 0.058,0.1706 0.1157,0.2209 0.0581,0.0498 0.1335,0.075 0.2258,0.075 0.0664,0 0.1261,-0.0136 0.1797,-0.0404 0.0535,-0.0268 0.1013,-0.0672 0.1442,-0.1215l0.3403 0zm0.2896 0.4165l-0.0943 -1.3279 0.2946 0 0.035 0.932 0.4322 -0.932 0.2917 0 0.0593 0.9225 0.4393 -0.9225 0.3139 0 -0.6749 1.3279 -0.3016 0 -0.0857 -0.8895 -0.4029 0.8895 -0.3066 0zm2.4372 -1.0778c-0.1175,0 -0.2159,0.0441 -0.2946,0.1326 -0.0787,0.0886 -0.1183,0.2003 -0.1183,0.3346 0,0.1038 0.0326,0.1891 0.0973,0.2559 0.0646,0.0667 0.1479,0.1001 0.2492,0.1001 0.1183,0 0.218,-0.0441 0.3,-0.1327 0.0816,-0.0886 0.1223,-0.1978 0.1223,-0.3271 0,-0.1096 -0.0325,-0.1974 -0.0976,-0.2637 -0.0651,-0.0664 -0.1512,-0.0997 -0.2583,-0.0997zm-0.7194 0.4717c0,-0.1149 0.0226,-0.2229 0.0676,-0.3238 0.0449,-0.101 0.11,-0.1891 0.1944,-0.2637 0.0643,-0.0573 0.1368,-0.1005 0.2172,-0.1298 0.0803,-0.0293 0.1668,-0.0441 0.2595,-0.0441 0.1883,0 0.3424,0.0598 0.4627,0.1797 0.1203,0.1199 0.1805,0.2735 0.1805,0.4614 0,0.1051 -0.0186,0.2052 -0.056,0.2996 -0.0375,0.0947 -0.0911,0.1788 -0.1611,0.2517 -0.066,0.0676 -0.1438,0.1195 -0.2337,0.1557 -0.0898,0.0363 -0.187,0.0544 -0.2913,0.0544 -0.187,0 -0.3403,-0.0601 -0.4602,-0.1804 -0.1199,-0.1204 -0.1796,-0.2736 -0.1796,-0.4607zm1.4511 0.6061l0.2571 -1.3279 0.2827 0 -0.0351 0.1763c0.0565,-0.0737 0.1212,-0.1285 0.1949,-0.1636 0.0738,-0.035 0.1603,-0.0523 0.2604,-0.0523l0.0095 0 -0.0593 0.3115c-0.1422,0.0025 -0.2468,0.0313 -0.3136,0.0861 -0.0671,0.0552 -0.1149,0.1553 -0.1438,0.3l-0.1318 0.6699 -0.321 0zm1.9554 0l0.0169 -0.0919c-0.0457,0.0429 -0.0968,0.0746 -0.1533,0.0956 -0.0564,0.021 -0.119,0.0313 -0.1883,0.0313 -0.1833,0 -0.3324,-0.0601 -0.4466,-0.1804 -0.1141,-0.1204 -0.1714,-0.2777 -0.1714,-0.4726 0,-0.082 0.0124,-0.1607 0.0367,-0.2353 0.0247,-0.075 0.0618,-0.1475 0.1116,-0.2175 0.0668,-0.0923 0.1492,-0.1632 0.2473,-0.2122 0.0976,-0.049 0.2047,-0.0738 0.3213,-0.0738 0.0886,0 0.1702,0.0169 0.2452,0.0507 0.075,0.0338 0.1409,0.0836 0.1982,0.1496l0.1133 -0.6012 0.3115 0 -0.3379 1.7577 -0.3045 0zm-0.2126 -1.0778c-0.1149,0 -0.2142,0.0445 -0.2979,0.1335 -0.0836,0.089 -0.1256,0.1961 -0.1256,0.3213 0,0.1105 0.0321,0.1994 0.096,0.267 0.0638,0.0676 0.1483,0.1014 0.2529,0.1014 0.1166,0 0.2155,-0.0445 0.2963,-0.1335 0.0807,-0.089 0.1215,-0.1986 0.1215,-0.3288 0,-0.1055 -0.0325,-0.192 -0.0972,-0.2596 -0.0647,-0.0676 -0.1467,-0.1013 -0.246,-0.1013z"/>
   <path id="_538954200" class="fil2" d="M53.8498 10.5332l0.7219 0c-0.0227,-0.0833 -0.0647,-0.1479 -0.1269,-0.1941 -0.0618,-0.0461 -0.1385,-0.0692 -0.2291,-0.0692 -0.0828,0 -0.157,0.0231 -0.2217,0.0696 -0.0647,0.0466 -0.1129,0.1113 -0.1442,0.1937zm0.9732 0.3935c-0.0598,0.1454 -0.1475,0.2566 -0.2645,0.3345 -0.1166,0.0779 -0.2542,0.117 -0.4129,0.117 -0.1866,0 -0.3399,-0.0601 -0.4598,-0.1804 -0.1199,-0.1204 -0.18,-0.274 -0.18,-0.4607 0,-0.1116 0.0226,-0.2179 0.0675,-0.3181 0.045,-0.1001 0.1092,-0.1874 0.192,-0.2624 0.0635,-0.0573 0.1356,-0.1005 0.2159,-0.1306 0.0808,-0.0297 0.1669,-0.0445 0.2584,-0.0445 0.1891,0 0.3436,0.0593 0.4635,0.1784 0.1199,0.1186 0.18,0.2723 0.18,0.4598 0,0.0235 -0.0012,0.0494 -0.0037,0.0783 -0.0024,0.0284 -0.0061,0.0601 -0.0119,0.0947l-1.0502 0c0.0193,0.0969 0.058,0.1706 0.1157,0.2209 0.0581,0.0498 0.1335,0.075 0.2258,0.075 0.0664,0 0.1261,-0.0136 0.1797,-0.0404 0.0535,-0.0268 0.1013,-0.0672 0.1442,-0.1215l0.3403 0zm0.6757 -0.9114l-0.0276 0.1269c0.0507,-0.0499 0.1042,-0.087 0.1611,-0.1117 0.0569,-0.0243 0.117,-0.0367 0.1805,-0.0367 0.1594,0 0.2793,0.0363 0.3605,0.1088 0.0807,0.0721 0.1211,0.1801 0.1211,0.3235 0,0.0263 -0.0037,0.0671 -0.0115,0.1223 -0.0074,0.0552 -0.0186,0.1191 -0.033,0.1912l-0.1162 0.6036 -0.3185 0 0.1352 -0.7013c0.0057,-0.0271 0.0099,-0.0548 0.0132,-0.0819 0.0033,-0.0276 0.0049,-0.054 0.0049,-0.08 0,-0.0696 -0.0177,-0.1232 -0.0531,-0.1598 -0.0355,-0.0367 -0.087,-0.0548 -0.1546,-0.0548 -0.0972,0 -0.1755,0.0329 -0.234,0.0988 -0.0589,0.066 -0.1017,0.1698 -0.1294,0.3115l-0.1363 0.6675 -0.3066 0 0.2691 -1.3279 0.2752 0zm1.6213 1.3279l0.2571 -1.3279 0.3065 0 -0.2571 1.3279 -0.3065 0zm0.2847 -1.468l0.0568 -0.2897 0.3066 0 -0.0569 0.2897 -0.3065 0zm0.321 1.0309l0.3139 0 0 0.0074c0,0.0576 0.0136,0.1026 0.0404,0.1343 0.0272,0.0317 0.0647,0.0478 0.1129,0.0478 0.0379,0 0.0692,-0.012 0.0939,-0.0355 0.0244,-0.0239 0.0367,-0.0539 0.0367,-0.0902 0,-0.0297 -0.0095,-0.0568 -0.0288,-0.0812 -0.0194,-0.0247 -0.0528,-0.0519 -0.0993,-0.0815 -0.0252,-0.0169 -0.0594,-0.0388 -0.1026,-0.0651 -0.0795,-0.0499 -0.1282,-0.0845 -0.145,-0.1039 -0.033,-0.037 -0.0569,-0.0745 -0.0717,-0.1124 -0.0149,-0.0375 -0.0223,-0.0783 -0.0223,-0.1216 0,-0.1186 0.0433,-0.2175 0.1294,-0.2979 0.0861,-0.0799 0.1936,-0.1199 0.3234,-0.1199 0.1232,0 0.2233,0.0367 0.3,0.11 0.077,0.073 0.1153,0.169 0.1153,0.2872l0 0.0206 -0.3139 -0.0012c-0.0017,-0.0491 -0.0124,-0.0865 -0.0322,-0.1121 -0.0197,-0.0251 -0.0478,-0.0379 -0.084,-0.0379 -0.033,0 -0.061,0.0107 -0.0845,0.0321 -0.0235,0.0211 -0.035,0.047 -0.035,0.0767 0,0.0465 0.0519,0.1017 0.1562,0.1656 0.0169,0.0103 0.0304,0.0185 0.0407,0.0251 0.1047,0.0651 0.178,0.1265 0.2192,0.1834 0.0417,0.0573 0.0623,0.1228 0.0623,0.1969 0,0.1273 -0.0437,0.2332 -0.1315,0.3181 -0.0877,0.0849 -0.1982,0.1273 -0.3308,0.1273 -0.1442,0 -0.258,-0.0379 -0.3408,-0.1141 -0.0828,-0.0762 -0.1244,-0.1801 -0.1244,-0.3123 0,-0.0037 0.0004,-0.0111 0.0012,-0.0214 0.0009,-0.0108 0.0013,-0.0186 0.0013,-0.0243zm1.4461 0.4371l-0.309 0 0.0639 -0.3308 0.309 0 -0.0639 0.3308zm0.7194 0l-0.309 0 0.0639 -0.3308 0.309 0 -0.0639 0.3308zm0.7194 0l-0.309 0 0.0639 -0.3308 0.309 0 -0.0639 0.3308z"/>
  </g>
  <g id="_538954512">
   <path id="_538954128" class="fil2" d="M49.7487 14.6778l-0.842 0 0.0225 -0.1078 0.3894 -0.3393c0.0145,-0.0127 0.0358,-0.0313 0.0643,-0.0554 0.2438,-0.2107 0.3658,-0.3757 0.3658,-0.4953 0,-0.0686 -0.021,-0.1236 -0.0633,-0.1647 -0.0424,-0.0411 -0.0992,-0.0615 -0.1703,-0.0615 -0.0871,0 -0.157,0.0278 -0.2101,0.0837 -0.0532,0.056 -0.0893,0.14 -0.1088,0.2522l-0.1248 0c0.0151,-0.1443 0.0602,-0.2565 0.1356,-0.3365 0.0757,-0.0801 0.174,-0.1199 0.2954,-0.1199 0.1079,0 0.1966,0.0337 0.2661,0.101 0.0695,0.0671 0.1041,0.1521 0.1041,0.2546 0,0.077 -0.0231,0.1515 -0.0698,0.2238 -0.0463,0.0726 -0.1412,0.1718 -0.2843,0.2979l-0.41 0.3594 0.66 0 -0.0198 0.1078zm0.3276 -0.9159c0.0278,-0.1419 0.081,-0.2491 0.1598,-0.3214 0.0788,-0.0726 0.1817,-0.1088 0.3093,-0.1088 0.1304,0 0.233,0.0331 0.3081,0.0992 0.0751,0.0661 0.1128,0.1555 0.1128,0.2682 0,0.0195 -0.0012,0.0415 -0.004,0.0659 -0.0028,0.0244 -0.0068,0.0503 -0.0124,0.0781l-0.085 0.4327c-0.029,0.1424 -0.0825,0.2497 -0.161,0.322 -0.0785,0.072 -0.181,0.1081 -0.3077,0.1081 -0.1335,0 -0.2368,-0.033 -0.3097,-0.0992 -0.0732,-0.0661 -0.1097,-0.1591 -0.1097,-0.2793 0,-0.0198 0.0013,-0.0402 0.0037,-0.0615 0.0025,-0.021 0.0059,-0.0442 0.0108,-0.0695l0.085 -0.4345zm0.6638 0.495l0.084 -0.4264c0.0062,-0.0312 0.0109,-0.0581 0.0136,-0.0801 0.0031,-0.0219 0.0047,-0.0417 0.0047,-0.0593 0,-0.0711 -0.0266,-0.1289 -0.0801,-0.1727 -0.0534,-0.0442 -0.1242,-0.0662 -0.2126,-0.0662 -0.1026,0 -0.1804,0.0248 -0.2336,0.0742 -0.0528,0.0494 -0.0914,0.1344 -0.1149,0.2543l-0.0841 0.4283c-0.0055,0.0281 -0.0096,0.0538 -0.0123,0.0763 -0.0028,0.0226 -0.0041,0.0433 -0.0041,0.0622 0,0.0717 0.0263,0.1294 0.0791,0.1727 0.0529,0.0436 0.1233,0.0652 0.2117,0.0652 0.1032,0 0.1811,-0.0247 0.2339,-0.0739 0.0529,-0.0491 0.0912,-0.1341 0.1147,-0.2546zm0.8473 0.4209l-0.1257 0 0.2135 -1.1091 -0.4082 0.4435 -0.0905 -0.0779 0.5278 -0.5748 0.1393 0 -0.2562 1.3183zm0.6774 -0.8192c0,0.0939 0.0291,0.17 0.0869,0.2281 0.0581,0.0577 0.1341,0.0868 0.2283,0.0868 0.1039,0 0.1889,-0.0371 0.2556,-0.111 0.0667,-0.0738 0.1001,-0.1684 0.1001,-0.2836 0,-0.0974 -0.0281,-0.1759 -0.084,-0.2355 -0.0563,-0.0596 -0.1295,-0.0896 -0.2201,-0.0896 -0.1069,0 -0.1946,0.038 -0.2635,0.1137 -0.069,0.0757 -0.1033,0.1727 -0.1033,0.2911zm0.1539 0.8192l-0.1557 0 0.372 -0.4094c-0.0139,0.0012 -0.0281,0.0024 -0.0429,0.0037 -0.0148,0.0012 -0.0287,0.0018 -0.042,0.0018 -0.1267,0 -0.2268,-0.0368 -0.3001,-0.1103 -0.0732,-0.0739 -0.11,-0.1743 -0.11,-0.3016 0,-0.1527 0.0454,-0.279 0.1366,-0.3789 0.0911,-0.0998 0.2058,-0.1498 0.3439,-0.1498 0.1273,0 0.2327,0.0408 0.3161,0.1223 0.0832,0.0813 0.1249,0.1839 0.1249,0.3078 0,0.0408 -0.004,0.081 -0.0124,0.1199 -0.008,0.039 -0.0204,0.0767 -0.0374,0.1137 -0.0309,0.0686 -0.1004,0.1595 -0.2092,0.2723 -0.0173,0.0182 -0.0302,0.0318 -0.0389,0.0408l-0.3449 0.3677zm1.721 -0.5578l-0.0225 0.1205 -0.4265 0 0.0226 -0.1205 0.4264 0zm0.5878 0.5578l0.2534 -1.3183 0.1267 0 -0.2299 1.1978 0.5488 0 -0.0244 0.1205 -0.6746 0zm1.4487 0l0.021 -0.0943c-0.0479,0.0399 -0.0967,0.0699 -0.1468,0.0903 -0.05,0.0201 -0.1013,0.0303 -0.1538,0.0303 -0.1076,0 -0.1944,-0.0303 -0.2612,-0.0906 -0.0667,-0.0602 -0.1001,-0.139 -0.1001,-0.2364 0,-0.0374 0.0022,-0.076 0.0065,-0.1162 0.004,-0.0401 0.0105,-0.0806 0.0189,-0.1208l0.0951 -0.4583 0.1205 0 -0.1041 0.518c-0.0056,0.0271 -0.0096,0.0525 -0.0124,0.0763 -0.0027,0.0241 -0.004,0.0469 -0.004,0.0695 0,0.076 0.021,0.135 0.0631,0.1768 0.0417,0.042 0.1004,0.063 0.1758,0.063 0.101,0 0.1811,-0.0297 0.241,-0.0887 0.0597,-0.0593 0.1026,-0.1514 0.1286,-0.2772l0.1084 -0.5377 0.1169 0 -0.1919 0.996 -0.1215 0zm0.7216 -1.3183l-0.1684 0.8727 0.524 -0.5504 0.1604 0 -0.4564 0.4725 0.3223 0.5235 -0.1465 0 -0.2688 -0.4283 -0.174 0.1802 -0.0479 0.2481 -0.1186 0 0.2552 -1.3183 0.1187 0zm2.2234 0.432c-0.0315,-0.1075 -0.0868,-0.19 -0.1663,-0.2475 -0.0794,-0.0578 -0.1776,-0.0865 -0.2954,-0.0865 -0.0809,0 -0.1573,0.0148 -0.2293,0.0445 -0.0717,0.0293 -0.1356,0.0723 -0.1919,0.1285 -0.0571,0.0572 -0.1016,0.1255 -0.1325,0.2049 -0.0312,0.0794 -0.0467,0.1632 -0.0467,0.2513 0,0.1532 0.0433,0.2747 0.1298,0.3643 0.0868,0.0896 0.2039,0.1344 0.352,0.1344 0.1063,0 0.2021,-0.0244 0.2874,-0.0732 0.0856,-0.0489 0.1579,-0.1205 0.2169,-0.2145l0.1502 0c-0.0609,0.1298 -0.149,0.2299 -0.2642,0.3004 -0.1156,0.0707 -0.2485,0.106 -0.3993,0.106 -0.1848,0 -0.3331,-0.0544 -0.4447,-0.1629 -0.1115,-0.1088 -0.1675,-0.2525 -0.1675,-0.4311 0,-0.11 0.0173,-0.2119 0.0516,-0.3059 0.0344,-0.0942 0.0841,-0.1746 0.1487,-0.241 0.0723,-0.0748 0.1529,-0.1314 0.2419,-0.17 0.089,-0.0386 0.1842,-0.0581 0.285,-0.0581 0.1634,0 0.2997,0.0402 0.4082,0.1205 0.1087,0.0804 0.1783,0.1922 0.2092,0.3359l-0.1431 0zm1.0921 0.3165c-0.0096,-0.1063 -0.0461,-0.1901 -0.1094,-0.2513 -0.0637,-0.0611 -0.1449,-0.0917 -0.2448,-0.0917 -0.0976,0 -0.1829,0.0309 -0.2561,0.0927 -0.073,0.0618 -0.1221,0.1452 -0.1474,0.2503l0.7577 0zm0.0952 0.2376c-0.0482,0.1196 -0.1156,0.2092 -0.2018,0.2689 -0.0866,0.0596 -0.1925,0.0896 -0.318,0.0896 -0.1406,0 -0.2559,-0.0452 -0.3455,-0.1351 -0.0896,-0.0899 -0.1344,-0.2052 -0.1344,-0.3458 0,-0.0849 0.0167,-0.1653 0.0497,-0.2407 0.0334,-0.0754 0.081,-0.1409 0.1431,-0.1965 0.0488,-0.0436 0.1042,-0.0763 0.1653,-0.0983 0.0612,-0.0219 0.1264,-0.0331 0.196,-0.0331 0.1436,0 0.2595,0.0461 0.3473,0.1385 0.0878,0.0924 0.1316,0.2148 0.1316,0.3674 0,0.0151 0,0.0266 -0.0003,0.0346 -0.0003,0.0077 -0.0012,0.0155 -0.0024,0.0226l-0.899 0c0,0.1125 0.0322,0.203 0.0964,0.2719 0.0643,0.0689 0.1477,0.1032 0.2503,0.1032 0.0859,0 0.1601,-0.0204 0.2228,-0.0615 0.0628,-0.0411 0.1141,-0.1029 0.1539,-0.1857l0.145 0zm0.7929 0.3322l0.021 -0.0943c-0.0479,0.0399 -0.0967,0.0699 -0.1468,0.0903 -0.05,0.0201 -0.1013,0.0303 -0.1538,0.0303 -0.1076,0 -0.1944,-0.0303 -0.2612,-0.0906 -0.0667,-0.0602 -0.1001,-0.139 -0.1001,-0.2364 0,-0.0374 0.0022,-0.076 0.0065,-0.1162 0.004,-0.0401 0.0105,-0.0806 0.0189,-0.1208l0.0951 -0.4583 0.1205 0 -0.1041 0.518c-0.0056,0.0271 -0.0096,0.0525 -0.0124,0.0763 -0.0027,0.0241 -0.004,0.0469 -0.004,0.0695 0,0.076 0.021,0.135 0.0631,0.1768 0.0417,0.042 0.1004,0.063 0.1758,0.063 0.101,0 0.1811,-0.0297 0.241,-0.0887 0.0597,-0.0593 0.1026,-0.1514 0.1286,-0.2772l0.1084 -0.5377 0.1169 0 -0.1919 0.996 -0.1215 0zm0.7216 -1.3183l-0.2553 1.3183 -0.1186 0 0.2552 -1.3183 0.1187 0zm0.9218 0.7485c-0.0096,-0.1063 -0.0461,-0.1901 -0.1094,-0.2513 -0.0637,-0.0611 -0.1449,-0.0917 -0.2448,-0.0917 -0.0976,0 -0.1829,0.0309 -0.2561,0.0927 -0.073,0.0618 -0.1221,0.1452 -0.1474,0.2503l0.7577 0zm0.0952 0.2376c-0.0482,0.1196 -0.1156,0.2092 -0.2018,0.2689 -0.0866,0.0596 -0.1925,0.0896 -0.318,0.0896 -0.1406,0 -0.2559,-0.0452 -0.3455,-0.1351 -0.0896,-0.0899 -0.1344,-0.2052 -0.1344,-0.3458 0,-0.0849 0.0167,-0.1653 0.0497,-0.2407 0.0334,-0.0754 0.081,-0.1409 0.1431,-0.1965 0.0488,-0.0436 0.1042,-0.0763 0.1653,-0.0983 0.0612,-0.0219 0.1264,-0.0331 0.196,-0.0331 0.1436,0 0.2595,0.0461 0.3473,0.1385 0.0878,0.0924 0.1316,0.2148 0.1316,0.3674 0,0.0151 0,0.0266 -0.0003,0.0346 -0.0003,0.0077 -0.0012,0.0155 -0.0024,0.0226l-0.899 0c0,0.1125 0.0322,0.203 0.0964,0.2719 0.0643,0.0689 0.1477,0.1032 0.2503,0.1032 0.0859,0 0.1601,-0.0204 0.2228,-0.0615 0.0628,-0.0411 0.1141,-0.1029 0.1539,-0.1857l0.145 0zm0.1981 0.3322l-0.1169 0 0.1929 -0.996 0.1205 0 -0.0201 0.0952c0.0507,-0.038 0.1007,-0.0664 0.1502,-0.085 0.0497,-0.0188 0.0989,-0.0281 0.1477,-0.0281 0.0791,0 0.1468,0.0164 0.2036,0.0488 0.0569,0.0328 0.1008,0.0807 0.1323,0.144 0.0494,-0.0645 0.106,-0.1127 0.17,-0.1449 0.0639,-0.0318 0.1353,-0.0479 0.2138,-0.0479 0.1063,0 0.1925,0.0303 0.2593,0.0906 0.0667,0.0602 0.1001,0.1387 0.1001,0.2354 0,0.0368 -0.0022,0.0751 -0.0065,0.1153 -0.004,0.0402 -0.0105,0.08 -0.0189,0.1199l-0.0914 0.4527 -0.1224 0 0.1023 -0.5105c0.0055,-0.0266 0.0096,-0.0519 0.0123,-0.076 0.0028,-0.0241 0.0041,-0.0476 0.0041,-0.0699 0,-0.076 -0.021,-0.135 -0.0634,-0.1773 -0.0423,-0.0424 -0.1007,-0.0634 -0.1755,-0.0634 -0.1007,0 -0.1814,0.03 -0.2417,0.0896 -0.0605,0.0597 -0.1029,0.1521 -0.1276,0.2769l-0.105 0.5306 -0.1233 0 0.1022 -0.5096c0.0056,-0.0272 0.0096,-0.0528 0.0124,-0.0769 0.0028,-0.0241 0.0043,-0.0476 0.0049,-0.0699 0,-0.076 -0.021,-0.135 -0.0633,-0.1773 -0.0423,-0.0424 -0.1011,-0.0634 -0.1765,-0.0634 -0.1001,0 -0.1804,0.0297 -0.2404,0.0893 -0.0599,0.0594 -0.1026,0.1518 -0.1279,0.2772l-0.1078 0.5306zm2.5846 -0.5414c0,-0.1112 -0.0318,-0.2009 -0.0955,-0.2692 -0.0636,-0.0682 -0.1474,-0.1022 -0.2512,-0.1022 -0.0488,0 -0.0958,0.0083 -0.1409,0.025 -0.0448,0.0164 -0.0859,0.0405 -0.1227,0.072 -0.0501,0.0426 -0.0893,0.0967 -0.118,0.1616 -0.0288,0.0649 -0.043,0.1326 -0.043,0.2033 0,0.1085 0.0328,0.1966 0.0986,0.2636 0.0658,0.0671 0.152,0.1005 0.2589,0.1005 0.1159,0 0.2139,-0.0436 0.2936,-0.1311 0.08,-0.0871 0.1202,-0.1949 0.1202,-0.3235zm0.0198 0.5414l-0.1313 0 0.0163 -0.076c-0.0513,0.033 -0.1044,0.0581 -0.1597,0.0751 -0.0553,0.017 -0.1125,0.0253 -0.1715,0.0253 -0.1394,0 -0.2537,-0.0448 -0.343,-0.1344 -0.0893,-0.0896 -0.1341,-0.2046 -0.1341,-0.3446 0,-0.0803 0.0142,-0.156 0.0429,-0.2271 0.0287,-0.0714 0.0702,-0.1341 0.1245,-0.1885 0.0501,-0.0501 0.1076,-0.0881 0.1722,-0.114 0.0642,-0.026 0.1335,-0.039 0.207,-0.039 0.0961,0 0.1777,0.0177 0.2444,0.0529 0.0671,0.0355 0.1206,0.0887 0.1604,0.1597l0.0371 -0.1854 0.1258 0 -0.191 0.996zm0.5009 -0.996l-0.0201 0.0952c0.0507,-0.038 0.1007,-0.0664 0.1502,-0.085 0.0497,-0.0188 0.0989,-0.0281 0.1477,-0.0281 0.1075,0 0.1947,0.0303 0.2617,0.0906 0.0671,0.0602 0.1005,0.1387 0.1005,0.2354 0,0.0368 -0.0022,0.0751 -0.0068,0.1153 -0.0047,0.0402 -0.0112,0.08 -0.0195,0.1199l-0.0905 0.4527 -0.1233 0 0.1022 -0.5096c0.0056,-0.0272 0.0096,-0.0528 0.0124,-0.0769 0.0028,-0.0241 0.0043,-0.0476 0.0049,-0.0699 0,-0.076 -0.021,-0.135 -0.0633,-0.1773 -0.0423,-0.0424 -0.1011,-0.0634 -0.1765,-0.0634 -0.1001,0 -0.1804,0.0297 -0.2404,0.0893 -0.0599,0.0594 -0.1026,0.1518 -0.1279,0.2772l-0.1078 0.5306 -0.1169 0 0.1929 -0.996 0.1205 0zm0.7426 0.7126l0.1186 0 0 0.0037c0,0.0566 0.0152,0.1026 0.0458,0.1382 0.0302,0.0352 0.0701,0.0528 0.1189,0.0528 0.0451,0 0.0844,-0.0179 0.1181,-0.0538 0.0333,-0.0358 0.05,-0.0781 0.05,-0.1263 0,-0.0628 -0.05,-0.1277 -0.1501,-0.1947l-0.0053 -0.0034c-0.0828,-0.0556 -0.1369,-0.1029 -0.1622,-0.1419 -0.0254,-0.0389 -0.038,-0.0849 -0.038,-0.1381 0,-0.0791 0.0259,-0.1452 0.0781,-0.1987 0.0523,-0.0535 0.1172,-0.08 0.1944,-0.08 0.0729,0 0.1316,0.0216 0.1761,0.0649 0.0442,0.0429 0.0665,0.1001 0.0665,0.1715 0,0.0108 0,0.0194 -0.0003,0.0253 -0.0003,0.0062 -0.001,0.0108 -0.0016,0.0145l-0.1168 0.001c0,-0.0025 0.0003,-0.0065 0.0009,-0.0124 0.0007,-0.0056 0.001,-0.0096 0.001,-0.0121 0,-0.0429 -0.0115,-0.0769 -0.0343,-0.1019 -0.0229,-0.0251 -0.0541,-0.0377 -0.0933,-0.0377 -0.0427,0 -0.0782,0.0142 -0.1063,0.0426 -0.0282,0.0284 -0.0421,0.0637 -0.0421,0.106 0,0.0541 0.0522,0.1174 0.1564,0.1891 0.0096,0.0068 0.017,0.0118 0.0219,0.0155l0.0006 0c0.1221,0.0837 0.183,0.1718 0.183,0.2642 0,0.0949 -0.0291,0.1724 -0.0869,0.2327 -0.058,0.0602 -0.1325,0.0905 -0.2234,0.0905 -0.0785,0 -0.1437,-0.0259 -0.1953,-0.0782 -0.0516,-0.0522 -0.0772,-0.1183 -0.0772,-0.198 0,-0.0096 0,-0.0167 0.0003,-0.0217 0.0003,-0.0049 0.0012,-0.0092 0.0025,-0.0136zm0.5945 0.4166l0.2299 -0.3406 0.1412 0 -0.2299 0.3406 -0.1412 0zm-41.3635 1.1044l-0.1628 0.8347c-0.0013,0.0065 -0.0034,0.0167 -0.0065,0.0299 -0.0312,0.1629 -0.0677,0.276 -0.1085,0.3393 -0.0371,0.0563 -0.0887,0.0992 -0.1548,0.1292 -0.0664,0.03 -0.144,0.0448 -0.2327,0.0448 -0.1282,0 -0.2321,-0.029 -0.3121,-0.0874 -0.08,-0.0581 -0.1273,-0.1391 -0.1425,-0.2423l0.1113 0c0.0207,0.0701 0.0578,0.1236 0.1119,0.161 0.054,0.0371 0.1223,0.0556 0.2051,0.0556 0.1159,0 0.2046,-0.0287 0.2661,-0.0865 0.0615,-0.0575 0.1007,-0.1486 0.1177,-0.2729 -0.0472,0.0349 -0.0982,0.0612 -0.1529,0.0791 -0.055,0.0177 -0.1134,0.0266 -0.1749,0.0266 -0.1388,0 -0.2531,-0.0451 -0.3427,-0.135 -0.0896,-0.09 -0.1344,-0.2046 -0.1344,-0.344 0,-0.0803 0.0142,-0.156 0.0429,-0.2271 0.0287,-0.0714 0.0702,-0.1341 0.1245,-0.1885 0.0501,-0.0501 0.1076,-0.0881 0.1722,-0.114 0.0645,-0.026 0.1335,-0.039 0.2073,-0.039 0.0958,0 0.1774,0.0177 0.2444,0.0529 0.0671,0.0355 0.1206,0.0887 0.1601,0.1597l0.0356 -0.1761 0.1257 0zm-0.2092 0.4453c0,-0.1112 -0.0318,-0.2009 -0.0955,-0.2692 -0.0636,-0.0682 -0.1474,-0.1022 -0.2512,-0.1022 -0.0488,0 -0.0958,0.0083 -0.1409,0.025 -0.0448,0.0164 -0.0856,0.0405 -0.1224,0.072 -0.0504,0.0426 -0.0896,0.0967 -0.1183,0.1616 -0.0288,0.0649 -0.043,0.1326 -0.043,0.2033 0,0.1085 0.0328,0.1966 0.0986,0.2636 0.0658,0.0671 0.1523,0.1005 0.2589,0.1005 0.1159,0 0.2139,-0.0436 0.2939,-0.1311 0.0801,-0.0871 0.1199,-0.1949 0.1199,-0.3235zm1.1545 -0.0284c-0.0096,-0.1063 -0.0461,-0.1901 -0.1094,-0.2513 -0.0637,-0.0611 -0.1449,-0.0917 -0.2448,-0.0917 -0.0976,0 -0.1829,0.0309 -0.2561,0.0927 -0.073,0.0618 -0.1221,0.1452 -0.1474,0.2503l0.7577 0zm0.0952 0.2376c-0.0482,0.1196 -0.1156,0.2092 -0.2018,0.2689 -0.0866,0.0596 -0.1925,0.0896 -0.318,0.0896 -0.1406,0 -0.2559,-0.0452 -0.3455,-0.1351 -0.0896,-0.0899 -0.1344,-0.2052 -0.1344,-0.3458 0,-0.0849 0.0167,-0.1653 0.0497,-0.2407 0.0334,-0.0754 0.081,-0.1409 0.1431,-0.1965 0.0488,-0.0436 0.1042,-0.0763 0.1653,-0.0983 0.0612,-0.0219 0.1264,-0.0331 0.196,-0.0331 0.1436,0 0.2595,0.0461 0.3473,0.1385 0.0878,0.0924 0.1316,0.2148 0.1316,0.3674 0,0.0151 0,0.0266 -0.0003,0.0346 -0.0003,0.0077 -0.0012,0.0155 -0.0024,0.0226l-0.899 0c0,0.1125 0.0322,0.203 0.0964,0.2719 0.0643,0.0689 0.1477,0.1032 0.2503,0.1032 0.0859,0 0.1601,-0.0204 0.2228,-0.0615 0.0628,-0.0411 0.1141,-0.1029 0.1539,-0.1857l0.145 0zm1.0364 -0.2092c0,-0.1112 -0.0318,-0.2009 -0.0955,-0.2692 -0.0636,-0.0682 -0.1474,-0.1022 -0.2512,-0.1022 -0.0488,0 -0.0958,0.0083 -0.1406,0.025 -0.0451,0.0164 -0.0859,0.0405 -0.1227,0.072 -0.0504,0.0426 -0.0896,0.0967 -0.1183,0.1616 -0.0288,0.0649 -0.043,0.1326 -0.043,0.2033 0,0.1085 0.0328,0.1966 0.0986,0.2636 0.0658,0.0671 0.1523,0.1005 0.2589,0.1005 0.1159,0 0.2139,-0.0436 0.2939,-0.1311 0.0801,-0.0871 0.1199,-0.1949 0.1199,-0.3235zm0.0145 0.5414l-0.1313 0 0.0219 -0.0939c-0.0497,0.0389 -0.1022,0.0686 -0.1585,0.0883 -0.0562,0.0201 -0.1149,0.03 -0.1767,0.03 -0.1375,0 -0.251,-0.0451 -0.34,-0.135 -0.0889,-0.09 -0.1334,-0.2046 -0.1334,-0.344 0,-0.0803 0.0142,-0.156 0.0429,-0.2271 0.0287,-0.0714 0.0702,-0.1341 0.1245,-0.1885 0.0501,-0.0501 0.1076,-0.0881 0.1722,-0.114 0.0645,-0.026 0.1335,-0.039 0.2073,-0.039 0.0943,0 0.1749,0.0177 0.2426,0.0526 0.0677,0.0349 0.1236,0.0884 0.1675,0.16l0.1004 -0.5077 0.1205 0 -0.2599 1.3183zm1.14 -0.5698c-0.0096,-0.1063 -0.0461,-0.1901 -0.1094,-0.2513 -0.0637,-0.0611 -0.1449,-0.0917 -0.2448,-0.0917 -0.0976,0 -0.1829,0.0309 -0.2561,0.0927 -0.073,0.0618 -0.1221,0.1452 -0.1474,0.2503l0.7577 0zm0.0952 0.2376c-0.0482,0.1196 -0.1156,0.2092 -0.2018,0.2689 -0.0866,0.0596 -0.1925,0.0896 -0.318,0.0896 -0.1406,0 -0.2559,-0.0452 -0.3455,-0.1351 -0.0896,-0.0899 -0.1344,-0.2052 -0.1344,-0.3458 0,-0.0849 0.0167,-0.1653 0.0497,-0.2407 0.0334,-0.0754 0.081,-0.1409 0.1431,-0.1965 0.0488,-0.0436 0.1042,-0.0763 0.1653,-0.0983 0.0612,-0.0219 0.1264,-0.0331 0.196,-0.0331 0.1436,0 0.2595,0.0461 0.3473,0.1385 0.0878,0.0924 0.1316,0.2148 0.1316,0.3674 0,0.0151 0,0.0266 -0.0003,0.0346 -0.0003,0.0077 -0.0012,0.0155 -0.0024,0.0226l-0.899 0c0,0.1125 0.0322,0.203 0.0964,0.2719 0.0643,0.0689 0.1477,0.1032 0.2503,0.1032 0.0859,0 0.1601,-0.0204 0.2228,-0.0615 0.0628,-0.0411 0.1141,-0.1029 0.1539,-0.1857l0.145 0zm0.4796 -0.9861l-0.2553 1.3183 -0.1186 0 0.2552 -1.3183 0.1187 0zm0.9218 0.7485c-0.0096,-0.1063 -0.0461,-0.1901 -0.1094,-0.2513 -0.0637,-0.0611 -0.1449,-0.0917 -0.2448,-0.0917 -0.0976,0 -0.1829,0.0309 -0.2561,0.0927 -0.073,0.0618 -0.1221,0.1452 -0.1474,0.2503l0.7577 0zm0.0952 0.2376c-0.0482,0.1196 -0.1156,0.2092 -0.2018,0.2689 -0.0866,0.0596 -0.1925,0.0896 -0.318,0.0896 -0.1406,0 -0.2559,-0.0452 -0.3455,-0.1351 -0.0896,-0.0899 -0.1344,-0.2052 -0.1344,-0.3458 0,-0.0849 0.0167,-0.1653 0.0497,-0.2407 0.0334,-0.0754 0.081,-0.1409 0.1431,-0.1965 0.0488,-0.0436 0.1042,-0.0763 0.1653,-0.0983 0.0612,-0.0219 0.1264,-0.0331 0.196,-0.0331 0.1436,0 0.2595,0.0461 0.3473,0.1385 0.0878,0.0924 0.1316,0.2148 0.1316,0.3674 0,0.0151 0,0.0266 -0.0003,0.0346 -0.0003,0.0077 -0.0012,0.0155 -0.0024,0.0226l-0.899 0c0,0.1125 0.0322,0.203 0.0964,0.2719 0.0643,0.0689 0.1477,0.1032 0.2503,0.1032 0.0859,0 0.1601,-0.0204 0.2228,-0.0615 0.0628,-0.0411 0.1141,-0.1029 0.1539,-0.1857l0.145 0zm1.2456 -0.6545l-0.1628 0.8347c-0.0013,0.0065 -0.0034,0.0167 -0.0065,0.0299 -0.0312,0.1629 -0.0677,0.276 -0.1085,0.3393 -0.0371,0.0563 -0.0887,0.0992 -0.1548,0.1292 -0.0664,0.03 -0.144,0.0448 -0.2327,0.0448 -0.1282,0 -0.2321,-0.029 -0.3121,-0.0874 -0.08,-0.0581 -0.1273,-0.1391 -0.1425,-0.2423l0.1113 0c0.0207,0.0701 0.0578,0.1236 0.1119,0.161 0.054,0.0371 0.1223,0.0556 0.2051,0.0556 0.1159,0 0.2046,-0.0287 0.2661,-0.0865 0.0615,-0.0575 0.1007,-0.1486 0.1177,-0.2729 -0.0472,0.0349 -0.0982,0.0612 -0.1529,0.0791 -0.055,0.0177 -0.1134,0.0266 -0.1749,0.0266 -0.1388,0 -0.2531,-0.0451 -0.3427,-0.135 -0.0896,-0.09 -0.1344,-0.2046 -0.1344,-0.344 0,-0.0803 0.0142,-0.156 0.0429,-0.2271 0.0287,-0.0714 0.0702,-0.1341 0.1245,-0.1885 0.0501,-0.0501 0.1076,-0.0881 0.1722,-0.114 0.0645,-0.026 0.1335,-0.039 0.2073,-0.039 0.0958,0 0.1774,0.0177 0.2444,0.0529 0.0671,0.0355 0.1206,0.0887 0.1601,0.1597l0.0356 -0.1761 0.1257 0zm-0.2092 0.4453c0,-0.1112 -0.0318,-0.2009 -0.0955,-0.2692 -0.0636,-0.0682 -0.1474,-0.1022 -0.2512,-0.1022 -0.0488,0 -0.0958,0.0083 -0.1409,0.025 -0.0448,0.0164 -0.0856,0.0405 -0.1224,0.072 -0.0504,0.0426 -0.0896,0.0967 -0.1183,0.1616 -0.0288,0.0649 -0.043,0.1326 -0.043,0.2033 0,0.1085 0.0328,0.1966 0.0986,0.2636 0.0658,0.0671 0.1523,0.1005 0.2589,0.1005 0.1159,0 0.2139,-0.0436 0.2939,-0.1311 0.0801,-0.0871 0.1199,-0.1949 0.1199,-0.3235zm1.1545 -0.0284c-0.0096,-0.1063 -0.0461,-0.1901 -0.1094,-0.2513 -0.0637,-0.0611 -0.1449,-0.0917 -0.2448,-0.0917 -0.0976,0 -0.1829,0.0309 -0.2561,0.0927 -0.073,0.0618 -0.1221,0.1452 -0.1474,0.2503l0.7577 0zm0.0952 0.2376c-0.0482,0.1196 -0.1156,0.2092 -0.2018,0.2689 -0.0866,0.0596 -0.1925,0.0896 -0.318,0.0896 -0.1406,0 -0.2559,-0.0452 -0.3455,-0.1351 -0.0896,-0.0899 -0.1344,-0.2052 -0.1344,-0.3458 0,-0.0849 0.0167,-0.1653 0.0497,-0.2407 0.0334,-0.0754 0.081,-0.1409 0.1431,-0.1965 0.0488,-0.0436 0.1042,-0.0763 0.1653,-0.0983 0.0612,-0.0219 0.1264,-0.0331 0.196,-0.0331 0.1436,0 0.2595,0.0461 0.3473,0.1385 0.0878,0.0924 0.1316,0.2148 0.1316,0.3674 0,0.0151 0,0.0266 -0.0003,0.0346 -0.0003,0.0077 -0.0012,0.0155 -0.0024,0.0226l-0.899 0c0,0.1125 0.0322,0.203 0.0964,0.2719 0.0643,0.0689 0.1477,0.1032 0.2503,0.1032 0.0859,0 0.1601,-0.0204 0.2228,-0.0615 0.0628,-0.0411 0.1141,-0.1029 0.1539,-0.1857l0.145 0zm1.0284 -0.2376c-0.0096,-0.1063 -0.0461,-0.1901 -0.1094,-0.2513 -0.0637,-0.0611 -0.1449,-0.0917 -0.2448,-0.0917 -0.0976,0 -0.1829,0.0309 -0.2561,0.0927 -0.073,0.0618 -0.1221,0.1452 -0.1474,0.2503l0.7577 0zm0.0952 0.2376c-0.0482,0.1196 -0.1156,0.2092 -0.2018,0.2689 -0.0866,0.0596 -0.1925,0.0896 -0.318,0.0896 -0.1406,0 -0.2559,-0.0452 -0.3455,-0.1351 -0.0896,-0.0899 -0.1344,-0.2052 -0.1344,-0.3458 0,-0.0849 0.0167,-0.1653 0.0497,-0.2407 0.0334,-0.0754 0.081,-0.1409 0.1431,-0.1965 0.0488,-0.0436 0.1042,-0.0763 0.1653,-0.0983 0.0612,-0.0219 0.1264,-0.0331 0.196,-0.0331 0.1436,0 0.2595,0.0461 0.3473,0.1385 0.0878,0.0924 0.1316,0.2148 0.1316,0.3674 0,0.0151 0,0.0266 -0.0003,0.0346 -0.0003,0.0077 -0.0012,0.0155 -0.0024,0.0226l-0.899 0c0,0.1125 0.0322,0.203 0.0964,0.2719 0.0643,0.0689 0.1477,0.1032 0.2503,0.1032 0.0859,0 0.1601,-0.0204 0.2228,-0.0615 0.0628,-0.0411 0.1141,-0.1029 0.1539,-0.1857l0.145 0zm0.1962 0.3322l-0.1168 0 0.1928 -0.996 0.1168 0 -0.0173 0.0816c0.0393,-0.0374 0.0835,-0.0652 0.1323,-0.0837 0.0488,-0.0183 0.1044,-0.0275 0.1665,-0.0275l0.0282 0 -0.0245 0.123 -0.0055 0c-0.0983,0 -0.1777,0.0259 -0.238,0.0781 -0.0602,0.0523 -0.1007,0.1301 -0.1214,0.2334l-0.1131 0.5911zm1.3826 -0.5414c0,-0.1112 -0.0318,-0.2009 -0.0955,-0.2692 -0.0636,-0.0682 -0.1474,-0.1022 -0.2512,-0.1022 -0.0488,0 -0.0958,0.0083 -0.1406,0.025 -0.0451,0.0164 -0.0859,0.0405 -0.1227,0.072 -0.0504,0.0426 -0.0896,0.0967 -0.1183,0.1616 -0.0288,0.0649 -0.043,0.1326 -0.043,0.2033 0,0.1085 0.0328,0.1966 0.0986,0.2636 0.0658,0.0671 0.1523,0.1005 0.2589,0.1005 0.1159,0 0.2139,-0.0436 0.2939,-0.1311 0.0801,-0.0871 0.1199,-0.1949 0.1199,-0.3235zm0.0145 0.5414l-0.1313 0 0.0219 -0.0939c-0.0497,0.0389 -0.1022,0.0686 -0.1585,0.0883 -0.0562,0.0201 -0.1149,0.03 -0.1767,0.03 -0.1375,0 -0.251,-0.0451 -0.34,-0.135 -0.0889,-0.09 -0.1334,-0.2046 -0.1334,-0.344 0,-0.0803 0.0142,-0.156 0.0429,-0.2271 0.0287,-0.0714 0.0702,-0.1341 0.1245,-0.1885 0.0501,-0.0501 0.1076,-0.0881 0.1722,-0.114 0.0645,-0.026 0.1335,-0.039 0.2073,-0.039 0.0943,0 0.1749,0.0177 0.2426,0.0526 0.0677,0.0349 0.1236,0.0884 0.1675,0.16l0.1004 -0.5077 0.1205 0 -0.2599 1.3183zm0.7197 -0.5578l-0.0225 0.1205 -0.4265 0 0.0226 -0.1205 0.4264 0zm0.2791 0.1032c0,0.1113 0.0321,0.2009 0.0964,0.2692 0.0642,0.0683 0.1483,0.1023 0.2518,0.1023 0.0485,0 0.0949,-0.0081 0.1394,-0.0244 0.0448,-0.0164 0.0856,-0.0405 0.1223,-0.0727 0.0507,-0.0426 0.0906,-0.0967 0.1193,-0.1616 0.0291,-0.0649 0.0436,-0.1325 0.0436,-0.2033 0,-0.1082 -0.0331,-0.1956 -0.0995,-0.263 -0.0664,-0.0673 -0.153,-0.101 -0.2599,-0.101 -0.1159,0 -0.2135,0.0439 -0.2936,0.1313 -0.08,0.0875 -0.1198,0.1953 -0.1198,0.3232zm0.0488 -0.8637l0.122 0 -0.0797 0.4157c0.0491,-0.0405 0.1007,-0.0705 0.1554,-0.0897 0.0544,-0.0194 0.1125,-0.029 0.1743,-0.029 0.1406,0 0.2562,0.0451 0.3467,0.135 0.0906,0.09 0.1357,0.2049 0.1357,0.3449 0,0.0803 -0.0142,0.1561 -0.0429,0.2271 -0.0288,0.0714 -0.0702,0.1341 -0.1246,0.1885 -0.05,0.0501 -0.1075,0.0884 -0.1721,0.1147 -0.0643,0.0262 -0.1335,0.0392 -0.207,0.0392 -0.0968,0 -0.1783,-0.0176 -0.2451,-0.0525 -0.0667,-0.0349 -0.1199,-0.0881 -0.1598,-0.1592l-0.0386 0.1836 -0.1242 0 0.2599 -1.3183zm1.8516 0.7485c-0.0096,-0.1063 -0.0461,-0.1901 -0.1094,-0.2513 -0.0637,-0.0611 -0.1449,-0.0917 -0.2448,-0.0917 -0.0976,0 -0.1829,0.0309 -0.2561,0.0927 -0.073,0.0618 -0.1221,0.1452 -0.1474,0.2503l0.7577 0zm0.0952 0.2376c-0.0482,0.1196 -0.1156,0.2092 -0.2018,0.2689 -0.0866,0.0596 -0.1925,0.0896 -0.318,0.0896 -0.1406,0 -0.2559,-0.0452 -0.3455,-0.1351 -0.0896,-0.0899 -0.1344,-0.2052 -0.1344,-0.3458 0,-0.0849 0.0167,-0.1653 0.0497,-0.2407 0.0334,-0.0754 0.081,-0.1409 0.1431,-0.1965 0.0488,-0.0436 0.1042,-0.0763 0.1653,-0.0983 0.0612,-0.0219 0.1264,-0.0331 0.196,-0.0331 0.1436,0 0.2595,0.0461 0.3473,0.1385 0.0878,0.0924 0.1316,0.2148 0.1316,0.3674 0,0.0151 0,0.0266 -0.0003,0.0346 -0.0003,0.0077 -0.0012,0.0155 -0.0024,0.0226l-0.899 0c0,0.1125 0.0322,0.203 0.0964,0.2719 0.0643,0.0689 0.1477,0.1032 0.2503,0.1032 0.0859,0 0.1601,-0.0204 0.2228,-0.0615 0.0628,-0.0411 0.1141,-0.1029 0.1539,-0.1857l0.145 0zm0.1023 0.0488l0.1186 0 0 0.0037c0,0.0566 0.0152,0.1026 0.0458,0.1382 0.0302,0.0352 0.0701,0.0528 0.1189,0.0528 0.0451,0 0.0844,-0.0179 0.1181,-0.0538 0.0333,-0.0358 0.05,-0.0781 0.05,-0.1263 0,-0.0628 -0.05,-0.1277 -0.1501,-0.1947l-0.0053 -0.0034c-0.0828,-0.0556 -0.1369,-0.1029 -0.1622,-0.1419 -0.0254,-0.0389 -0.038,-0.0849 -0.038,-0.1381 0,-0.0791 0.0259,-0.1452 0.0781,-0.1987 0.0523,-0.0535 0.1172,-0.08 0.1944,-0.08 0.0729,0 0.1316,0.0216 0.1761,0.0649 0.0442,0.0429 0.0665,0.1001 0.0665,0.1715 0,0.0108 0,0.0194 -0.0003,0.0253 -0.0003,0.0062 -0.001,0.0108 -0.0016,0.0145l-0.1168 0.001c0,-0.0025 0.0003,-0.0065 0.0009,-0.0124 0.0007,-0.0056 0.001,-0.0096 0.001,-0.0121 0,-0.0429 -0.0115,-0.0769 -0.0343,-0.1019 -0.0229,-0.0251 -0.0541,-0.0377 -0.0933,-0.0377 -0.0427,0 -0.0782,0.0142 -0.1063,0.0426 -0.0282,0.0284 -0.0421,0.0637 -0.0421,0.106 0,0.0541 0.0522,0.1174 0.1564,0.1891 0.0096,0.0068 0.017,0.0118 0.0219,0.0155l0.0006 0c0.1221,0.0837 0.183,0.1718 0.183,0.2642 0,0.0949 -0.0291,0.1724 -0.0869,0.2327 -0.058,0.0602 -0.1325,0.0905 -0.2234,0.0905 -0.0785,0 -0.1437,-0.0259 -0.1953,-0.0782 -0.0516,-0.0522 -0.0772,-0.1183 -0.0772,-0.198 0,-0.0096 0,-0.0167 0.0003,-0.0217 0.0003,-0.0049 0.0012,-0.0092 0.0025,-0.0136zm0.7447 0.2834l0.173 -0.8847 -0.2101 0 0.0207 -0.1113 0.2092 0 0.0634 -0.3223 0.1205 0 -0.0637 0.3223 0.2101 0 -0.0225 0.1113 -0.2092 0 -0.1709 0.8847 -0.1205 0z"/>
   <path id="_538954272" class="fil2" d="M40.9282 16.9021l0.021 -0.0943c-0.0479,0.0399 -0.0967,0.0699 -0.1468,0.0903 -0.05,0.0201 -0.1013,0.0303 -0.1538,0.0303 -0.1076,0 -0.1944,-0.0303 -0.2612,-0.0906 -0.0667,-0.0602 -0.1001,-0.139 -0.1001,-0.2364 0,-0.0374 0.0022,-0.076 0.0065,-0.1162 0.004,-0.0401 0.0105,-0.0806 0.0189,-0.1208l0.0951 -0.4583 0.1205 0 -0.1041 0.518c-0.0056,0.0271 -0.0096,0.0525 -0.0124,0.0763 -0.0027,0.0241 -0.004,0.0469 -0.004,0.0695 0,0.076 0.021,0.135 0.0631,0.1768 0.0417,0.042 0.1004,0.063 0.1758,0.063 0.101,0 0.1811,-0.0297 0.241,-0.0887 0.0597,-0.0593 0.1026,-0.1514 0.1286,-0.2772l0.1084 -0.5377 0.1169 0 -0.1919 0.996 -0.1215 0zm1.0349 0l0.021 -0.0943c-0.0479,0.0399 -0.0967,0.0699 -0.1468,0.0903 -0.05,0.0201 -0.1013,0.0303 -0.1538,0.0303 -0.1076,0 -0.1944,-0.0303 -0.2612,-0.0906 -0.0667,-0.0602 -0.1001,-0.139 -0.1001,-0.2364 0,-0.0374 0.0022,-0.076 0.0065,-0.1162 0.004,-0.0401 0.0105,-0.0806 0.0189,-0.1208l0.0951 -0.4583 0.1205 0 -0.1041 0.518c-0.0056,0.0271 -0.0096,0.0525 -0.0124,0.0763 -0.0027,0.0241 -0.004,0.0469 -0.004,0.0695 0,0.076 0.021,0.135 0.0631,0.1768 0.0417,0.042 0.1004,0.063 0.1758,0.063 0.101,0 0.1811,-0.0297 0.241,-0.0887 0.0597,-0.0593 0.1026,-0.1514 0.1286,-0.2772l0.1084 -0.5377 0.1169 0 -0.1919 0.996 -0.1215 0zm0.4382 0l-0.1168 0 0.1928 -0.996 0.1168 0 -0.0173 0.0816c0.0393,-0.0374 0.0835,-0.0652 0.1323,-0.0837 0.0488,-0.0183 0.1044,-0.0275 0.1665,-0.0275l0.0282 0 -0.0245 0.123 -0.0055 0c-0.0983,0 -0.1777,0.0259 -0.238,0.0781 -0.0602,0.0523 -0.1007,0.1301 -0.1214,0.2334l-0.1131 0.5911zm1.3826 -0.5414c0,-0.1112 -0.0318,-0.2009 -0.0955,-0.2692 -0.0636,-0.0682 -0.1474,-0.1022 -0.2512,-0.1022 -0.0488,0 -0.0958,0.0083 -0.1406,0.025 -0.0451,0.0164 -0.0859,0.0405 -0.1227,0.072 -0.0504,0.0426 -0.0896,0.0967 -0.1183,0.1616 -0.0288,0.0649 -0.043,0.1326 -0.043,0.2033 0,0.1085 0.0328,0.1966 0.0986,0.2636 0.0658,0.0671 0.1523,0.1005 0.2589,0.1005 0.1159,0 0.2139,-0.0436 0.2939,-0.1311 0.0801,-0.0871 0.1199,-0.1949 0.1199,-0.3235zm0.0145 0.5414l-0.1313 0 0.0219 -0.0939c-0.0497,0.0389 -0.1022,0.0686 -0.1585,0.0883 -0.0562,0.0201 -0.1149,0.03 -0.1767,0.03 -0.1375,0 -0.251,-0.0451 -0.34,-0.135 -0.0889,-0.09 -0.1334,-0.2046 -0.1334,-0.344 0,-0.0803 0.0142,-0.156 0.0429,-0.2271 0.0287,-0.0714 0.0702,-0.1341 0.1245,-0.1885 0.0501,-0.0501 0.1076,-0.0881 0.1722,-0.114 0.0645,-0.026 0.1335,-0.039 0.2073,-0.039 0.0943,0 0.1749,0.0177 0.2426,0.0526 0.0677,0.0349 0.1236,0.0884 0.1675,0.16l0.1004 -0.5077 0.1205 0 -0.2599 1.3183zm1.14 -0.5698c-0.0096,-0.1063 -0.0461,-0.1901 -0.1094,-0.2513 -0.0637,-0.0611 -0.1449,-0.0917 -0.2448,-0.0917 -0.0976,0 -0.1829,0.0309 -0.2561,0.0927 -0.073,0.0618 -0.1221,0.1452 -0.1474,0.2503l0.7577 0zm0.0952 0.2376c-0.0482,0.1196 -0.1156,0.2092 -0.2018,0.2689 -0.0866,0.0596 -0.1925,0.0896 -0.318,0.0896 -0.1406,0 -0.2559,-0.0452 -0.3455,-0.1351 -0.0896,-0.0899 -0.1344,-0.2052 -0.1344,-0.3458 0,-0.0849 0.0167,-0.1653 0.0497,-0.2407 0.0334,-0.0754 0.081,-0.1409 0.1431,-0.1965 0.0488,-0.0436 0.1042,-0.0763 0.1653,-0.0983 0.0612,-0.0219 0.1264,-0.0331 0.196,-0.0331 0.1436,0 0.2595,0.0461 0.3473,0.1385 0.0878,0.0924 0.1316,0.2148 0.1316,0.3674 0,0.0151 0,0.0266 -0.0003,0.0346 -0.0003,0.0077 -0.0012,0.0155 -0.0024,0.0226l-0.899 0c0,0.1125 0.0322,0.203 0.0964,0.2719 0.0643,0.0689 0.1477,0.1032 0.2503,0.1032 0.0859,0 0.1601,-0.0204 0.2228,-0.0615 0.0628,-0.0411 0.1141,-0.1029 0.1539,-0.1857l0.145 0zm0.1962 0.3322l-0.1168 0 0.1928 -0.996 0.1168 0 -0.0173 0.0816c0.0393,-0.0374 0.0835,-0.0652 0.1323,-0.0837 0.0488,-0.0183 0.1044,-0.0275 0.1665,-0.0275l0.0282 0 -0.0245 0.123 -0.0055 0c-0.0983,0 -0.1777,0.0259 -0.238,0.0781 -0.0602,0.0523 -0.1007,0.1301 -0.1214,0.2334l-0.1131 0.5911zm0.9741 0l0.2552 -1.3183 0.3115 0c0.1691,0 0.2945,0.0322 0.377,0.0964 0.0825,0.0643 0.1236,0.162 0.1236,0.293 0,0.1196 -0.0395,0.2179 -0.1189,0.2951 -0.0795,0.0773 -0.1898,0.1239 -0.331,0.1403l0.2707 0.4935 -0.1539 0 -0.3096 -0.5995 0.0423 0c0.1468,0 0.2614,-0.0297 0.3436,-0.0893 0.0825,-0.0593 0.1236,-0.1418 0.1236,-0.2475 0,-0.0427 -0.0077,-0.081 -0.0231,-0.115 -0.0155,-0.0337 -0.0377,-0.0621 -0.0674,-0.085 -0.0312,-0.0241 -0.0698,-0.0411 -0.1153,-0.0506 -0.0457,-0.0096 -0.1254,-0.0146 -0.2395,-0.0146l-0.1276 0 -0.2317 1.2015 -0.1295 0zm2.0136 -0.5698c-0.0096,-0.1063 -0.0461,-0.1901 -0.1094,-0.2513 -0.0637,-0.0611 -0.1449,-0.0917 -0.2448,-0.0917 -0.0976,0 -0.1829,0.0309 -0.2561,0.0927 -0.073,0.0618 -0.1221,0.1452 -0.1474,0.2503l0.7577 0zm0.0952 0.2376c-0.0482,0.1196 -0.1156,0.2092 -0.2018,0.2689 -0.0866,0.0596 -0.1925,0.0896 -0.318,0.0896 -0.1406,0 -0.2559,-0.0452 -0.3455,-0.1351 -0.0896,-0.0899 -0.1344,-0.2052 -0.1344,-0.3458 0,-0.0849 0.0167,-0.1653 0.0497,-0.2407 0.0334,-0.0754 0.081,-0.1409 0.1431,-0.1965 0.0488,-0.0436 0.1042,-0.0763 0.1653,-0.0983 0.0612,-0.0219 0.1264,-0.0331 0.196,-0.0331 0.1436,0 0.2595,0.0461 0.3473,0.1385 0.0878,0.0924 0.1316,0.2148 0.1316,0.3674 0,0.0151 0,0.0266 -0.0003,0.0346 -0.0003,0.0077 -0.0012,0.0155 -0.0024,0.0226l-0.899 0c0,0.1125 0.0322,0.203 0.0964,0.2719 0.0643,0.0689 0.1477,0.1032 0.2503,0.1032 0.0859,0 0.1601,-0.0204 0.2228,-0.0615 0.0628,-0.0411 0.1141,-0.1029 0.1539,-0.1857l0.145 0zm0.7929 0.3322l0.021 -0.0943c-0.0479,0.0399 -0.0967,0.0699 -0.1468,0.0903 -0.05,0.0201 -0.1013,0.0303 -0.1538,0.0303 -0.1076,0 -0.1944,-0.0303 -0.2612,-0.0906 -0.0667,-0.0602 -0.1001,-0.139 -0.1001,-0.2364 0,-0.0374 0.0022,-0.076 0.0065,-0.1162 0.004,-0.0401 0.0105,-0.0806 0.0189,-0.1208l0.0951 -0.4583 0.1205 0 -0.1041 0.518c-0.0056,0.0271 -0.0096,0.0525 -0.0124,0.0763 -0.0027,0.0241 -0.004,0.0469 -0.004,0.0695 0,0.076 0.021,0.135 0.0631,0.1768 0.0417,0.042 0.1004,0.063 0.1758,0.063 0.101,0 0.1811,-0.0297 0.241,-0.0887 0.0597,-0.0593 0.1026,-0.1514 0.1286,-0.2772l0.1084 -0.5377 0.1169 0 -0.1919 0.996 -0.1215 0zm0.2862 0l0.0225 -0.1168 0.632 -0.7586 -0.4843 0 0.0244 -0.1206 0.6456 0 -0.0207 0.1079 -0.6394 0.7676 0.5504 0 -0.0226 0.1205 -0.7079 0zm1.8 -0.5698c-0.0096,-0.1063 -0.0461,-0.1901 -0.1094,-0.2513 -0.0637,-0.0611 -0.1449,-0.0917 -0.2448,-0.0917 -0.0976,0 -0.1829,0.0309 -0.2561,0.0927 -0.073,0.0618 -0.1221,0.1452 -0.1474,0.2503l0.7577 0zm0.0952 0.2376c-0.0482,0.1196 -0.1156,0.2092 -0.2018,0.2689 -0.0866,0.0596 -0.1925,0.0896 -0.318,0.0896 -0.1406,0 -0.2559,-0.0452 -0.3455,-0.1351 -0.0896,-0.0899 -0.1344,-0.2052 -0.1344,-0.3458 0,-0.0849 0.0167,-0.1653 0.0497,-0.2407 0.0334,-0.0754 0.081,-0.1409 0.1431,-0.1965 0.0488,-0.0436 0.1042,-0.0763 0.1653,-0.0983 0.0612,-0.0219 0.1264,-0.0331 0.196,-0.0331 0.1436,0 0.2595,0.0461 0.3473,0.1385 0.0878,0.0924 0.1316,0.2148 0.1316,0.3674 0,0.0151 0,0.0266 -0.0003,0.0346 -0.0003,0.0077 -0.0012,0.0155 -0.0024,0.0226l-0.899 0c0,0.1125 0.0322,0.203 0.0964,0.2719 0.0643,0.0689 0.1477,0.1032 0.2503,0.1032 0.0859,0 0.1601,-0.0204 0.2228,-0.0615 0.0628,-0.0411 0.1141,-0.1029 0.1539,-0.1857l0.145 0zm0.3946 -0.6638l-0.0201 0.0952c0.0507,-0.038 0.1007,-0.0664 0.1502,-0.085 0.0497,-0.0188 0.0989,-0.0281 0.1477,-0.0281 0.1075,0 0.1947,0.0303 0.2617,0.0906 0.0671,0.0602 0.1005,0.1387 0.1005,0.2354 0,0.0368 -0.0022,0.0751 -0.0068,0.1153 -0.0047,0.0402 -0.0112,0.08 -0.0195,0.1199l-0.0905 0.4527 -0.1233 0 0.1022 -0.5096c0.0056,-0.0272 0.0096,-0.0528 0.0124,-0.0769 0.0028,-0.0241 0.0043,-0.0476 0.0049,-0.0699 0,-0.076 -0.021,-0.135 -0.0633,-0.1773 -0.0423,-0.0424 -0.1011,-0.0634 -0.1765,-0.0634 -0.1001,0 -0.1804,0.0297 -0.2404,0.0893 -0.0599,0.0594 -0.1026,0.1518 -0.1279,0.2772l-0.1078 0.5306 -0.1169 0 0.1929 -0.996 0.1205 0zm1.4839 -0.0976l0.0427 -0.2247 0.1183 0 -0.0426 0.2247 -0.1184 0zm0.0986 0.0976l-0.1928 0.996 -0.1187 0 0.1947 -0.996 0.1168 0zm0.3486 0l-0.0201 0.0952c0.0507,-0.038 0.1007,-0.0664 0.1502,-0.085 0.0497,-0.0188 0.0989,-0.0281 0.1477,-0.0281 0.1075,0 0.1947,0.0303 0.2617,0.0906 0.0671,0.0602 0.1005,0.1387 0.1005,0.2354 0,0.0368 -0.0022,0.0751 -0.0068,0.1153 -0.0047,0.0402 -0.0112,0.08 -0.0195,0.1199l-0.0905 0.4527 -0.1233 0 0.1022 -0.5096c0.0056,-0.0272 0.0096,-0.0528 0.0124,-0.0769 0.0028,-0.0241 0.0043,-0.0476 0.0049,-0.0699 0,-0.076 -0.021,-0.135 -0.0633,-0.1773 -0.0423,-0.0424 -0.1011,-0.0634 -0.1765,-0.0634 -0.1001,0 -0.1804,0.0297 -0.2404,0.0893 -0.0599,0.0594 -0.1026,0.1518 -0.1279,0.2772l-0.1078 0.5306 -0.1169 0 0.1929 -0.996 0.1205 0zm1.3118 -0.3223l0.1258 0 0.1857 1.1292 0.6193 -1.1292 0.1365 0 -0.7323 1.3183 -0.1131 0 -0.2219 -1.3183zm1.3236 0l-0.2553 1.3183 -0.1186 0 0.2552 -1.3183 0.1187 0zm0.9298 0.7769c0,-0.1112 -0.0318,-0.2009 -0.0955,-0.2692 -0.0636,-0.0682 -0.1474,-0.1022 -0.2512,-0.1022 -0.0488,0 -0.0958,0.0083 -0.1409,0.025 -0.0448,0.0164 -0.0859,0.0405 -0.1227,0.072 -0.0501,0.0426 -0.0893,0.0967 -0.118,0.1616 -0.0288,0.0649 -0.043,0.1326 -0.043,0.2033 0,0.1085 0.0328,0.1966 0.0986,0.2636 0.0658,0.0671 0.152,0.1005 0.2589,0.1005 0.1159,0 0.2139,-0.0436 0.2936,-0.1311 0.08,-0.0871 0.1202,-0.1949 0.1202,-0.3235zm0.0198 0.5414l-0.1313 0 0.0163 -0.076c-0.0513,0.033 -0.1044,0.0581 -0.1597,0.0751 -0.0553,0.017 -0.1125,0.0253 -0.1715,0.0253 -0.1394,0 -0.2537,-0.0448 -0.343,-0.1344 -0.0893,-0.0896 -0.1341,-0.2046 -0.1341,-0.3446 0,-0.0803 0.0142,-0.156 0.0429,-0.2271 0.0287,-0.0714 0.0702,-0.1341 0.1245,-0.1885 0.0501,-0.0501 0.1076,-0.0881 0.1722,-0.114 0.0642,-0.026 0.1335,-0.039 0.207,-0.039 0.0961,0 0.1777,0.0177 0.2444,0.0529 0.0671,0.0355 0.1206,0.0887 0.1604,0.1597l0.0371 -0.1854 0.1258 0 -0.191 0.996zm1.1427 -0.5414c0,-0.1112 -0.0318,-0.2009 -0.0955,-0.2692 -0.0636,-0.0682 -0.1474,-0.1022 -0.2512,-0.1022 -0.0488,0 -0.0958,0.0083 -0.1409,0.025 -0.0448,0.0164 -0.0859,0.0405 -0.1227,0.072 -0.0501,0.0426 -0.0893,0.0967 -0.118,0.1616 -0.0288,0.0649 -0.043,0.1326 -0.043,0.2033 0,0.1085 0.0328,0.1966 0.0986,0.2636 0.0658,0.0671 0.152,0.1005 0.2589,0.1005 0.1159,0 0.2139,-0.0436 0.2936,-0.1311 0.08,-0.0871 0.1202,-0.1949 0.1202,-0.3235zm0.0198 0.5414l-0.1313 0 0.0163 -0.076c-0.0513,0.033 -0.1044,0.0581 -0.1597,0.0751 -0.0553,0.017 -0.1125,0.0253 -0.1715,0.0253 -0.1394,0 -0.2537,-0.0448 -0.343,-0.1344 -0.0893,-0.0896 -0.1341,-0.2046 -0.1341,-0.3446 0,-0.0803 0.0142,-0.156 0.0429,-0.2271 0.0287,-0.0714 0.0702,-0.1341 0.1245,-0.1885 0.0501,-0.0501 0.1076,-0.0881 0.1722,-0.114 0.0642,-0.026 0.1335,-0.039 0.207,-0.039 0.0961,0 0.1777,0.0177 0.2444,0.0529 0.0671,0.0355 0.1206,0.0887 0.1604,0.1597l0.0371 -0.1854 0.1258 0 -0.191 0.996zm0.5009 -0.996l-0.0201 0.0952c0.0507,-0.038 0.1007,-0.0664 0.1502,-0.085 0.0497,-0.0188 0.0989,-0.0281 0.1477,-0.0281 0.1075,0 0.1947,0.0303 0.2617,0.0906 0.0671,0.0602 0.1005,0.1387 0.1005,0.2354 0,0.0368 -0.0022,0.0751 -0.0068,0.1153 -0.0047,0.0402 -0.0112,0.08 -0.0195,0.1199l-0.0905 0.4527 -0.1233 0 0.1022 -0.5096c0.0056,-0.0272 0.0096,-0.0528 0.0124,-0.0769 0.0028,-0.0241 0.0043,-0.0476 0.0049,-0.0699 0,-0.076 -0.021,-0.135 -0.0633,-0.1773 -0.0423,-0.0424 -0.1011,-0.0634 -0.1765,-0.0634 -0.1001,0 -0.1804,0.0297 -0.2404,0.0893 -0.0599,0.0594 -0.1026,0.1518 -0.1279,0.2772l-0.1078 0.5306 -0.1169 0 0.1929 -0.996 0.1205 0zm1.6767 0.4546c0,-0.1112 -0.0318,-0.2009 -0.0955,-0.2692 -0.0636,-0.0682 -0.1474,-0.1022 -0.2512,-0.1022 -0.0488,0 -0.0958,0.0083 -0.1406,0.025 -0.0451,0.0164 -0.0859,0.0405 -0.1227,0.072 -0.0504,0.0426 -0.0896,0.0967 -0.1183,0.1616 -0.0288,0.0649 -0.043,0.1326 -0.043,0.2033 0,0.1085 0.0328,0.1966 0.0986,0.2636 0.0658,0.0671 0.1523,0.1005 0.2589,0.1005 0.1159,0 0.2139,-0.0436 0.2939,-0.1311 0.0801,-0.0871 0.1199,-0.1949 0.1199,-0.3235zm0.0145 0.5414l-0.1313 0 0.0219 -0.0939c-0.0497,0.0389 -0.1022,0.0686 -0.1585,0.0883 -0.0562,0.0201 -0.1149,0.03 -0.1767,0.03 -0.1375,0 -0.251,-0.0451 -0.34,-0.135 -0.0889,-0.09 -0.1334,-0.2046 -0.1334,-0.344 0,-0.0803 0.0142,-0.156 0.0429,-0.2271 0.0287,-0.0714 0.0702,-0.1341 0.1245,-0.1885 0.0501,-0.0501 0.1076,-0.0881 0.1722,-0.114 0.0645,-0.026 0.1335,-0.039 0.2073,-0.039 0.0943,0 0.1749,0.0177 0.2426,0.0526 0.0677,0.0349 0.1236,0.0884 0.1675,0.16l0.1004 -0.5077 0.1205 0 -0.2599 1.3183zm1.14 -0.5698c-0.0096,-0.1063 -0.0461,-0.1901 -0.1094,-0.2513 -0.0637,-0.0611 -0.1449,-0.0917 -0.2448,-0.0917 -0.0976,0 -0.1829,0.0309 -0.2561,0.0927 -0.073,0.0618 -0.1221,0.1452 -0.1474,0.2503l0.7577 0zm0.0952 0.2376c-0.0482,0.1196 -0.1156,0.2092 -0.2018,0.2689 -0.0866,0.0596 -0.1925,0.0896 -0.318,0.0896 -0.1406,0 -0.2559,-0.0452 -0.3455,-0.1351 -0.0896,-0.0899 -0.1344,-0.2052 -0.1344,-0.3458 0,-0.0849 0.0167,-0.1653 0.0497,-0.2407 0.0334,-0.0754 0.081,-0.1409 0.1431,-0.1965 0.0488,-0.0436 0.1042,-0.0763 0.1653,-0.0983 0.0612,-0.0219 0.1264,-0.0331 0.196,-0.0331 0.1436,0 0.2595,0.0461 0.3473,0.1385 0.0878,0.0924 0.1316,0.2148 0.1316,0.3674 0,0.0151 0,0.0266 -0.0003,0.0346 -0.0003,0.0077 -0.0012,0.0155 -0.0024,0.0226l-0.899 0c0,0.1125 0.0322,0.203 0.0964,0.2719 0.0643,0.0689 0.1477,0.1032 0.2503,0.1032 0.0859,0 0.1601,-0.0204 0.2228,-0.0615 0.0628,-0.0411 0.1141,-0.1029 0.1539,-0.1857l0.145 0zm0.1962 0.3322l-0.1168 0 0.1928 -0.996 0.1168 0 -0.0173 0.0816c0.0393,-0.0374 0.0835,-0.0652 0.1323,-0.0837 0.0488,-0.0183 0.1044,-0.0275 0.1665,-0.0275l0.0282 0 -0.0245 0.123 -0.0055 0c-0.0983,0 -0.1777,0.0259 -0.238,0.0781 -0.0602,0.0523 -0.1007,0.1301 -0.1214,0.2334l-0.1131 0.5911zm1.3746 -0.5698c-0.0096,-0.1063 -0.0461,-0.1901 -0.1094,-0.2513 -0.0637,-0.0611 -0.1449,-0.0917 -0.2448,-0.0917 -0.0976,0 -0.1829,0.0309 -0.2561,0.0927 -0.073,0.0618 -0.1221,0.1452 -0.1474,0.2503l0.7577 0zm0.0952 0.2376c-0.0482,0.1196 -0.1156,0.2092 -0.2018,0.2689 -0.0866,0.0596 -0.1925,0.0896 -0.318,0.0896 -0.1406,0 -0.2559,-0.0452 -0.3455,-0.1351 -0.0896,-0.0899 -0.1344,-0.2052 -0.1344,-0.3458 0,-0.0849 0.0167,-0.1653 0.0497,-0.2407 0.0334,-0.0754 0.081,-0.1409 0.1431,-0.1965 0.0488,-0.0436 0.1042,-0.0763 0.1653,-0.0983 0.0612,-0.0219 0.1264,-0.0331 0.196,-0.0331 0.1436,0 0.2595,0.0461 0.3473,0.1385 0.0878,0.0924 0.1316,0.2148 0.1316,0.3674 0,0.0151 0,0.0266 -0.0003,0.0346 -0.0003,0.0077 -0.0012,0.0155 -0.0024,0.0226l-0.899 0c0,0.1125 0.0322,0.203 0.0964,0.2719 0.0643,0.0689 0.1477,0.1032 0.2503,0.1032 0.0859,0 0.1601,-0.0204 0.2228,-0.0615 0.0628,-0.0411 0.1141,-0.1029 0.1539,-0.1857l0.145 0zm0.3946 -0.6638l-0.0201 0.0952c0.0507,-0.038 0.1007,-0.0664 0.1502,-0.085 0.0497,-0.0188 0.0989,-0.0281 0.1477,-0.0281 0.1075,0 0.1947,0.0303 0.2617,0.0906 0.0671,0.0602 0.1005,0.1387 0.1005,0.2354 0,0.0368 -0.0022,0.0751 -0.0068,0.1153 -0.0047,0.0402 -0.0112,0.08 -0.0195,0.1199l-0.0905 0.4527 -0.1233 0 0.1022 -0.5096c0.0056,-0.0272 0.0096,-0.0528 0.0124,-0.0769 0.0028,-0.0241 0.0043,-0.0476 0.0049,-0.0699 0,-0.076 -0.021,-0.135 -0.0633,-0.1773 -0.0423,-0.0424 -0.1011,-0.0634 -0.1765,-0.0634 -0.1001,0 -0.1804,0.0297 -0.2404,0.0893 -0.0599,0.0594 -0.1026,0.1518 -0.1279,0.2772l-0.1078 0.5306 -0.1169 0 0.1929 -0.996 0.1205 0zm1.454 0.996l-0.2003 -0.996 0.1341 0 0.1539 0.8365 0.4518 -0.8365 0.1412 0 -0.5503 0.996 -0.1304 0zm0.5568 0l0.0225 -0.1168 0.632 -0.7586 -0.4843 0 0.0244 -0.1206 0.6456 0 -0.0207 0.1079 -0.6394 0.7676 0.5504 0 -0.0226 0.1205 -0.7079 0zm1.0228 0l-0.1455 -0.996 0.131 0 0.1023 0.8276 0.3986 -0.8276 0.1276 0 0.1205 0.8177 0.3919 -0.8177 0.1294 0 -0.4823 0.996 -0.1314 0 -0.1168 -0.8068 -0.393 0.8068 -0.1323 0z"/>
  </g>
 </g>
</svg>
